<?xml version="1.0" encoding="UTF-8" standalone="no"?>
<!-- Created with Inkscape (http://www.inkscape.org/) -->

<svg
   width="210mm"
   height="297mm"
   viewBox="0 0 210 297"
   version="1.1"
   id="svg2034"
   inkscape:version="1.1.1 (3bf5ae0d25, 2021-09-20)"
   sodipodi:docname="bgleaf_grey.svg"
   xmlns:inkscape="http://www.inkscape.org/namespaces/inkscape"
   xmlns:sodipodi="http://sodipodi.sourceforge.net/DTD/sodipodi-0.dtd"
   xmlns:xlink="http://www.w3.org/1999/xlink"
   xmlns="http://www.w3.org/2000/svg"
   xmlns:svg="http://www.w3.org/2000/svg">
  <sodipodi:namedview
     id="namedview2036"
     pagecolor="#ffffff"
     bordercolor="#666666"
     borderopacity="1.0"
     inkscape:pageshadow="2"
     inkscape:pageopacity="0.0"
     inkscape:pagecheckerboard="0"
     inkscape:document-units="mm"
     showgrid="false"
     inkscape:zoom="1.0381216"
     inkscape:cx="242.26449"
     inkscape:cy="286.57529"
     inkscape:window-width="1920"
     inkscape:window-height="1009"
     inkscape:window-x="-8"
     inkscape:window-y="-8"
     inkscape:window-maximized="1"
     inkscape:current-layer="layer1" />
  <defs
     id="defs2031">
    <linearGradient
       inkscape:collect="always"
       id="linearGradient6044">
      <stop
         style="stop-color:#585858;stop-opacity:0.59607846"
         offset="0"
         id="stop6040" />
      <stop
         style="stop-color:#4e4e4e;stop-opacity:0.80000001"
         offset="1"
         id="stop6042" />
    </linearGradient>
    <radialGradient
       inkscape:collect="always"
       xlink:href="#linearGradient6044"
       id="radialGradient6046"
       cx="109.37901"
       cy="73.440834"
       fx="109.37901"
       fy="73.440834"
       r="84.402001"
       gradientTransform="matrix(1.1751415,3.2220059e-6,-3.4584465e-6,1.2613769,-19.156547,-21.755407)"
       gradientUnits="userSpaceOnUse" />
  </defs>
  <rect
     style="fill:url(#radialGradient6046);fill-opacity:1;stroke:#814f4f;stroke-width:0;paint-order:stroke fill markers"
     id="rect2137"
     width="168.804"
     height="126.471"
     x="7.6444729e-07"
     y="7.6444729e-07"
     inkscape:export-filename="C:\Users\rdbog\Documents\Food Optimisation\Quanteco-HQ.github.io\assets\images\qe\bgleaf.png"
     inkscape:export-xdpi="100"
     inkscape:export-ydpi="100" />
  <g
     inkscape:label="Layer 1"
     inkscape:groupmode="layer"
     id="layer1">
    <path
       d="M 88.478011,77.327669 C 86.9488,75.869291 85.670426,75.520002 84.642843,76.27928 c -1.430896,0.727079 -1.621179,1.9643 -0.570835,3.712169 3.128722,3.252545 5.490259,4.511183 7.084618,3.775683 1.346339,-1.246736 0.453444,-3.393092 -2.678615,-6.439463 m 14.301029,-23.54855 c -0.89278,-3.430451 -2.09906,-4.817259 -3.619045,-4.159705 -1.265609,1.081681 -1.491928,2.837574 -0.678973,5.267893 0.791981,3.232083 2.116528,4.418573 3.973078,3.558975 0.92715,-0.703209 1.03572,-2.258846 0.32494,-4.667163 m 11.72208,0.03375 c -2.53171,1.691504 -3.04053,3.011085 -1.52611,3.958482 2.0043,0.595758 3.63227,-0.333206 4.88405,-2.786959 0.76518,-3.038474 -0.35412,-3.428811 -3.35794,-1.171523 m -4.48882,24.074917 c -2.78884,1.659243 -2.70212,2.655361 0.26108,2.988386 10.22446,0.652807 14.71763,-1.015014 13.47979,-5.002708 -0.95828,-2.705989 -5.53855,-2.034541 -13.74087,2.014322 m 0.0107,17.822179 c -3.19445,1.158634 -3.46696,2.077768 -0.81702,2.75684 12.3748,3.168645 18.11052,2.369275 17.20671,-2.398523 -0.68298,-3.740127 -6.14631,-3.859793 -16.38969,-0.358317 m 1.04025,27.742205 c -4.95163,-8.99443 -10.14264,-10.03273 -15.572157,-3.11554 -16.08292,20.94253 -29.520127,20.84182 -40.31138,-0.30306 -6.327745,-15.2356 -7.191765,-29.78202 -2.591938,-43.639352 2.634277,-3.3197 4.349266,-3.252357 5.144636,0.201605 8.637827,16.209461 16.871452,24.442197 24.701163,24.698567 3.163402,-0.67509 3.549126,-2.47233 1.156643,-5.390957 C 61.674707,76.771603 56.174764,60.703882 67.090031,47.70096 c 3.896618,-5.050866 6.885221,-5.311917 8.965154,-0.783238 5.870494,15.50021 11.04355,25.031431 15.519658,28.593094 2.725582,1.824527 3.717112,1.059653 2.973411,-2.294227 -0.546892,-3.736904 -5.35579,-12.513263 -14.426428,-26.328701 -6.10292,-8.797992 -2.168176,-15.92401 11.804777,-21.377367 4.216085,-1.691775 6.577722,-0.433024 7.084614,3.775889 0.550996,10.467004 2.315413,17.31186 5.293793,20.53454 2.07486,2.487859 3.42538,1.800139 4.05162,-2.063334 -0.50718,-6.64408 -2.15363,-13.6894 -4.93904,-21.135066 -3.26173,-6.30831 0.64198,-12.237912 11.71149,-17.7883504 3.87726,-1.9889311 7.61546,-3.2919579 11.21479,-3.909603 6.33028,3.985463 9.72742,10.5790164 10.1922,19.7811944 -1.18191,4.963212 -4.41291,10.209644 -9.693,15.740008 -1.33682,3.158129 -0.21259,4.22635 3.37249,3.204642 2.82294,-1.405513 6.96794,-7.057346 12.43524,-16.955874 2.671,-1.858157 5.48886,1.82933 8.45381,11.061721 2.45567,9.362657 0.7854,15.395221 -5.01099,18.09819 -10.92652,4.066775 -17.67446,8.182849 -20.24372,12.348532 -1.70804,3.389691 -0.82008,4.858149 2.66387,4.406118 8.33727,-1.442817 15.99413,-6.642106 22.97083,-15.598228 3.92734,-4.170139 6.87974,-3.912719 8.85688,0.772773 6.11579,12.850053 7.19125,23.607074 3.22647,32.271214 -1.53789,3.695353 -4.99869,4.757354 -10.38282,3.186162 -5.71858,-1.420618 -10.34935,-2.264 -13.89365,-2.529861 -3.2918,-0.258295 -5.23318,1.430411 -5.82387,5.066478 0.4683,2.893169 3.42048,3.150776 8.85695,0.772327 14.83218,-3.440301 22.02021,-1.89818 21.56409,4.626737 -0.86434,10.87483 -2.37053,17.54437 -4.51858,20.00807 -1.77776,3.73762 -5.60325,4.04478 -11.47601,0.92136 -8.37926,-6.31603 -14.2576,-8.70511 -17.63544,-7.1673 -4.25403,2.44711 -4.28009,4.32119 -0.0784,5.62243 7.68694,0.25324 14.27926,2.11878 19.77695,5.59662 2.48228,1.67812 3.18,4.38411 2.09271,8.11816 -3.09654,7.37909 -9.85945,9.46199 -20.28832,6.24875 -7.17013,-2.36754 -14.06971,-8.05848 -20.69824,-17.07263"
       style="fill:#636363;fill-opacity:1;fill-rule:evenodd;stroke:none;stroke-width:0.149043"
       id="path1284"
       inkscape:export-filename="C:\Users\rdbog\Documents\Food Optimisation\Quanteco-HQ.github.io\assets\images\qe\bgleaf_grey.png"
       inkscape:export-xdpi="100"
       inkscape:export-ydpi="100" />
    <path
       d="m 107.73545,126.34712 c -0.11138,1.88183 -0.70708,2.20505 -1.78717,0.97009 -3.20276,-5.21688 -5.47565,-10.74242 -6.819482,-16.5762 -6.491558,2.51188 -13.695711,4.1992 -21.61262,5.06225 8.717657,-1.83284 15.798694,-3.99763 21.243293,-6.49484 -0.656679,-2.54692 -0.984866,-3.8203 -0.984866,-3.8203 -15.386566,2.96256 -27.451802,-0.37789 -36.196072,-10.021809 10.647461,8.976399 22.748632,11.798549 36.30441,8.466129 C 97.094118,99.628241 97.028207,96.080215 97.685419,93.288392 86.346805,89.192313 77.184233,79.33162 70.197385,63.706155 77.092131,77.840036 86.331816,87.341432 97.916661,92.210144 99.13823,83.884706 100.8807,76.814724 103.14417,71.000544 96.174693,61.825245 91.314943,51.534355 88.564896,40.127881 c 3.606557,11.548728 8.661475,21.279971 15.164874,29.193839 4.47095,-11.670571 7.91348,-20.706603 10.32777,-27.107894 -3.00895,-6.367201 -4.48623,-12.097756 -4.43195,-17.191788 0.78214,7.331957 2.57793,12.980357 5.38696,16.945657 6.60181,-13.254859 9.9509,-24.702811 10.04816,-34.3439917 0.37199,1.7959263 0.35184,4.1715497 -0.0605,7.1268837 -1.38717,9.943651 -7.21375,26.45013 -17.47974,49.51986 15.83678,-2.066881 28.49557,-10.253153 37.97669,-24.559188 -7.08551,13.398313 -19.9395,22.144434 -38.56247,26.237782 -2.69522,6.612782 -4.67875,13.405351 -5.95113,20.377731 15.3906,3.98597 32.82348,-0.168614 52.299,-12.463788 -19.36958,13.348632 -36.99798,18.063148 -52.88492,14.142672 -0.615197,3.497539 -0.944795,7.487143 -0.988733,11.968407 17.731093,7.164817 34.217453,9.874737 49.459283,8.130427 -19.08907,2.36422 -35.61155,0.17236 -49.567504,-6.57484 -0.05275,1.69631 0.15749,3.16994 0.630497,4.42109 13.387907,8.82995 23.901087,18.00326 31.539467,27.5191 -11.92489,-11.61613 -22.27402,-20.15229 -31.04725,-25.60887 1.41328,5.79684 3.85046,11.95884 7.31205,18.48615"
       style="fill:#7d7d7d;fill-opacity:1;fill-rule:evenodd;stroke:none;stroke-width:0.149043"
       id="path1292"
       inkscape:export-filename="C:\Users\rdbog\Documents\Food Optimisation\Quanteco-HQ.github.io\assets\images\qe\bgleaf.png"
       inkscape:export-xdpi="100"
       inkscape:export-ydpi="100"
       sodipodi:nodetypes="ccccccccccccccccccsccccccccccccc" />
  </g>
</svg>
