<?xml version="1.0" encoding="UTF-8" standalone="no"?>
<!-- Created with Inkscape (http://www.inkscape.org/) -->

<svg
   width="210mm"
   height="297mm"
   viewBox="0 0 210 297"
   version="1.1"
   id="svg84851"
   inkscape:version="1.1.1 (3bf5ae0d25, 2021-09-20)"
   sodipodi:docname="computer_white.svg"
   inkscape:export-filename="C:\Users\rdbog\Documents\Food Optimisation\Quanteco-HQ.github.io\assets\images\qe\computer_white.png"
   inkscape:export-xdpi="106.59595"
   inkscape:export-ydpi="106.59595"
   xmlns:inkscape="http://www.inkscape.org/namespaces/inkscape"
   xmlns:sodipodi="http://sodipodi.sourceforge.net/DTD/sodipodi-0.dtd"
   xmlns="http://www.w3.org/2000/svg"
   xmlns:svg="http://www.w3.org/2000/svg">
  <sodipodi:namedview
     id="namedview84853"
     pagecolor="#ffffff"
     bordercolor="#666666"
     borderopacity="1.0"
     inkscape:pageshadow="2"
     inkscape:pageopacity="0.0"
     inkscape:pagecheckerboard="0"
     inkscape:document-units="mm"
     showgrid="false"
     inkscape:zoom="2.0762433"
     inkscape:cx="-30.102445"
     inkscape:cy="-83.805207"
     inkscape:window-width="958"
     inkscape:window-height="1000"
     inkscape:window-x="946"
     inkscape:window-y="0"
     inkscape:window-maximized="0"
     inkscape:current-layer="layer4" />
  <defs
     id="defs84848" />
  <g
     inkscape:groupmode="layer"
     id="layer4"
     inkscape:label="Layer 2" />
  <g
     inkscape:label="Layer 1"
     inkscape:groupmode="layer"
     id="layer1">
    <path
       id="path1008"
       style="fill:#ffffff;fill-opacity:1;fill-rule:evenodd;stroke:none;stroke-width:0.0974506"
       d="M 0.07659593,6.1033459 H 11.837647 v 1.4763803 c 0,0.2182902 -0.17892,0.3975995 -0.39779,0.3975995 H 0.47439273 c -0.21887704,0 -0.3977968,-0.1793093 -0.3977968,-0.3975995 V 6.1033459" />
    <path
       id="path1010"
       style="fill:#ffffff;fill-opacity:1;fill-rule:nonzero;stroke:none;stroke-width:0.0974506"
       d="M 0.07659593,6.0263599 H 11.914148 v 1.5533663 c 0,0.1305844 -0.05328,0.249474 -0.13965,0.3352312 -0.08605,0.085756 -0.204449,0.1393542 -0.334641,0.1393542 H 0.47439273 c -0.13058657,0 -0.24898936,-0.053596 -0.33464865,-0.1393542 C 0.05331005,7.8292002 -4.4048073e-7,7.7103106 -4.4048073e-7,7.5797262 V 6.1033459 6.0263599 Z M 11.760758,6.1793575 H 0.15348465 v 1.4003687 c 0,0.08868 0.0361786,0.1685902 0.0940425,0.2260858 0.0581782,0.05847 0.1384801,0.094528 0.22686558,0.094528 H 11.439857 c 0.08829,0 0.168688,-0.036054 0.226866,-0.094528 0.05789,-0.057499 0.09403,-0.1374057 0.09403,-0.2260858 V 6.1793575" />
    <path
       id="path1012"
       style="fill:#ffffff;fill-opacity:1;fill-rule:evenodd;stroke:none;stroke-width:0.0974506"
       d="M 4.4295353,7.9003398 H 7.330937 V 8.8309952 H 4.4295353 V 7.9003398" />
    <path
       id="path1014"
       style="fill:#ffffff;fill-opacity:1;fill-rule:nonzero;stroke:none;stroke-width:0.0974506"
       d="M 4.5064241,7.9003398 H 7.4847145 V 8.9839927 H 4.4295353 V 8.9079811 7.9773257 7.9003398 Z M 7.3313244,8.0543116 H 4.5829181 V 8.8309951 H 7.3313244 V 8.0543116" />
    <path
       id="path1016"
       style="fill:#ffffff;fill-opacity:1;fill-rule:evenodd;stroke:none;stroke-width:0.0974506"
       d="M 3.4698369,9.0629279 H 8.4440182 V 8.75206 H 3.4698369 v 0.3108679" />
    <path
       id="path1018"
       style="fill:#ffffff;fill-opacity:1;fill-rule:nonzero;stroke:none;stroke-width:0.0974506"
       d="M 3.4698369,8.675074 H 8.5205196 V 9.1399146 H 3.3937303 V 9.0629279 8.75206 8.675074 Z M 8.3671295,8.8290459 H 3.547113 V 8.9869163 H 8.3671295 V 8.8290459" />
    <path
       id="path1022"
       style="fill:#013668;fill-opacity:0;fill-rule:nonzero;stroke:none;stroke-width:0.0974506"
       d="m 5.9570774,6.549671 c 0.1355493,0 0.2585347,0.054575 0.3476072,0.1432527 0.088678,0.08868 0.1434428,0.2114681 0.1434428,0.3478996 0,0.1344822 -0.054743,0.2582445 -0.1434428,0.3469245 -0.089072,0.088681 -0.2120579,0.1432528 -0.3476072,0.1432528 -0.1354616,0 -0.2584397,-0.054575 -0.3471248,-0.1432528 -0.089065,-0.08868 -0.1439325,-0.2124423 -0.1439325,-0.3469245 0,-0.1364315 0.054889,-0.2592195 0.1439325,-0.3478996 C 5.6986377,6.604243 5.8216158,6.549671 5.9570774,6.549671 Z M 6.1958271,6.8020685 C 6.1349447,6.7397023 6.0503379,6.7016943 5.9570774,6.7016943 c -0.093261,0 -0.1777503,0.038006 -0.238662,0.1003742 -0.060882,0.060422 -0.099297,0.145202 -0.099297,0.2387548 0,0.092578 0.038371,0.17736 0.099297,0.2377798 0.060882,0.061394 0.1454015,0.0994 0.238662,0.0994 0.09326,0 0.1778454,-0.038006 0.2387497,-0.0994 0.060882,-0.060422 0.099305,-0.145202 0.099305,-0.2377798 0,-0.093553 -0.038371,-0.1783351 -0.099305,-0.2387548" />
    <path
       id="path1024"
       style="fill:#72c8ee;fill-opacity:0;fill-rule:evenodd;stroke:none;stroke-width:0.0974506"
       d="M 0.47439273,0.07601132 H 11.439857 c 0.21887,0 0.39779,0.17930932 0.39779,0.39857373 V 6.1033459 H 0.07659593 V 0.47458505 c 0,-0.21926441 0.17891976,-0.39857373 0.3977968,-0.39857373" />
    <path
       id="path1026"
       style="fill:#ffffff;fill-opacity:1;fill-rule:nonzero;stroke:none;stroke-width:0.0974506"
       d="M 0.47439273,-3.4063083e-7 H 11.439857 c 0.130192,0 0.248595,0.0535955306308 0.334641,0.13935423063083 0.08635,0.0857572 0.13965,0.20464678 0.13965,0.33523116 V 6.1033459 6.1793575 H 11.837647 0.07659593 -4.4048069e-7 V 6.1033459 0.47458505 C -4.4048069e-7,0.34400067 0.05328081,0.22511112 0.13974408,0.13935389 0.22540337,0.05359738 0.34380616,-3.4063083e-7 0.47439273,-3.4063083e-7 Z M 11.439857,0.15299725 H 0.47439273 c -0.0883855,0 -0.16868742,0.0360544 -0.22686558,0.0945271 -0.0578858,0.0584705 -0.0940425,0.13838069 -0.0940425,0.22706072 V 6.0263599 H 11.760758 V 0.47458505 c 0,-0.08868 -0.03618,-0.16859021 -0.09403,-0.22706072 -0.05818,-0.0584705 -0.138575,-0.0945271 -0.226866,-0.0945271" />
    <path
       id="path1028"
       style="fill:#ffffff;fill-opacity:1;fill-rule:evenodd;stroke:none;stroke-width:0.0974506"
       d="m 10.982325,2.8280231 c -3.94e-4,0.0078 -7.31e-4,0.014618 -0.0015,0.021437 3.87e-4,-0.0068 7.3e-4,-0.013645 0.0015,-0.021437 z m -0.0029,0.039957 C 10.89413,3.7830438 10.124461,4.4993076 9.186886,4.4993076 V 3.7226241 c 0.5078164,0 0.928804,-0.3703135 1.009106,-0.8546438 z M 7.3862867,2.6984159 c 0,-0.014618 0,-0.030207 3.947e-4,-0.044825 -3.947e-4,0.014618 -3.947e-4,0.030207 -3.947e-4,0.044825 z m 0.00146,-0.057498 c 3.947e-4,-0.010722 7.309e-4,-0.022416 0.00146,-0.033131 -3.874e-4,0.010722 -7.309e-4,0.022416 -0.00146,0.033131 z m 0.00219,-0.0497 c 3.947e-4,-0.00974 7.309e-4,-0.019493 0.00219,-0.029235 -0.00146,0.00974 -0.00146,0.019493 -0.00219,0.029235 z m 0.00292,-0.047748 c 7.309e-4,-0.00877 0.00146,-0.016569 0.00292,-0.02534 -0.00146,0.00877 -0.00146,0.016569 -0.00292,0.02534 z m 0.00512,-0.046776 c 6.87e-4,-0.0078 0.00146,-0.01559 0.00219,-0.023388 -3.873e-4,0.0078 -0.00146,0.01559 -0.00219,0.023388 z m 0.00585,-0.044825 c 0.00146,-0.0078 0.00219,-0.01559 0.00292,-0.023388 -6.798e-4,0.0078 -0.00146,0.01559 -0.00292,0.023388 z m 0.00585,-0.042881 c 0.00146,-0.00877 0.00292,-0.016569 0.00365,-0.02436 -0.00146,0.0078 -0.00219,0.01559 -0.00365,0.02436 z m 0.00797,-0.044825 c 0.00146,-0.0078 0.00292,-0.01559 0.00439,-0.022416 -0.00146,0.0068 -0.00292,0.014618 -0.00439,0.022416 z m 0.0087,-0.043853 c 0.00146,-0.0078 0.00365,-0.014618 0.00439,-0.021437 -7.309e-4,0.0068 -0.00292,0.013645 -0.00439,0.021437 z m 0.00957,-0.042881 c 0.00219,-0.0068 0.00365,-0.014618 0.00585,-0.022416 -0.00219,0.0078 -0.00365,0.01559 -0.00585,0.022416 z m 0.011036,-0.042881 c 0.00219,-0.0078 0.00365,-0.014618 0.00585,-0.021437 -0.00219,0.0068 -0.00439,0.013646 -0.00585,0.021437 z m 0.011913,-0.041901 c 0.00146,-0.0078 0.00439,-0.014618 0.00585,-0.021437 -0.00219,0.0068 -0.00439,0.013646 -0.00585,0.021437 z m 0.012863,-0.041901 c 0.00219,-0.0068 0.00439,-0.013645 0.00658,-0.021437 -0.00219,0.0078 -0.00439,0.014618 -0.00658,0.021437 z m 0.013741,-0.041901 c 0.00219,-0.0068 0.00512,-0.013646 0.00731,-0.020465 -0.00219,0.0068 -0.00512,0.013646 -0.00731,0.020465 z m 0.014837,-0.040929 c 0.00219,-0.0068 0.00512,-0.012666 0.0076,-0.020465 -0.00219,0.0078 -0.00512,0.013645 -0.0076,0.020465 z m 0.015275,-0.039957 c 0.00292,-0.0068 0.00585,-0.013646 0.00826,-0.020465 -0.00219,0.0068 -0.00585,0.013645 -0.00826,0.020465 z m 0.01703,-0.039957 c 0.00292,-0.0068 0.00512,-0.013646 0.00841,-0.019493 -0.00292,0.00585 -0.00585,0.012666 -0.00841,0.019493 z m 0.017541,-0.039957 c 0.00292,-0.00585 0.00585,-0.012666 0.00914,-0.018513 -0.00365,0.00585 -0.00658,0.012666 -0.00914,0.018513 z m 0.017907,-0.038978 c 0.00365,-0.00585 0.00658,-0.012666 0.010232,-0.018513 -0.00365,0.00585 -0.00658,0.012666 -0.010232,0.018513 z m 0.019807,-0.038006 c 0.00365,-0.00585 0.00658,-0.012666 0.00987,-0.018513 -0.00365,0.00585 -0.00658,0.012666 -0.00987,0.018513 z m 0.020172,-0.038006 c 0.00365,-0.00585 0.00658,-0.011694 0.010232,-0.017541 -0.00365,0.00585 -0.00658,0.011694 -0.010232,0.017541 z m 0.021634,-0.037034 c 0.00292,-0.0068 0.00585,-0.011694 0.00957,-0.017541 -0.00365,0.00585 -0.00658,0.010722 -0.00957,0.017541 z m 0.021342,-0.037034 c 0.00365,-0.00585 0.0076,-0.011694 0.011036,-0.017541 -0.00365,0.00585 -0.00731,0.011694 -0.011036,0.017541 z m 0.023169,-0.036054 c 0.00365,-0.00585 0.00658,-0.010722 0.010744,-0.016569 -0.00365,0.00585 -0.00731,0.010722 -0.010744,0.016569 z m 0.024046,-0.036054 c 0.00365,-0.0049 0.00731,-0.010722 0.010232,-0.01559 -0.00292,0.0049 -0.00658,0.010722 -0.010232,0.01559 z m 0.023973,-0.035082 c 0.00365,-0.0049 0.00731,-0.010722 0.011036,-0.014618 -0.00365,0.00387 -0.0076,0.00974 -0.011036,0.014618 z m 0.025435,-0.03411 c 0.00292,-0.0049 0.00658,-0.00974 0.00994,-0.013645 -0.00365,0.00387 -0.00658,0.00877 -0.00994,0.013645 z m 0.026677,-0.03411 c 0.00292,-0.00387 0.00585,-0.0078 0.00841,-0.011694 -0.00292,0.00387 -0.00585,0.0078 -0.00841,0.011694 z m 0.0258,-0.033131 c 0.00365,-0.00387 0.00731,-0.0078 0.00994,-0.011694 -0.00292,0.00387 -0.00658,0.0078 -0.00994,0.011694 z m 0.027847,-0.033131 c 0.00292,-0.00292 0.00585,-0.00585 0.00943,-0.00974 -0.00365,0.00387 -0.00658,0.0068 -0.00943,0.00974 z m 0.028577,-0.031187 c 0.00219,-0.00292 0.00439,-0.00585 0.00658,-0.0078 -0.00219,0.00197 -0.00439,0.0049 -0.00658,0.0078 z m 0.3810377,-0.316715 c 0.00292,-0.00197 0.00585,-0.00387 0.00906,-0.00585 -0.00365,0.00197 -0.00585,0.00387 -0.00906,0.00585 z m 0.1104069,-0.063346 c 0.00292,-0.00197 0.00658,-0.00387 0.00943,-0.0049 -0.00292,9.501e-4 -0.00658,0.00292 -0.00943,0.0049 z M 9.1012779,0.90044331 V 1.6790754 H 9.100547 c -0.08946,0.0078 -0.1761936,0.026312 -0.2580523,0.056519 0.081859,-0.030207 0.1685924,-0.048728 0.2580523,-0.056519 z M 8.8416688,1.7355966 c -0.00731,0.00292 -0.014545,0.0049 -0.021707,0.0078 0.00731,-0.00292 0.014544,-0.0049 0.021707,-0.0078 z m -0.022146,0.0078 c -0.00731,0.00387 -0.014033,0.00585 -0.02083,0.00877 0.00658,-0.00292 0.013668,-0.0049 0.02083,-0.00877 z m -0.022804,0.00974 c -0.00658,0.00197 -0.012937,0.00585 -0.019368,0.0078 0.00658,-0.00197 0.012571,-0.00585 0.019368,-0.0078 z m -0.022438,0.00974 c -0.00585,0.00197 -0.012206,0.0049 -0.019076,0.00877 0.00731,-0.00387 0.012937,-0.0068 0.019076,-0.00877 z m -0.021342,0.00877 c -0.00585,0.00292 -0.012206,0.0068 -0.01871,0.00974 0.00658,-0.00292 0.012571,-0.0068 0.01871,-0.00974 z m -0.021342,0.010722 c -0.00658,0.00292 -0.012937,0.0068 -0.019003,0.00974 0.00585,-0.00292 0.012571,-0.0068 0.019003,-0.00974 z m -0.020538,0.010722 c -0.00585,0.00292 -0.012937,0.0068 -0.019368,0.010722 0.00658,-0.00387 0.013375,-0.0078 0.019368,-0.010722 z m -0.020538,0.010722 c -0.00658,0.00387 -0.012937,0.0078 -0.019003,0.010722 0.00585,-0.00292 0.012571,-0.0068 0.019003,-0.010722 z m -0.020976,0.011694 c -0.00585,0.00387 -0.012206,0.0078 -0.019003,0.011694 0.00658,-0.00387 0.012937,-0.0078 0.019003,-0.011694 z m -0.019003,0.011694 C 8.5915598,1.8632546 8.537109,1.9061356 8.486437,1.9529122 8.537087,1.9061362 8.5915816,1.8632572 8.6505418,1.8272006 Z m -0.166347,0.1286398 c -0.00512,0.00292 -0.00914,0.00877 -0.014106,0.012666 0.00512,-0.00387 0.00914,-0.00974 0.014106,-0.012666 z m -0.017176,0.01559 c -0.00439,0.0049 -0.00877,0.00877 -0.012937,0.013646 0.00439,-0.0049 0.00877,-0.00877 0.012937,-0.013646 z m -0.017176,0.017541 c -0.00365,0.00387 -0.0076,0.0078 -0.011402,0.011694 0.00365,-0.00387 0.0076,-0.0078 0.011402,-0.011694 z m -0.016372,0.017541 c -0.00365,0.00387 -0.0076,0.0078 -0.010598,0.011694 0.00292,-0.00387 0.00658,-0.0078 0.010598,-0.011694 z m -0.016006,0.017541 c -0.00365,0.0049 -0.00731,0.0078 -0.010598,0.012666 0.00365,-0.0049 0.00731,-0.0078 0.010598,-0.012666 z m -0.015202,0.018513 c -0.00365,0.00387 -0.00658,0.0078 -0.010232,0.011694 0.00365,-0.00387 0.00658,-0.0078 0.010232,-0.011694 z M 8.3866952,2.06108 c -0.00292,0.00387 -0.00585,0.0078 -0.00877,0.010722 0.00292,-0.00292 0.00585,-0.0068 0.00877,-0.010722 z m -0.014837,0.019493 c -0.00292,0.00387 -0.00585,0.0078 -0.00877,0.010722 0.00292,-0.00292 0.00585,-0.0068 0.00877,-0.010722 z m -0.014545,0.018513 c -0.00219,0.00387 -0.00585,0.0078 -0.00841,0.011694 0.00292,-0.00387 0.00585,-0.0078 0.00841,-0.011694 z m -0.013667,0.019493 c -0.00219,0.00387 -0.00512,0.0078 -0.00767,0.011694 0.00219,-0.00387 0.00512,-0.0078 0.00767,-0.011694 z m -0.013375,0.019493 c -0.00219,0.0049 -0.00512,0.00877 -0.0076,0.012666 0.00219,-0.00387 0.00512,-0.0078 0.0076,-0.012666 z m -0.012937,0.020465 c -0.00219,0.00387 -0.00439,0.0078 -0.0076,0.011694 0.00292,-0.00387 0.00512,-0.0078 0.0076,-0.011694 z m -0.013375,0.022416 c -0.00146,0.00292 -0.00439,0.0068 -0.00585,0.00974 0.00146,-0.00292 0.00439,-0.0068 0.00585,-0.00974 z m -0.010598,0.019493 c -0.00292,0.00387 -0.00512,0.0078 -0.00731,0.012666 0.00219,-0.0049 0.00439,-0.00877 0.00731,-0.012666 z m -0.00914,0.01559 c -0.00914,0.017541 -0.017834,0.03411 -0.026239,0.052623 0.00841,-0.018513 0.017029,-0.035082 0.026239,-0.052623 z m -0.030039,0.060422 c -0.00146,0.00387 -0.00365,0.0078 -0.00512,0.011694 0.00219,-0.00387 0.00365,-0.0078 0.00512,-0.011694 z m -0.00994,0.022416 c -0.00146,0.00387 -0.00292,0.0078 -0.00439,0.011694 0.00146,-0.00387 0.00292,-0.0078 0.00439,-0.011694 z m -0.00914,0.022416 c -0.00146,0.00387 -0.00292,0.0078 -0.00439,0.011694 0.00146,-0.00387 0.00292,-0.0078 0.00439,-0.011694 z m -0.00877,0.023388 c -7.309e-4,0.00387 -0.00292,0.0068 -0.00365,0.010722 0.00146,-0.00387 0.00292,-0.0068 0.00365,-0.010722 z m -0.00841,0.023388 c -7.309e-4,0.00292 -0.00146,0.0068 -0.00365,0.00974 0.00146,-0.00292 0.00219,-0.0068 0.00365,-0.00974 z M 8.2030852,2.41387 c -7.309e-4,0.00387 -0.00146,0.0078 -0.00292,0.011694 0.00146,-0.00387 0.00219,-0.0078 0.00292,-0.011694 z m -0.012206,0.048728 c -0.00146,0.00292 -0.00146,0.0078 -0.00292,0.011694 0.00146,-0.00387 0.00146,-0.00877 0.00292,-0.011694 z m -0.010598,0.047748 c -3.874e-4,0.00387 -0.00146,0.0078 -0.00219,0.011694 7.309e-4,-0.00387 0.00146,-0.0078 0.00219,-0.011694 z m -0.00365,0.02534 c -7.309e-4,0.00387 -0.00146,0.0068 -0.00219,0.010722 7.309e-4,-0.00387 0.00146,-0.0068 0.00219,-0.010722 z m -0.00365,0.02534 c -7.309e-4,0.00387 -7.309e-4,0.0068 -0.00146,0.010722 3.874e-4,-0.00387 3.874e-4,-0.0068 0.00146,-0.010722 z m -0.00365,0.02534 c 0,0.00387 -6.798e-4,0.0068 -6.798e-4,0.010722 0,-0.00387 6.798e-4,-0.0068 6.798e-4,-0.010722 z m -0.00219,0.02534 c -3.874e-4,0.00387 -3.874e-4,0.0068 -7.309e-4,0.010722 3.874e-4,-0.00387 3.874e-4,-0.0068 7.309e-4,-0.010722 z m -0.00146,0.02534 c 0,0.00387 -3.874e-4,0.0078 -3.874e-4,0.010722 0,-0.00292 3.874e-4,-0.0068 3.874e-4,-0.010722 z M 10.210592,2.69844 c 0,0.00877 0,0.017541 -7.31e-4,0.026312 7.31e-4,-0.00877 7.31e-4,-0.017541 7.31e-4,-0.026312 z m -7.31e-4,0.027284 c 0,0.0078 -3.95e-4,0.016569 -3.95e-4,0.02436 0,-0.0078 3.95e-4,-0.016569 3.95e-4,-0.02436 z m -7.31e-4,0.028263 c -7.31e-4,0.0068 -7.31e-4,0.013645 -0.0015,0.020465 3.88e-4,-0.0068 6.8e-4,-0.013646 0.0015,-0.020465 z m -0.0015,0.028263 c -3.94e-4,0.0049 -0.0015,0.010722 -0.0015,0.01559 3.88e-4,-0.0049 0.0015,-0.010722 0.0015,-0.01559" />
    <path
       id="path1030"
       style="fill:#ffffff;fill-opacity:1;fill-rule:nonzero;stroke:none;stroke-width:0.0974506"
       d="m 11.058045,2.84459 v 0 l -0.0015,0.010722 v 0 l -0.0015,0.019493 C 11.01061,3.3542628 10.785959,3.7810975 10.449849,4.0870934 10.115982,4.39114 9.6724836,4.5762964 9.186791,4.5762964 H 9.1102897 V 4.4993105 3.722627 3.645641 h 0.076501 c 0.233005,0 0.4465174,-0.083808 0.6109218,-0.2231629 C 9.9656182,3.2802004 10.083239,3.0814006 10.120565,2.8553142 l 0.01023,-0.063346 h -0.0015 l 7.31e-4,-0.00877 h -3.88e-4 l 7.31e-4,-0.0078 0.152316,0.012666 v 0.00292 h 0.696573 0.08381 z m -0.711491,1.1294551 c 0.290108,-0.2640916 0.4892,-0.6236852 0.546699,-1.0300553 H 10.259045 C 10.20496,3.1807954 10.075543,3.3873907 9.8970104,3.5384398 9.7234553,3.6855903 9.5041909,3.7791431 9.26319,3.7966843 V 4.4213444 C 9.6799898,4.4028312 10.058389,4.2371623 10.346554,3.9740451 Z M 7.3099827,2.6984137 c 0,-0.00585 0,0 3.946e-4,-0.023388 0,-0.00877 3.874e-4,-0.016569 3.874e-4,-0.023388 l 0.1522207,0.00292 c 0,0.00877 0,0.016569 0,0.022416 -2.924e-4,0.00877 0,-9.501e-4 0,0.021437 z m 0.1541721,-0.067241 -7.309e-4,0.00974 h 7.309e-4 v 0 h -7.309e-4 v 0.00197 0 0 l -0.152608,-0.00197 v 0 l 7.309e-4,-0.00292 c 0,-0.012666 7.308e-4,-0.02534 7.308e-4,-0.03411 l 0.1526081,0.0078 H 7.464491 v 9.501e-4 9.502e-4 0 9.501e-4 0 c 0,0.00585 -3.874e-4,0.011694 -3.874e-4,0.016569 z m 3.874e-4,-0.016569 -3.874e-4,0.012666 z m -0.1515337,-0.028263 7.309e-4,-0.00387 v -9.502e-4 0 l 3.874e-4,-9.501e-4 v 0 l 3.873e-4,-0.017541 v 0 0 -9.501e-4 l 7.309e-4,-0.00585 0.152608,0.011694 -7.308e-4,0.00197 v 9.501e-4 9.502e-4 0.00197 c -2.924e-4,0.00877 -6.798e-4,0.013645 -7.309e-4,0.017541 v 0.00387 z m 0.00365,-0.048728 7.309e-4,-0.0049 0.00219,-0.022416 0.1522133,0.014618 c -7.309e-4,0.0049 -7.309e-4,0.0068 -0.00146,0.020465 l -3.873e-4,0.0049 z m 0.00512,-0.0497 0.00146,-0.00585 3.873e-4,-0.00387 0.00146,-0.014618 0.1514386,0.019493 v 0 0 l -3.874e-4,0.0068 v 0 c 0,0.00197 -6.87e-4,0.00387 -7.308e-4,0.00877 v 9.501e-4 0 l -3.947e-4,0.0049 z m 0.00585,-0.046776 3.874e-4,-0.00387 c 0.00146,-0.012666 0.00146,-0.012666 0.00292,-0.020465 l 0.1507589,0.023388 -0.00219,0.016569 -3.947e-4,0.0049 z m 0.00658,-0.044825 0.1503642,0.02436 7.309e-4,-0.00387 0.00365,-0.018513 -0.1507589,-0.026312 c -0.00146,0.00585 -0.00146,0.0068 -0.00365,0.020465 z m 0.1587474,-0.022416 -7.309e-4,0.00387 -0.1499768,-0.027284 3.873e-4,-0.0049 7.309e-4,-9.501e-4 z M 7.3463806,2.3280907 v -0.00197 l 0.1499768,0.030207 v 0 l -0.00146,0.0078 v 0 9.501e-4 l -0.00146,0.00877 z m 0.00439,-0.023388 0.1495894,0.031187 0.00146,-0.00387 0.00365,-0.016569 -0.1488074,-0.03411 c -0.00292,0.013646 -0.00365,0.017541 -0.00439,0.019493 z m 0.010598,-0.045804 v 0 l 7.309e-4,-0.00197 v -9.502e-4 l 3.874e-4,-0.00197 v -9.502e-4 h 3.947e-4 l 3.873e-4,-0.00292 h 3.874e-4 c 7.309e-4,-0.0049 7.309e-4,-0.00585 0.00219,-0.00974 l 3.947e-4,-0.00197 v 0 l 3.874e-4,-9.502e-4 v 0 -9.501e-4 l 0.1484201,0.038006 -2.924e-4,9.501e-4 -7.309e-4,0.00292 -7.309e-4,9.501e-4 v 9.502e-4 l -0.00219,0.0078 v 0 l -0.00146,0.00585 v 0 9.502e-4 h -3.946e-4 v 0 0 l -0.1485219,-0.0351 v 0 z m 0.00219,-0.00877 0.00219,-0.00974 c -0.00146,0.00292 -0.00146,0.0049 -0.00219,0.00974 z m 0.00877,-0.035082 0.1472506,0.038978 v 0 l 0.00585,-0.020465 v 0 0 l -0.1473503,-0.04093 c -0.00292,0.011694 -0.00439,0.016569 -0.00585,0.021437 z m 0.012206,-0.044825 6.797e-4,-9.501e-4 v 0 c 0.00219,-0.00877 0.00512,-0.017541 0.00585,-0.020465 l 0.1461763,0.044825 c -0.00365,0.00974 -0.00512,0.014618 -0.00585,0.019493 v 0 l -6.798e-4,9.501e-4 z m 0.013229,-0.043853 0.1457889,0.046776 0.00365,-0.00974 v 0 l 0.00365,-0.00974 -0.1457889,-0.046776 -0.00365,0.00974 v 0 z m 0.01491,-0.041901 0.00365,-0.010722 v -9.502e-4 l 0.00365,-0.00974 0.1442248,0.050672 -0.00365,0.010722 v 0 l -0.00365,0.00974 z m 0.015202,-0.043853 0.1427704,0.053596 c 0.00146,-0.00387 0.00365,-0.00974 0.0076,-0.018513 L 7.435475,2.0211205 c -0.00146,0.00387 -0.00439,0.010722 -0.0076,0.019493 z m 0.016372,-0.041901 0.00365,-0.00974 h 3.947e-4 l 0.00439,-0.010722 0.1408117,0.05847 -0.00365,0.00974 v 0 l -0.00365,0.010722 z m 0.017176,-0.040929 0.1404242,0.060422 0.00365,-0.00974 h 3.947e-4 l 0.00439,-0.00974 -0.1400369,-0.061394 -0.00439,0.00974 v 9.502e-4 z m 0.018638,-0.041901 v 9.502e-4 l 0.1389624,0.063346 0.00439,-0.00974 v 0 l 0.00439,-0.00877 v 0 0 l -0.1385751,-0.06529 -0.00439,0.00974 v 9.502e-4 z m 0.018637,-0.039957 0.00512,-0.00974 3.947e-4,-9.502e-4 0.00512,-0.00877 0.1358416,0.068213 -0.00439,0.00877 v 0 l -0.00512,0.00974 z m 0.020538,-0.039957 0.00512,-0.00974 v -9.501e-4 l 0.00439,-0.00877 0.1355565,0.071137 -0.00512,0.00974 v 0 l -0.00512,0.00877 z m 0.020976,-0.039957 0.1343872,0.073088 c 0.012937,-0.022416 0.0076,-0.013646 0.00914,-0.016569 l -0.1328294,-0.07504 c -0.00877,0.01559 -0.00439,0.0078 -0.010744,0.018513 z m 0.022511,-0.038978 0.131661,0.076986 c 0.00585,-0.010722 0.00797,-0.013646 0.00957,-0.016569 L 7.573368,1.7394917 Z m 0.1526081,0.040929 v 9.502e-4 l -0.1301919,-0.07991 c 0.00219,-0.00387 0.00585,-0.00974 0.010305,-0.016569 l 7.309e-4,-9.501e-4 0.1287301,0.080884 -0.00292,0.00585 -6.797e-4,9.501e-4 h -3.947e-4 l -0.00585,0.00974 z M 7.6094979,1.6810195 c 0.00585,-0.00974 0.00797,-0.012666 0.00957,-0.014618 l 0.00146,-0.00197 0.1274657,0.083808 -0.00219,0.00197 -0.00841,0.013646 z m 0.024777,-0.038006 0.126004,0.086731 3.873e-4,-9.501e-4 v 0 h 3.947e-4 v 0 c 0.00146,-0.00292 0.00146,-0.00292 0.00731,-0.00974 h -3.873e-4 l 3.873e-4,-9.501e-4 v 0 l 0.00219,-0.00292 -0.1253242,-0.087706 -7.309e-4,0.00292 v 0 l -0.00146,9.502e-4 v 0 l -0.00797,0.010722 v 0 9.502e-4 z m 0.025142,-0.036054 0.1240524,0.089655 c 0.00994,-0.013645 0.00797,-0.010722 0.00877,-0.011694 l 0.00219,-0.00292 -0.1233728,-0.090629 -0.00146,0.00292 c -0.00731,0.00974 -0.00585,0.0068 -0.00957,0.012666 z m 0.026604,-0.035082 7.309e-4,-0.00197 0.00146,-0.00197 h 3.873e-4 v 0 0 l 3.947e-4,-0.00197 h 6.797e-4 l 7.309e-4,-9.501e-4 v 0 l 0.00146,-9.501e-4 v 0 l 3.874e-4,-9.502e-4 v 0 0 h 3.946e-4 v -9.501e-4 0 0 l 3.874e-4,-9.502e-4 0.00365,-0.00387 0.121034,0.093553 -0.00365,0.0049 -0.00219,0.00197 V 1.65872 h -6.797e-4 l -0.00292,0.0049 z m 0.027481,-0.037034 0.00585,-0.0068 0.00365,-0.00387 0.1191849,0.095502 -0.00365,0.00387 -0.00512,0.0068 z m 0.031574,-0.038978 0.00219,-0.00197 h 3.874e-4 l 0.00365,-0.00387 0.1165536,0.098426 -0.00365,0.00387 -0.00146,0.00197 -0.00365,0.0049 v 0 H 7.858363 L 7.741517,1.5017365 c 0.00585,-0.0068 0.00439,-0.00585 0.00365,-0.00585 z m 0.025142,-0.028263 0.1142148,0.1003742 0.00512,-0.00585 v 0 l 0.00439,-0.00387 -0.1142149,-0.1023234 -0.00365,0.0049 h -3.873e-4 v 9.501e-4 z m 0.029235,-0.033131 0.111971,0.1032984 0.00439,-0.00387 0.00292,-0.00292 -0.111876,-0.1042719 -0.00292,0.00292 z m 0.3971098,-0.3303584 0.00365,-0.00197 v 0 l 0.00439,-0.00387 0.081084,0.1296101 -0.00512,0.00387 v 0 l -0.00365,0.00197 z m 0.1145072,-0.066269 0.00365,-0.00197 h 2.923e-4 l 0.00658,-0.00292 0.071115,0.1354564 -0.00585,0.00292 v 9.501e-4 l -0.00365,9.501e-4 z M 9.1767268,0.9004382 v 0.8487967 l -0.070384,0.00585 v 0 h -0.00219 l -0.00365,9.501e-4 -0.00219,9.502e-4 h -0.00365 -0.00439 -0.00146 l -0.00365,9.501e-4 H 9.08476 L 9.07964,1.7588855 H 9.07745 9.07014 9.0694092 c -0.00731,0.00197 -0.014106,0.00197 -0.021342,0.00387 h -0.00365 c -0.014106,0.00197 -0.028577,0.0049 -0.042318,0.0078 -0.00512,9.501e-4 -0.011036,0.00197 -0.016372,0.00292 -0.00841,0.00197 -0.016372,0.00387 -0.024777,0.00585 h -0.00146 l -0.00365,0.00197 h -3.947e-4 l -0.00957,0.00197 h -0.00292 l -7.309e-4,9.501e-4 -0.00292,9.502e-4 -0.00797,0.00197 h -0.00219 l -0.00512,0.00197 h -2.923e-4 l -0.00365,9.502e-4 v 0 l -0.010232,0.00292 -0.00365,9.502e-4 -0.00585,0.00197 -0.00146,9.502e-4 -0.00439,9.501e-4 -0.00146,9.502e-4 -0.00512,9.501e-4 -0.00292,9.502e-4 -0.00585,0.00197 -0.00365,9.501e-4 -0.00365,9.501e-4 -0.00146,9.502e-4 -0.00365,0.00197 -0.050942,-0.144227 0.00146,-9.502e-4 0.00292,-9.501e-4 0.00994,-0.00387 c 0.00731,-0.00197 0.013667,-0.00387 0.021269,-0.0068 h 0.00219 c 0.00585,-0.00197 0.011036,-0.00387 0.016737,-0.00585 l 0.00585,-9.501e-4 c 0.015568,-0.0049 0.032378,-0.00877 0.048311,-0.013646 l 0.00658,-9.501e-4 0.00365,-9.501e-4 0.00219,-9.502e-4 0.00439,-9.501e-4 h 0.00219 l 0.00943,-0.00197 c 0.00731,-0.00197 0.014545,-0.00292 0.021707,-0.0049 h 3.947e-4 l 0.00365,-9.502e-4 c 0.00585,-9.501e-4 0.012206,-0.00197 0.018345,-0.00292 l 0.00292,-9.501e-4 c 0.00439,0 0.00841,-9.502e-4 0.012937,-0.00197 h 0.00219 l 0.00877,-0.00197 V 0.90036511 Z m -0.3097987,0.9072672 -0.052258,-0.1442271 -0.010598,0.00387 -7.309e-4,9.502e-4 -0.011036,0.00387 0.052916,0.1393543 -0.054451,-0.1393543 -0.010232,0.0049 h -0.00146 l -0.00987,0.00387 0.057009,0.1422778 0.010744,-0.0049 v 0 l 0.00914,-0.00292 v 0 l 0.010598,-0.00387 v 0 z m -0.04188,0.01559 -0.058251,-0.1413035 -0.00987,0.00387 -7.308e-4,9.502e-4 -0.00994,0.00387 0.060151,0.1403292 0.010305,-0.00387 v 0 z m -0.019807,0.00877 -0.00957,0.00387 v 0 l -0.00914,0.0049 -0.063148,-0.1393542 0.00877,-0.00387 7.308e-4,-9.501e-4 0.00957,-0.00387 z m -0.020172,0.00877 -0.00841,0.00387 v 0 l -0.00957,0.0049 -0.066583,-0.1374057 0.0087,-0.0049 h 0.00146 l 0.00957,-0.00387 z m -0.019807,0.00974 -0.00914,0.0049 -0.00914,0.0049 -0.070092,-0.1364315 0.00914,-0.0049 h 7.308e-4 l 0.00914,-0.0049 z m -0.019076,0.00974 -0.00906,0.0049 v 0 l -0.00957,0.0049 v 0 l -0.00957,0.00585 v 0 l -0.00943,0.0049 -0.075814,-0.1325329 0.00957,-0.0049 3.874e-4,-9.502e-4 0.010232,-0.0049 0.073088,0.1305844 -0.071115,-0.1315587 0.00943,-0.00585 h 3.947e-4 l 0.00957,-0.0049 z m -0.038006,0.021437 -0.078058,-0.1315587 -0.00914,0.0049 -0.00146,9.502e-4 -0.0087,0.00585 0.060151,0.0994 -0.061321,-0.098425 h -0.00146 l -0.00512,0.00292 -0.00146,9.502e-4 -0.00146,9.501e-4 -0.00146,9.502e-4 -0.00146,9.501e-4 -0.00146,0.00197 h -0.00146 l -0.00292,0.00197 -0.00292,0.00197 -0.00146,9.501e-4 -7.309e-4,9.502e-4 -0.00512,0.00292 -0.00219,9.501e-4 -0.00292,0.00197 -0.00219,0.00197 -0.00146,9.501e-4 -0.00219,9.502e-4 -0.00365,0.00197 -7.308e-4,9.501e-4 -0.00219,0.00197 -0.00365,0.00292 -0.00292,0.00197 -0.00512,0.00292 -0.00365,0.00292 -0.00365,0.00197 -0.00146,0.00197 -0.00292,0.00197 -0.00365,0.00292 -0.00365,0.00197 -0.00292,0.00197 -7.309e-4,9.501e-4 -0.00219,9.502e-4 -3.874e-4,9.501e-4 -0.00439,0.00292 -0.00146,9.502e-4 -0.00365,0.00292 c -0.00365,0.00292 -0.0076,0.00585 -0.011767,0.00974 h -6.797e-4 l -0.00365,0.00292 h -2.923e-4 l -0.00219,0.00197 -7.309e-4,9.502e-4 -0.00365,0.00292 -0.00146,9.502e-4 -0.00731,0.00585 -7.309e-4,9.502e-4 -0.00585,0.0049 -7.309e-4,9.501e-4 c -0.00439,0.00387 -0.00943,0.0078 -0.014033,0.011694 v 0 c -0.00365,0.00387 -0.00731,0.00585 -0.010744,0.00974 l -0.00146,9.501e-4 -0.00365,0.00292 -0.00146,0.00197 -0.00877,0.00877 -0.00219,9.501e-4 -0.00292,0.00292 0.1047572,0.1110939 7.309e-4,-9.501e-4 0.00146,-9.502e-4 0.00146,-9.501e-4 0.00146,-0.00197 0.00219,-9.501e-4 0.00146,-0.00197 0.00219,-0.00197 0.00146,-9.501e-4 0.00146,-9.502e-4 0.00292,-0.00292 0.00219,-0.00197 0.00365,-0.00292 0.00219,-0.00197 0.00146,-0.00197 0.00585,-0.00585 0.00219,-9.502e-4 0.00365,-0.00387 0.00146,-9.502e-4 7.309e-4,-9.501e-4 0.00146,-9.502e-4 0.00292,-0.00197 0.00146,-0.00197 3.947e-4,-9.502e-4 0.00365,-0.00197 0.00146,-0.00197 0.00365,-0.00197 0.00146,-0.00197 0.00146,-9.501e-4 0.00292,-0.00197 0.00292,-0.00197 6.797e-4,-9.502e-4 0.00797,-0.00585 0.00512,-0.0049 7.308e-4,-9.502e-4 0.00292,-0.00197 0.00797,-0.00585 h 0.00146 l 7.309e-4,-0.00197 0.00146,-9.501e-4 c 0.00512,-0.00387 0.00957,-0.0068 0.01491,-0.00974 l 6.797e-4,-0.00197 0.00512,-0.00292 0.00219,-9.501e-4 0.00146,-9.502e-4 0.00146,-9.501e-4 0.00146,-0.00197 0.00292,-9.501e-4 0.00292,-0.00197 0.00146,-9.502e-4 0.00219,-0.00197 h 0.00146 l 0.00219,-0.00197 0.00146,-9.502e-4 0.00146,-9.501e-4 h 7.309e-4 l 0.00292,-0.00197 7.309e-4,-9.501e-4 0.00365,-0.00197 0.00512,-0.00292 7.309e-4,-9.502e-4 v 0 l 0.00877,-0.00585 v 0 z m -0.1728748,0.128641 c -0.00512,0.0049 -0.00877,0.00877 -0.012206,0.012666 L 8.4158062,1.9139141 c 0.00585,-0.0049 0.011036,-0.010722 0.015202,-0.014618 z m -0.015202,0.014618 -0.00585,0.0068 -0.00658,0.0068 -0.1088502,-0.1081704 0.00658,-0.00585 h 3.874e-4 l 0.00585,-0.0068 z m -0.015568,0.016569 -0.00512,0.00585 v 0 l -0.00585,0.00585 -0.111189,-0.1042727 0.00512,-0.00585 6.798e-4,-9.502e-4 0.00585,-0.00585 z m -0.01491,0.016569 -0.00585,0.00585 v 0 l -0.00512,0.0049 -0.1130454,-0.1013484 0.00512,-0.00585 3.947e-4,-9.502e-4 0.00512,-0.00585 z m -0.014837,0.016569 -0.00512,0.00585 H 8.469376 l -0.00439,0.00585 -0.116159,-0.0994 v 0 l 7.309e-4,-9.502e-4 7.309e-4,-9.501e-4 0.00365,-0.0049 h 3.874e-4 l 0.00512,-0.0068 v 9.501e-4 l 6.871e-4,-9.501e-4 z m -0.014837,0.016569 -0.00439,0.0049 v 0 l -0.00439,0.0068 -0.1184027,-0.097451 0.00439,-0.0068 h 3.874e-4 l 0.00512,-0.0049 z m -0.014106,0.017541 -0.1198645,-0.095502 -0.00439,0.00585 h -3.874e-4 l -0.00439,0.00585 0.1202519,0.094528 v -9.501e-4 h 7.309e-4 l 0.00292,-0.0049 v 0 z M 8.3054212,2.0396359 v 0 9.502e-4 l -0.00439,0.0049 h 3.873e-4 l -3.873e-4,9.501e-4 0.1225907,0.090629 0.00439,-0.00585 v 0 l 0.00365,-0.0049 -0.1218087,-0.092579 z m 0.1134328,0.1042727 -0.1237675,-0.08868 -0.00439,0.0049 v 9.501e-4 l -0.00439,0.00585 0.1244472,0.08868 0.00439,-0.0068 v 0 z m -0.1381878,-0.068213 -0.00439,0.0049 v 0 l -0.00439,0.0078 0.1263914,0.084782 v 0 0 l 0.00365,-0.0049 v 0 -9.502e-4 l 0.00365,-0.0049 -0.1252219,-0.087706 z m -7.309e-4,0 v 0 h 7.309e-4 v 0 z m -0.00365,0.0049 v 0 l 0.00365,-0.0049 z m 0.1176208,0.0994 -0.1282405,-0.083807 -0.00365,0.0068 h -3.947e-4 l -0.00439,0.0068 0.1290297,0.082834 0.00365,-0.00585 v 0 z m -0.011767,0.019493 h -7.309e-4 l -3.874e-4,9.502e-4 c -0.00146,0.00197 -0.00292,0.00387 -0.00585,0.00974 l -0.130974,-0.078935 c 7.309e-4,-0.00197 0.00439,-0.0068 0.00731,-0.011694 v 0 l 3.873e-4,-9.501e-4 z m -0.012937,0.020465 -0.00146,0.00197 v 0 l -0.00512,0.00877 -0.1309739,-0.077961 0.00439,-0.0078 v 0 l 0.00146,-0.00292 z m -0.010232,0.017541 -0.00146,0.00292 -0.00439,0.00877 -0.1351619,-0.072116 h 7.309e-4 v 0 l 3.873e-4,-9.502e-4 c 0.00292,-0.00585 0.00439,-0.0078 0.00512,-0.00974 v 0 0 -9.502e-4 0 h 3.947e-4 v 0 0 0 l 7.309e-4,-0.00292 z m -0.00797,0.014618 h -3.873e-4 l -3.874e-4,9.501e-4 v 0 0 l -3.947e-4,9.502e-4 v 0 9.501e-4 h -7.309e-4 l -3.873e-4,9.502e-4 v 0 l -3.874e-4,9.501e-4 -7.309e-4,0.00197 h -2.923e-4 v 9.501e-4 h -3.874e-4 l -3.947e-4,9.502e-4 v 0 0 l -0.00146,0.00197 v 9.501e-4 l -3.874e-4,9.501e-4 v 0 0 l -0.00146,0.00197 -2.923e-4,9.502e-4 -7.309e-4,9.501e-4 -7.309e-4,9.502e-4 v 9.501e-4 H 8.341071 l -3.947e-4,0.00197 h -3.874e-4 l -7.309e-4,9.501e-4 -6.87e-4,0.00292 -0.00146,0.00197 v 9.502e-4 0 l -3.873e-4,9.501e-4 h -3.874e-4 v 0 l -7.309e-4,9.502e-4 v 0 l -3.947e-4,0.00197 -2.923e-4,9.501e-4 -0.00146,9.502e-4 v 9.501e-4 l -7.309e-4,0.00197 v 0 l -3.873e-4,9.501e-4 v 0 l -0.00146,0.00197 v 0 l -7.309e-4,0.00197 v 9.501e-4 l -7.308e-4,9.502e-4 v 9.501e-4 l -3.874e-4,9.502e-4 -0.00146,0.00197 v 0 h -3.946e-4 v 9.502e-4 0 l -6.798e-4,9.501e-4 -0.1381877,-0.06529 v 0 0 l 3.947e-4,-9.501e-4 v 0 l 2.923e-4,-9.502e-4 3.874e-4,-9.501e-4 v 0 h 7.309e-4 l 7.308e-4,-0.00292 7.309e-4,-9.501e-4 v 0 l 3.874e-4,-0.00197 v 0 h 3.947e-4 l 2.923e-4,-9.501e-4 v 0 l 0.00146,-0.00292 h 3.874e-4 l 3.873e-4,-9.501e-4 v 0 l 7.309e-4,-9.501e-4 3.947e-4,-9.502e-4 v -9.501e-4 l 7.309e-4,-9.502e-4 V 2.216835 l 2.923e-4,-9.502e-4 0.00146,-9.501e-4 3.873e-4,-9.502e-4 7.309e-4,-9.501e-4 3.874e-4,-0.00197 7.309e-4,-9.501e-4 v 0 l 7.309e-4,-0.00197 v 0 h 3.946e-4 v -9.502e-4 l 3.874e-4,-9.501e-4 7.309e-4,-9.502e-4 3.873e-4,-9.501e-4 v 0 l 3.874e-4,-0.00197 h 3.947e-4 l 3.874e-4,-9.501e-4 v 0 l 6.797e-4,-9.502e-4 v 0 l 3.947e-4,-9.501e-4 v 0 0 l 0.00146,-9.502e-4 7.309e-4,-0.00197 3.874e-4,-9.502e-4 7.308e-4,-0.00292 h 7.309e-4 l 0.00146,-0.00387 3.947e-4,-9.501e-4 0.00146,-9.502e-4 2.924e-4,-9.501e-4 v -9.502e-4 l 0.00219,-0.00387 v 0 z m -0.027481,0.056519 -0.1396422,-0.063346 h -3.947e-4 v 0 l -0.00146,0.00292 v 9.501e-4 0 0 l -7.309e-4,9.502e-4 -0.00146,0.0049 -0.00146,0.00292 0.1401391,0.060422 7.309e-4,-0.00197 z m -0.00906,0.019493 -0.140914,-0.05847 h -3.873e-4 v 0 l -0.00365,0.00877 h -3.874e-4 v 9.502e-4 0 l -7.309e-4,9.501e-4 v 0 l -6.797e-4,0.00197 0.1412063,0.056519 h 7.309e-4 v 0 l 7.308e-4,-9.501e-4 v 0 l 2.924e-4,-0.00197 v 0 l 0.00146,-0.00197 z m -0.00914,0.020465 -0.1412062,-0.055547 c -0.00658,0.01559 -0.00365,0.0078 -0.00439,0.011694 l -7.309e-4,9.502e-4 0.1427704,0.054575 7.308e-4,-0.00197 c 0.00365,-0.00974 -6.797e-4,0 0.00292,-0.00974 z m -0.0076,0.021437 -0.00292,0.0068 h 3.946e-4 l -3.946e-4,9.501e-4 v 0 l -0.00146,0.00292 -0.1435451,-0.050672 v 0 0 l 7.309e-4,-0.00387 v 0 0 0 l 0.00292,-0.0078 z m -0.00797,0.021437 v 9.502e-4 l -0.00219,0.0078 v 0 c 7.309e-4,-0.00292 0.00146,-0.00387 0,0 v 0 l -7.309e-4,0.00197 h -2.923e-4 l 7.309e-4,-0.00197 v 0 l -7.309e-4,9.501e-4 -2.924e-4,9.502e-4 v 0 0 0 0 0 c -7.308e-4,0.00292 -0.00219,0.00585 0,0 l -0.1451018,-0.047748 0.00146,-0.00197 v 0 l -0.00146,0.00197 v 0 c -0.00512,0.01559 0.00219,-0.0068 0.00146,-0.00197 v 0 l 0.00292,-0.00974 z M 8.1424054,2.3524802 Z m 0.1339998,0.082834 -0.1469583,-0.041901 -0.00146,0.00585 v 0 l -0.00219,0.00585 0.1469583,0.040929 0.00146,-0.0049 h 3.874e-4 z m -0.011767,0.043853 -0.00146,0.00585 v 0 l -0.00146,0.0049 -0.1489025,-0.033131 0.00146,-0.0049 v -0.00197 l 0.00146,-0.0049 z m -0.00957,0.045804 -0.00146,0.00585 v 0 l -6.87e-4,0.0049 -0.1503643,-0.026312 0.00146,-0.00585 v -9.501e-4 l 0.00146,-0.00585 z m -0.00365,0.022416 -0.1511462,-0.023388 v 0.00197 l -7.309e-4,0.00877 0.1503642,0.023388 0.00146,-0.00877 v 0 z m -0.00365,0.02436 v 0.00292 H 8.24736 l -7.309e-4,0.0068 -0.151044,-0.019493 6.797e-4,-0.0078 v 0 -0.00292 z m -0.00292,0.022416 -0.1519283,-0.01559 v 0.00197 l -0.00146,0.00877 0.1519283,0.01559 7.309e-4,-0.0068 v 0 z m -0.00219,0.02436 v 0.00387 l -7.309e-4,0.00585 -0.1522207,-0.012666 3.947e-4,-0.00585 v 0 l 3.874e-4,-0.00387 z m -0.00146,0.023388 -3.947e-4,0.00292 v 0 l -3.873e-4,0.0078 -0.1527031,-0.00877 7.309e-4,-0.0078 v 0 -0.00387 z m 2.0449028,0.056519 v 9.502e-4 c 0,0.00387 0,0.00387 0,0.00292 l -3.87e-4,0.021437 v 9.502e-4 0 0 0 0 9.501e-4 0 0 0 0 0 9.502e-4 0 0 l -0.152995,-0.00387 v -0.02436 z m -3.87e-4,0.030207 -0.152995,-0.0049 -3.95e-4,0.011694 v 0 l -3.87e-4,0.010722 0.152608,0.0078 v -0.013646 0 z m -0.0015,0.029235 -0.152315,-0.00877 -3.88e-4,0.00974 v 0 l -0.0015,0.010722 0.152315,0.00974 7.31e-4,-0.00974 v -9.501e-4 l 7.31e-4,-0.010722" />
    <path
       id="path1032"
       style="fill:#ffffff;fill-opacity:1;fill-rule:evenodd;stroke:none;stroke-width:0.0974506"
       d="m 9.1870834,0.89849625 c 0.9939036,0 1.8002116,0.80689305 1.8002116,1.79991745 0,0.057498 -0.0029,0.1130425 -0.0077,0.1695645 h -0.78341 c 0.0091,-0.055547 0.01411,-0.112069 0.01411,-0.1695645 0,-0.5642404 -0.4583135,-1.0232339 -1.0232336,-1.0232339 -0.028943,0 -0.05752,0.00197 -0.085659,0.00387 V 0.90042139 c 0.028139,-9.5015e-4 0.056716,-0.001973 0.085659,-0.001973" />
    <path
       id="path1034"
       style="fill:#ffffff;fill-opacity:1;fill-rule:nonzero;stroke:none;stroke-width:0.0974506"
       d="m 9.1870834,0.82248458 c 0.5180487,0 0.9874716,0.20951962 1.3266006,0.54962282 0.340299,0.3391289 0.550105,0.8088423 0.550105,1.3263063 0,0.027284 -3.87e-4,0.056519 -0.0022,0.08868 -0.0015,0.028263 -0.0037,0.057498 -0.0058,0.087706 l -0.0073,0.069193 h -0.06892 -0.783403 -0.08985 l 0.01454,-0.088681 c 0.0044,-0.02436 0.0066,-0.050672 0.0091,-0.07796 0.0029,-0.02534 0.0037,-0.051651 0.0037,-0.078935 0,-0.2611688 -0.105832,-0.4969994 -0.2771505,-0.6685131 -0.171706,-0.1715137 -0.4080219,-0.2777349 -0.669195,-0.2777349 -0.017541,0 -0.030916,0 -0.040345,9.501e-4 -0.00957,0 -0.022877,9.502e-4 -0.039541,0.00197 l -0.082633,0.0078 V 1.6790819 0.90044989 0.82833383 l 0.073088,-0.003874 c 0.012937,0 0.027774,-9.5015e-4 0.044145,-0.001973 0.022804,0 0.038079,0 0.045315,0 z M 10.405609,1.4793036 C 10.093866,1.1684349 9.6629383,0.97548217 9.1870834,0.97548217 h -0.00957 V 1.5991681 h 0.00957 c 0.3037543,0 0.5785657,0.1237623 0.7772704,0.3225621 0.1990922,0.1987997 0.3224652,0.4736111 0.3224652,0.7766835 0,0.031187 -0.0015,0.061394 -0.0037,0.091603 v 9.502e-4 h 0.62505 l 0.0015,-0.010722 c 7.31e-4,-0.02436 7.31e-4,-0.050672 7.31e-4,-0.081859 0,-0.4755604 -0.192566,-0.9062929 -0.504703,-1.2191101" />
    <path
       id="path1036"
       style="fill:#ffffff;fill-opacity:1;fill-rule:evenodd;stroke:none;stroke-width:0.0974506"
       d="m 9.1870834,4.4993054 c -0.994291,0 -1.8005994,-0.8059188 -1.8005994,-1.8008917 0,-0.9930244 0.8063084,-1.79991745 1.8005994,-1.79991745 V 1.6751798 c -0.5653148,0 -1.0236213,0.4589935 -1.0236213,1.0232339 0,0.5661889 0.4583065,1.0242082 1.0236213,1.0242082 v 0.7766835" />
    <path
       id="path1038"
       style="fill:#ffffff;fill-opacity:1;fill-rule:nonzero;stroke:none;stroke-width:0.0974506"
       d="m 9.1870834,4.5762913 c -0.5181438,0 -0.9878593,-0.2104938 -1.3273756,-0.5496228 C 7.5200891,3.6865653 7.3099827,3.216852 7.3099827,2.6984137 c 0,-0.517464 0.2101064,-0.9871774 0.5497251,-1.3263063 C 8.1992241,1.0320042 8.6689396,0.82248458 9.1870834,0.82248458 H 9.26319 v 0.0760117 0.77668352 0.076986 H 9.187083 c -0.2619479,0 -0.4982638,0.1062212 -0.6699771,0.2777349 -0.1713186,0.1715137 -0.2767555,0.4073443 -0.2767555,0.6685131 0,0.2621423 0.1054369,0.4989478 0.2767555,0.6704616 C 8.6888192,3.5394141 8.9251351,3.645636 9.187083,3.645636 H 9.26319 v 0.076986 0.7766835 0.076986 z M 7.9681706,3.9184981 C 8.2628619,4.2127999 8.664452,4.401854 9.110582,4.4213444 V 3.7966843 C 8.8372324,3.7771917 8.5913639,3.6592786 8.4090382,3.4770457 8.2102385,3.2772717 8.0869607,3.0034346 8.0869607,2.6984137 c 0,-0.3030724 0.1232778,-0.5778838 0.3220775,-0.7766835 C 8.5913639,1.7394973 8.8372324,1.620607 9.110582,1.6020916 V 0.97645717 C 8.664452,0.99594978 8.2628619,1.1850017 7.9681706,1.4793036 7.6560331,1.7921208 7.4629854,2.2228533 7.4629854,2.6984137 c 0,0.4765346 0.1930477,0.9072671 0.5051852,1.2200844" />
    <path
       id="path1040"
       style="fill:#ffffff;fill-opacity:1;fill-rule:evenodd;stroke:none;stroke-width:0.0974506"
       d="m 4.2913476,1.9607103 v 0 c -0.107001,0 -0.1942171,0.087706 -0.1942171,0.1939276 v 3.2129538 c 0,0.1062219 0.087216,0.1939277 0.1942171,0.1939277 v 0 c 0.1065113,0 0.1941221,-0.087706 0.1941221,-0.1939277 V 2.1546379 c 0,-0.1062219 -0.087611,-0.1939276 -0.1941221,-0.1939276" />
    <path
       id="path1042"
       style="fill:#ffffff;fill-opacity:1;fill-rule:nonzero;stroke:none;stroke-width:0.0974506"
       d="m 4.2913476,2.0376969 v 0 c -0.033109,0 -0.062052,0.013646 -0.083416,0.03411 -0.021342,0.021437 -0.034205,0.050672 -0.034205,0.082834 v 3.2129537 c 0,0.032159 0.012863,0.061394 0.034205,0.082834 0.021342,0.021437 0.050285,0.035082 0.083416,0.035082 v 0 c 0.032378,0 0.061613,-0.013645 0.082538,-0.035082 0.021707,-0.021437 0.034717,-0.050672 0.034717,-0.082834 V 2.1546409 c 0,-0.032159 -0.012937,-0.061394 -0.034717,-0.082834 -0.021269,-0.020465 -0.050211,-0.03411 -0.082538,-0.03411 z m 0,-0.1529983 v 0 c 0.07455,0 0.1419883,0.030207 0.1911035,0.078935 0.049042,0.048728 0.07952,0.116941 0.07952,0.1910041 v 3.2129538 c 0,0.074063 -0.030478,0.1422785 -0.07952,0.1900292 v 9.501e-4 c -0.049481,0.0497 -0.116941,0.078935 -0.1911035,0.078935 v 0 c -0.074258,0 -0.1423757,-0.029235 -0.1914909,-0.078935 L 4.0994693,5.5576209 C 4.0511581,5.5098724 4.0198471,5.4416548 4.0198471,5.3675917 V 2.1546379 c 0,-0.074063 0.031282,-0.1413042 0.079622,-0.1900291 l 3.874e-4,-9.502e-4 C 4.1489719,1.9149308 4.21709,1.8847234 4.2913476,1.8847234" />
    <path
       id="path1044"
       style="fill:#ffffff;fill-opacity:1;fill-rule:evenodd;stroke:none;stroke-width:0.0974506"
       d="m 2.8661289,2.8679782 v 0 c -0.1066136,0 -0.1942171,0.086731 -0.1942171,0.1939269 v 2.3573358 c 0,0.1071962 0.087603,0.193927 0.1942171,0.193927 v 0 c 0.106906,0 0.1945095,-0.086731 0.1945095,-0.193927 V 3.0619051 c 0,-0.1071962 -0.087604,-0.1939269 -0.1945095,-0.1939269" />
    <path
       id="path1046"
       style="fill:#ffffff;fill-opacity:1;fill-rule:nonzero;stroke:none;stroke-width:0.0974506"
       d="m 2.8661289,2.9439898 v 0 c -0.032378,0 -0.061686,0.013646 -0.082641,0.035082 -0.021707,0.020465 -0.035009,0.050672 -0.035009,0.082833 v 2.3573358 c 0,0.032159 0.013229,0.062366 0.035009,0.082833 0.021342,0.021437 0.050285,0.035082 0.082641,0.035082 v 0 c 0.032378,0 0.061613,-0.013646 0.083321,-0.035082 0.021342,-0.020465 0.034717,-0.050672 0.034717,-0.082833 V 3.0619051 c 0,-0.032159 -0.013375,-0.062366 -0.034717,-0.082833 -0.021707,-0.021437 -0.050942,-0.035082 -0.083321,-0.035082 z m 0,-0.1529983 v 0 c 0.07455,0 0.1423757,0.031187 0.1911036,0.078935 l 6.797e-4,9.501e-4 c 0.048311,0.048728 0.079615,0.1159661 0.079615,0.1910035 v 2.3573358 c 0,0.075037 -0.031282,0.1422784 -0.079615,0.1910034 -0.049408,0.048728 -0.1172334,0.07991 -0.1917833,0.07991 v 0 c -0.074258,0 -0.1423757,-0.031187 -0.1914909,-0.07991 C 2.625888,5.5614913 2.59541,5.4942533 2.59541,5.4192159 V 3.0618803 c 0,-0.075037 0.030478,-0.1422785 0.079228,-0.1910035 l 7.309e-4,-9.501e-4 c 0.04875,-0.047748 0.1164513,-0.078935 0.1907089,-0.078935" />
    <path
       id="path1048"
       style="fill:#ffffff;fill-opacity:1;fill-rule:evenodd;stroke:none;stroke-width:0.0974506"
       d="m 1.4412976,3.8649003 v 0 c -0.107001,0 -0.1942171,0.086731 -0.1942171,0.1949013 v 1.4110885 c 0,0.1062212 0.087216,0.1939269 0.1942171,0.1939269 v 0 c 0.1072934,0 0.1949042,-0.087706 0.1949042,-0.1939269 V 4.0598016 c 0,-0.1081705 -0.087611,-0.1949013 -0.1949042,-0.1949013" />
    <path
       id="path1050"
       style="fill:#ffffff;fill-opacity:1;fill-rule:nonzero;stroke:none;stroke-width:0.0974506"
       d="m 1.4412976,3.9418863 v 0 c -0.032451,0 -0.061686,0.012666 -0.083028,0.03411 -0.020976,0.021437 -0.034278,0.050672 -0.034278,0.083807 v 1.4110886 c 0,0.032159 0.013375,0.062366 0.034278,0.083807 0.021342,0.021437 0.050577,0.03411 0.083028,0.03411 v 0 c 0.032378,0 0.061979,-0.012666 0.083321,-0.035082 0.020976,-0.020465 0.034278,-0.050672 0.034278,-0.082833 v -1.411088 c 0,-0.033131 -0.013375,-0.062366 -0.034278,-0.083807 -0.021342,-0.020465 -0.050942,-0.03411 -0.083321,-0.03411 z m 0,-0.1529976 v 0 c 0.074945,0 0.1422807,0.029235 0.1913959,0.078935 0.049481,0.048728 0.079615,0.116941 0.079615,0.1919777 v 1.4110885 c 0,0.075037 -0.030112,0.1422778 -0.079615,0.1910034 -0.049115,0.0497 -0.1164513,0.07991 -0.1913959,0.07991 v 0 c -0.073863,0 -0.1416886,-0.030207 -0.1908039,-0.07991 H 1.2502014 C 1.2010862,5.6131657 1.1705792,5.5449525 1.1705792,5.4708901 V 4.0598016 c 0,-0.075037 0.030478,-0.1422778 0.079622,-0.1919777 h 2.923e-4 c 0.049115,-0.0497 0.116941,-0.078935 0.1908039,-0.078935" />
  </g>
</svg>
