<?xml version="1.0" encoding="UTF-8" standalone="no"?>
<!-- Created with Inkscape (http://www.inkscape.org/) -->

<svg
   width="210mm"
   height="297mm"
   viewBox="0 0 210 297"
   version="1.1"
   id="svg84851"
   inkscape:version="1.1.1 (3bf5ae0d25, 2021-09-20)"
   sodipodi:docname="computerr.svg"
   xmlns:inkscape="http://www.inkscape.org/namespaces/inkscape"
   xmlns:sodipodi="http://sodipodi.sourceforge.net/DTD/sodipodi-0.dtd"
   xmlns="http://www.w3.org/2000/svg"
   xmlns:svg="http://www.w3.org/2000/svg">
  <sodipodi:namedview
     id="namedview84853"
     pagecolor="#ffffff"
     bordercolor="#666666"
     borderopacity="1.0"
     inkscape:pageshadow="2"
     inkscape:pageopacity="0.0"
     inkscape:pagecheckerboard="0"
     inkscape:document-units="mm"
     showgrid="false"
     inkscape:zoom="2.9362514"
     inkscape:cx="2.8948475"
     inkscape:cy="-23.15878"
     inkscape:window-width="958"
     inkscape:window-height="1000"
     inkscape:window-x="0"
     inkscape:window-y="0"
     inkscape:window-maximized="0"
     inkscape:current-layer="layer1" />
  <defs
     id="defs84848" />
  <g
     inkscape:label="Layer 1"
     inkscape:groupmode="layer"
     id="layer1">
    <g
       id="g80144"
       transform="matrix(0.73088137,0,0,0.73088137,-93.721569,-52.125739)">
      <path
         id="path1008"
         style="fill:#c4c4c4;fill-opacity:1;fill-rule:evenodd;stroke:none;stroke-width:0.133333"
         d="m 128.33569,79.66968 h 16.0916 v 2.02 c 0,0.298667 -0.2448,0.544 -0.54426,0.544 h -15.00307 c -0.29947,0 -0.54427,-0.245333 -0.54427,-0.544 v -2.02" />
      <path
         id="path1010"
         style="fill:#013668;fill-opacity:1;fill-rule:nonzero;stroke:none;stroke-width:0.133333"
         d="m 128.33569,79.564347 h 16.19627 v 2.125333 c 0,0.178667 -0.0729,0.341333 -0.19107,0.458667 -0.11773,0.117333 -0.27973,0.190666 -0.45786,0.190666 h -15.00307 c -0.17867,0 -0.34067,-0.07333 -0.45787,-0.190666 -0.11826,-0.117334 -0.1912,-0.28 -0.1912,-0.458667 v -2.02 -0.105333 z m 15.9864,0.209333 h -15.8812 v 1.916 c 0,0.121333 0.0495,0.230667 0.12867,0.309333 0.0796,0.08 0.18947,0.129334 0.3104,0.129334 h 15.00307 c 0.1208,0 0.2308,-0.04933 0.3104,-0.129334 0.0792,-0.07867 0.12866,-0.188 0.12866,-0.309333 v -1.916" />
      <path
         id="path1012"
         style="fill:#8b8b8b;fill-opacity:1;fill-rule:evenodd;stroke:none;stroke-width:0.133333"
         d="m 134.39663,82.23368 h 3.96973 v 1.273333 h -3.96973 V 82.23368" />
      <path
         id="path1014"
         style="fill:#013668;fill-opacity:1;fill-rule:nonzero;stroke:none;stroke-width:0.133333"
         d="m 134.39663,82.128347 h 4.07493 v 1.482666 h -4.18013 v -0.104 -1.273333 -0.105333 z m 3.86506,0.210666 h -3.7604 v 1.062667 h 3.7604 v -1.062667" />
      <path
         id="path1016"
         style="fill:#5d5d5d;fill-opacity:1;fill-rule:evenodd;stroke:none;stroke-width:0.133333"
         d="m 132.97836,83.719013 h 6.80573 V 83.29368 h -6.80573 v 0.425333" />
      <path
         id="path1018"
         style="fill:#013668;fill-opacity:1;fill-rule:nonzero;stroke:none;stroke-width:0.133333"
         d="m 132.97836,83.188347 h 6.9104 v 0.636 h -7.01453 V 83.719013 83.29368 83.188347 Z m 6.70053,0.210666 h -6.5948 v 0.216 h 6.5948 v -0.216" />
      <path
         id="path1020"
         style="fill:#5d5d5d;fill-opacity:1;fill-rule:evenodd;stroke:none;stroke-width:0.133333"
         d="m 136.38143,80.384347 c 0.31306,0 0.5672,0.254666 0.5672,0.568 0,0.312 -0.25414,0.566666 -0.5672,0.566666 -0.31294,0 -0.5672,-0.254666 -0.5672,-0.566666 0,-0.313334 0.25426,-0.568 0.5672,-0.568" />
      <path
         id="path1022"
         style="fill:#013668;fill-opacity:1;fill-rule:nonzero;stroke:none;stroke-width:0.133333"
         d="m 136.38143,80.280347 c 0.18546,0 0.35373,0.07467 0.4756,0.196 0.12133,0.121333 0.19626,0.289333 0.19626,0.476 0,0.184 -0.0749,0.353333 -0.19626,0.474666 -0.12187,0.121334 -0.29014,0.196 -0.4756,0.196 -0.18534,0 -0.3536,-0.07467 -0.47494,-0.196 -0.12186,-0.121333 -0.19693,-0.290666 -0.19693,-0.474666 0,-0.186667 0.0751,-0.354667 0.19693,-0.476 0.12134,-0.121334 0.2896,-0.196 0.47494,-0.196 z m 0.32666,0.345333 c -0.0833,-0.08533 -0.19906,-0.137333 -0.32666,-0.137333 -0.1276,0 -0.2432,0.052 -0.32654,0.137333 -0.0833,0.08267 -0.13586,0.198667 -0.13586,0.326667 0,0.126666 0.0525,0.242666 0.13586,0.325333 0.0833,0.084 0.19894,0.136 0.32654,0.136 0.1276,0 0.24333,-0.052 0.32666,-0.136 0.0833,-0.08267 0.13587,-0.198667 0.13587,-0.325333 0,-0.128 -0.0525,-0.244 -0.13587,-0.326667" />
      <path
         id="path1024"
         style="fill:#72c8ee;fill-opacity:1;fill-rule:evenodd;stroke:none;stroke-width:0.133333"
         d="m 128.87996,71.423014 h 15.00307 c 0.29946,0 0.54426,0.245333 0.54426,0.545333 v 7.701333 h -16.0916 v -7.701333 c 0,-0.3 0.2448,-0.545333 0.54427,-0.545333" />
      <path
         id="path1026"
         style="fill:#013668;fill-opacity:1;fill-rule:nonzero;stroke:none;stroke-width:0.133333"
         d="m 128.87996,71.319014 h 15.00307 c 0.17813,0 0.34013,0.07333 0.45786,0.190666 0.11814,0.117334 0.19107,0.28 0.19107,0.458667 v 7.701333 0.104 h -0.10467 -16.0916 -0.1048 v -0.104 -7.701333 c 0,-0.178667 0.0729,-0.341333 0.1912,-0.458667 0.1172,-0.117333 0.2792,-0.190666 0.45787,-0.190666 z m 15.00307,0.209333 h -15.00307 c -0.12093,0 -0.2308,0.04933 -0.3104,0.129333 -0.0792,0.08 -0.12867,0.189334 -0.12867,0.310667 v 7.596 h 15.8812 v -7.596 c 0,-0.121333 -0.0495,-0.230667 -0.12866,-0.310667 -0.0796,-0.08 -0.1896,-0.129333 -0.3104,-0.129333" />
      <path
         id="path1028"
         style="fill:#faaa46;fill-opacity:1;fill-rule:evenodd;stroke:none;stroke-width:0.133333"
         d="m 143.25703,75.188347 c -5.4e-4,0.01067 -10e-4,0.02 -0.002,0.02933 5.3e-4,-0.0093 0.001,-0.01867 0.002,-0.02933 z m -0.004,0.05467 c -0.11667,1.252 -1.16974,2.232 -2.45254,2.232 V 76.41235 c 0.6948,0 1.2708,-0.506667 1.38067,-1.169333 z m -4.91614,-0.232 c 0,-0.02 0,-0.04133 5.4e-4,-0.06133 -5.4e-4,0.02 -5.4e-4,0.04133 -5.4e-4,0.06133 z m 0.002,-0.07867 c 5.4e-4,-0.01467 0.001,-0.03067 0.002,-0.04533 -5.3e-4,0.01467 -0.001,0.03067 -0.002,0.04533 z m 0.003,-0.068 c 5.4e-4,-0.01333 0.001,-0.02667 0.003,-0.04 -0.002,0.01333 -0.002,0.02667 -0.003,0.04 z m 0.004,-0.06533 c 0.001,-0.012 0.002,-0.02267 0.004,-0.03467 -0.002,0.012 -0.002,0.02267 -0.004,0.03467 z m 0.007,-0.064 c 9.4e-4,-0.01067 0.002,-0.02133 0.003,-0.032 -5.3e-4,0.01067 -0.002,0.02133 -0.003,0.032 z m 0.008,-0.06133 c 0.002,-0.01067 0.003,-0.02133 0.004,-0.032 -9.3e-4,0.01067 -0.002,0.02133 -0.004,0.032 z m 0.008,-0.05867 c 0.002,-0.012 0.004,-0.02267 0.005,-0.03333 -0.002,0.01067 -0.003,0.02133 -0.005,0.03333 z m 0.0109,-0.06133 c 0.002,-0.01067 0.004,-0.02133 0.006,-0.03067 -0.002,0.0093 -0.004,0.02 -0.006,0.03067 z m 0.0119,-0.06 c 0.002,-0.01067 0.005,-0.02 0.006,-0.02933 -0.001,0.0093 -0.004,0.01867 -0.006,0.02933 z m 0.0131,-0.05867 c 0.003,-0.0093 0.005,-0.02 0.008,-0.03067 -0.003,0.01067 -0.005,0.02133 -0.008,0.03067 z m 0.0151,-0.05867 c 0.003,-0.01067 0.005,-0.02 0.008,-0.02933 -0.003,0.0093 -0.006,0.01867 -0.008,0.02933 z m 0.0163,-0.05733 c 0.002,-0.01067 0.006,-0.02 0.008,-0.02933 -0.003,0.0093 -0.006,0.01867 -0.008,0.02933 z m 0.0176,-0.05733 c 0.003,-0.0093 0.006,-0.01867 0.009,-0.02933 -0.003,0.01067 -0.006,0.02 -0.009,0.02933 z m 0.0188,-0.05733 c 0.003,-0.0093 0.007,-0.01867 0.01,-0.028 -0.003,0.0093 -0.007,0.01867 -0.01,0.028 z m 0.0203,-0.056 c 0.003,-0.0093 0.007,-0.01733 0.0104,-0.028 -0.003,0.01067 -0.007,0.01867 -0.0104,0.028 z m 0.0209,-0.05467 c 0.004,-0.0093 0.008,-0.01867 0.0113,-0.028 -0.003,0.0093 -0.008,0.01867 -0.0113,0.028 z m 0.0233,-0.05467 c 0.004,-0.0093 0.007,-0.01867 0.0115,-0.02667 -0.004,0.008 -0.008,0.01733 -0.0115,0.02667 z m 0.024,-0.05467 c 0.004,-0.008 0.008,-0.01733 0.0125,-0.02533 -0.005,0.008 -0.009,0.01733 -0.0125,0.02533 z m 0.0245,-0.05333 c 0.005,-0.008 0.009,-0.01733 0.014,-0.02533 -0.005,0.008 -0.009,0.01733 -0.014,0.02533 z m 0.0271,-0.052 c 0.005,-0.008 0.009,-0.01733 0.0135,-0.02533 -0.005,0.008 -0.009,0.01733 -0.0135,0.02533 z m 0.0276,-0.052 c 0.005,-0.008 0.009,-0.016 0.014,-0.024 -0.005,0.008 -0.009,0.016 -0.014,0.024 z m 0.0296,-0.05067 c 0.004,-0.0093 0.008,-0.016 0.0131,-0.024 -0.005,0.008 -0.009,0.01467 -0.0131,0.024 z m 0.0292,-0.05067 c 0.005,-0.008 0.0104,-0.016 0.0151,-0.024 -0.005,0.008 -0.01,0.016 -0.0151,0.024 z m 0.0317,-0.04933 c 0.005,-0.008 0.009,-0.01467 0.0147,-0.02267 -0.005,0.008 -0.01,0.01467 -0.0147,0.02267 z m 0.0329,-0.04933 c 0.005,-0.0067 0.01,-0.01467 0.014,-0.02133 -0.004,0.0067 -0.009,0.01467 -0.014,0.02133 z m 0.0328,-0.048 c 0.005,-0.0067 0.01,-0.01467 0.0151,-0.02 -0.005,0.0053 -0.0104,0.01333 -0.0151,0.02 z m 0.0348,-0.04667 c 0.004,-0.0067 0.009,-0.01333 0.0136,-0.01867 -0.005,0.0053 -0.009,0.012 -0.0136,0.01867 z m 0.0365,-0.04667 c 0.004,-0.0053 0.008,-0.01067 0.0115,-0.016 -0.004,0.0053 -0.008,0.01067 -0.0115,0.016 z m 0.0353,-0.04533 c 0.005,-0.0053 0.01,-0.01067 0.0136,-0.016 -0.004,0.0053 -0.009,0.01067 -0.0136,0.016 z m 0.0381,-0.04533 c 0.004,-0.004 0.008,-0.008 0.0129,-0.01333 -0.005,0.0053 -0.009,0.0093 -0.0129,0.01333 z m 0.0391,-0.04267 c 0.003,-0.004 0.006,-0.008 0.009,-0.01067 -0.003,0.0027 -0.006,0.0067 -0.009,0.01067 z m 0.52134,-0.433333 c 0.004,-0.0027 0.008,-0.0053 0.0124,-0.008 -0.005,0.0027 -0.008,0.0053 -0.0124,0.008 z m 0.15106,-0.08667 c 0.004,-0.0027 0.009,-0.0053 0.0129,-0.0067 -0.004,0.0013 -0.009,0.004 -0.0129,0.0067 z m 1.03067,-0.281333 v 1.065333 h -0.001 c -0.1224,0.01067 -0.24107,0.036 -0.35307,0.07733 0.112,-0.04133 0.23067,-0.06667 0.35307,-0.07733 z m -0.3552,1.142666 c -0.01,0.004 -0.0199,0.0067 -0.0297,0.01067 0.01,-0.004 0.0199,-0.0067 0.0297,-0.01067 z m -0.0303,0.01067 c -0.01,0.0053 -0.0192,0.008 -0.0285,0.012 0.009,-0.004 0.0187,-0.0067 0.0285,-0.012 z m -0.0312,0.01333 c -0.009,0.0027 -0.0177,0.008 -0.0265,0.01067 0.009,-0.0027 0.0172,-0.008 0.0265,-0.01067 z m -0.0307,0.01333 c -0.008,0.0027 -0.0167,0.0067 -0.0261,0.012 0.01,-0.0053 0.0177,-0.0093 0.0261,-0.012 z m -0.0292,0.012 c -0.008,0.004 -0.0167,0.0093 -0.0256,0.01333 0.009,-0.004 0.0172,-0.0093 0.0256,-0.01333 z m -0.0292,0.01467 c -0.009,0.004 -0.0177,0.0093 -0.026,0.01333 0.008,-0.004 0.0172,-0.0093 0.026,-0.01333 z m -0.0281,0.01467 c -0.008,0.004 -0.0177,0.0093 -0.0265,0.01467 0.009,-0.0053 0.0183,-0.01067 0.0265,-0.01467 z m -0.0281,0.01467 c -0.009,0.0053 -0.0177,0.01067 -0.026,0.01467 0.008,-0.004 0.0172,-0.0093 0.026,-0.01467 z m -0.0287,0.016 c -0.008,0.0053 -0.0167,0.01067 -0.026,0.016 0.009,-0.0053 0.0177,-0.01067 0.026,-0.016 z m -0.026,0.016 c -0.0807,0.04933 -0.1552,0.108 -0.22453,0.172 0.0693,-0.064 0.14386,-0.122667 0.22453,-0.172 z m -0.2276,0.176 c -0.007,0.004 -0.0125,0.012 -0.0193,0.01733 0.007,-0.0053 0.0125,-0.01333 0.0193,-0.01733 z m -0.0235,0.02133 c -0.006,0.0067 -0.012,0.012 -0.0177,0.01867 0.006,-0.0067 0.012,-0.012 0.0177,-0.01867 z m -0.0235,0.024 c -0.005,0.0053 -0.0104,0.01067 -0.0156,0.016 0.005,-0.0053 0.0104,-0.01067 0.0156,-0.016 z m -0.0224,0.024 c -0.005,0.0053 -0.0104,0.01067 -0.0145,0.016 0.004,-0.0053 0.009,-0.01067 0.0145,-0.016 z m -0.0219,0.024 c -0.005,0.0067 -0.01,0.01067 -0.0145,0.01733 0.005,-0.0067 0.01,-0.01067 0.0145,-0.01733 z m -0.0208,0.02533 c -0.005,0.0053 -0.009,0.01067 -0.014,0.016 0.005,-0.0053 0.009,-0.01067 0.014,-0.016 z m -0.0213,0.02533 c -0.004,0.0053 -0.008,0.01067 -0.012,0.01467 0.004,-0.004 0.008,-0.0093 0.012,-0.01467 z m -0.0203,0.02667 c -0.004,0.0053 -0.008,0.01067 -0.012,0.01467 0.004,-0.004 0.008,-0.0093 0.012,-0.01467 z m -0.0199,0.02533 c -0.003,0.0053 -0.008,0.01067 -0.0115,0.016 0.004,-0.0053 0.008,-0.01067 0.0115,-0.016 z m -0.0187,0.02667 c -0.003,0.0053 -0.007,0.01067 -0.0105,0.016 0.003,-0.0053 0.007,-0.01067 0.0105,-0.016 z m -0.0183,0.02667 c -0.003,0.0067 -0.007,0.012 -0.0104,0.01733 0.003,-0.0053 0.007,-0.01067 0.0104,-0.01733 z m -0.0177,0.028 c -0.003,0.0053 -0.006,0.01067 -0.0104,0.016 0.004,-0.0053 0.007,-0.01067 0.0104,-0.016 z m -0.0183,0.03067 c -0.002,0.004 -0.006,0.0093 -0.008,0.01333 0.002,-0.004 0.006,-0.0093 0.008,-0.01333 z m -0.0145,0.02667 c -0.004,0.0053 -0.007,0.01067 -0.01,0.01733 0.003,-0.0067 0.006,-0.012 0.01,-0.01733 z m -0.0125,0.02133 c -0.0125,0.024 -0.0244,0.04667 -0.0359,0.072 0.0115,-0.02533 0.0233,-0.048 0.0359,-0.072 z m -0.0411,0.08267 c -0.002,0.0053 -0.005,0.01067 -0.007,0.016 0.003,-0.0053 0.005,-0.01067 0.007,-0.016 z m -0.0136,0.03067 c -0.002,0.0053 -0.004,0.01067 -0.006,0.016 0.002,-0.0053 0.004,-0.01067 0.006,-0.016 z m -0.0125,0.03067 c -0.002,0.0053 -0.004,0.01067 -0.006,0.016 0.002,-0.0053 0.004,-0.01067 0.006,-0.016 z m -0.012,0.032 c -10e-4,0.0053 -0.004,0.0093 -0.005,0.01467 0.002,-0.0053 0.004,-0.0093 0.005,-0.01467 z m -0.0115,0.032 c -0.001,0.004 -0.002,0.0093 -0.005,0.01333 0.002,-0.004 0.003,-0.0093 0.005,-0.01333 z m -0.0203,0.06267 c -0.001,0.0053 -0.002,0.01067 -0.004,0.016 0.002,-0.0053 0.003,-0.01067 0.004,-0.016 z m -0.0167,0.06667 c -0.002,0.004 -0.002,0.01067 -0.004,0.016 0.002,-0.0053 0.002,-0.012 0.004,-0.016 z m -0.0145,0.06533 c -5.3e-4,0.0053 -0.002,0.01067 -0.003,0.016 10e-4,-0.0053 0.002,-0.01067 0.003,-0.016 z m -0.005,0.03467 c -0.001,0.0053 -0.002,0.0093 -0.003,0.01467 0.001,-0.0053 0.002,-0.0093 0.003,-0.01467 z m -0.005,0.03467 c -0.001,0.0053 -0.001,0.0093 -0.002,0.01467 5.3e-4,-0.0053 5.3e-4,-0.0093 0.002,-0.01467 z m -0.005,0.03467 c 0,0.0053 -9.3e-4,0.0093 -9.3e-4,0.01467 0,-0.0053 9.3e-4,-0.0093 9.3e-4,-0.01467 z m -0.003,0.03467 c -5.3e-4,0.0053 -5.3e-4,0.0093 -0.001,0.01467 5.3e-4,-0.0053 5.3e-4,-0.0093 0.001,-0.01467 z m -0.002,0.03467 c 0,0.0053 -5.3e-4,0.01067 -5.3e-4,0.01467 0,-0.004 5.3e-4,-0.0093 5.3e-4,-0.01467 z m 2.79787,0.084 c 0,0.012 0,0.024 -0.001,0.036 0.001,-0.012 0.001,-0.024 0.001,-0.036 z m -0.001,0.03733 c 0,0.01067 -5.4e-4,0.02267 -5.4e-4,0.03333 0,-0.01067 5.4e-4,-0.02267 5.4e-4,-0.03333 z m -0.001,0.03867 c -0.001,0.0093 -0.001,0.01867 -0.002,0.028 5.3e-4,-0.0093 9.3e-4,-0.01867 0.002,-0.028 z m -0.002,0.03867 c -5.4e-4,0.0067 -0.002,0.01467 -0.002,0.02133 5.3e-4,-0.0067 0.002,-0.01467 0.002,-0.02133" />
      <path
         id="path1030"
         style="fill:#013668;fill-opacity:1;fill-rule:nonzero;stroke:none;stroke-width:0.133333"
         d="m 143.36063,75.211014 v 0 l -0.002,0.01467 v 0 l -0.002,0.02667 c -0.0609,0.656 -0.36827,1.24 -0.82814,1.658667 -0.4568,0.416 -1.0636,0.669333 -1.72813,0.669333 h -0.10467 v -0.105333 -1.062667 -0.105333 h 0.10467 c 0.3188,0 0.61093,-0.114667 0.83587,-0.305334 0.22973,-0.194666 0.39066,-0.466666 0.44173,-0.776 l 0.014,-0.08667 h -0.002 l 0.001,-0.012 h -5.3e-4 l 0.001,-0.01067 0.2084,0.01733 v 0.004 h 0.95306 0.11467 z m -0.97347,1.545333 c 0.39693,-0.361333 0.66933,-0.853333 0.748,-1.409333 h -0.86773 c -0.074,0.324 -0.25107,0.606666 -0.49534,0.813333 -0.23746,0.201333 -0.53746,0.329333 -0.8672,0.353333 v 0.854667 c 0.57027,-0.02533 1.088,-0.252 1.48227,-0.612 z m -4.15467,-1.745333 c 0,-0.008 0,0 5.4e-4,-0.032 0,-0.012 5.3e-4,-0.02267 5.3e-4,-0.032 l 0.20827,0.004 c 0,0.012 0,0.02267 0,0.03067 -4e-4,0.012 0,-0.0013 0,0.02933 z m 0.21094,-0.092 -0.001,0.01333 h 0.001 v 0 h -0.001 v 0.0027 0 0 l -0.2088,-0.0027 v 0 l 0.001,-0.004 c 0,-0.01733 10e-4,-0.03467 10e-4,-0.04667 l 0.2088,0.01067 h -5.4e-4 v 0.0013 0.0013 0 0.0013 0 c 0,0.008 -5.3e-4,0.016 -5.3e-4,0.02267 z m 5.3e-4,-0.02267 -5.3e-4,0.01733 z m -0.20733,-0.03867 0.001,-0.0053 v -0.0013 0 l 5.3e-4,-0.0013 v 0 l 5.3e-4,-0.024 v 0 0 -0.0013 l 0.001,-0.008 0.2088,0.016 -0.001,0.0027 v 0.0013 0.0013 0.0027 c -4e-4,0.012 -9.3e-4,0.01867 -10e-4,0.024 v 0.0053 z m 0.005,-0.06667 0.001,-0.0067 0.003,-0.03067 0.20826,0.02 c -0.001,0.0067 -0.001,0.0093 -0.002,0.028 l -5.3e-4,0.0067 z m 0.007,-0.068 0.002,-0.008 5.3e-4,-0.0053 0.002,-0.02 0.2072,0.02667 v 0 0 l -5.3e-4,0.0093 v 0 c 0,0.0027 -9.4e-4,0.0053 -0.001,0.012 v 0.0013 0 l -5.4e-4,0.0067 z m 0.008,-0.064 5.3e-4,-0.0053 c 0.002,-0.01733 0.002,-0.01733 0.004,-0.028 l 0.20627,0.032 -0.003,0.02267 -5.4e-4,0.0067 z m 0.009,-0.06133 0.20573,0.03333 0.001,-0.0053 0.005,-0.02533 -0.20627,-0.036 c -0.002,0.008 -0.002,0.0093 -0.005,0.028 z m 0.2172,-0.03067 -0.001,0.0053 -0.2052,-0.03733 5.3e-4,-0.0067 0.001,-0.0013 z m -0.20054,-0.06267 v -0.0027 l 0.2052,0.04133 v 0 l -0.002,0.01067 v 0 0.0013 l -0.002,0.012 z m 0.006,-0.032 0.20467,0.04267 0.002,-0.0053 0.005,-0.02267 -0.2036,-0.04667 c -0.004,0.01867 -0.005,0.024 -0.006,0.02667 z m 0.0145,-0.06267 v 0 l 0.001,-0.0027 v -0.0013 l 5.3e-4,-0.0027 v -0.0013 h 5.4e-4 l 5.3e-4,-0.004 h 5.3e-4 c 0.001,-0.0067 0.001,-0.008 0.003,-0.01333 l 5.4e-4,-0.0027 v 0 l 5.3e-4,-0.0013 v 0 -0.0013 l 0.20307,0.052 -4e-4,0.0013 -0.001,0.004 -0.001,0.0013 v 0.0013 l -0.003,0.01067 v 0 l -0.002,0.008 v 0 0.0013 h -5.4e-4 v 0 0 l -0.2032,-0.048 v 0 z m 0.003,-0.012 0.003,-0.01333 c -0.002,0.004 -0.002,0.0067 -0.003,0.01333 z m 0.012,-0.048 0.20147,0.05333 v 0 l 0.008,-0.028 v 0 0 l -0.2016,-0.056 c -0.004,0.016 -0.006,0.02267 -0.008,0.02933 z m 0.0167,-0.06133 9.3e-4,-0.0013 v 0 c 0.003,-0.012 0.007,-0.024 0.008,-0.028 l 0.2,0.06133 c -0.005,0.01333 -0.007,0.02 -0.008,0.02667 v 0 l -9.3e-4,0.0013 z m 0.0181,-0.06 0.19947,0.064 0.005,-0.01333 v 0 l 0.005,-0.01333 -0.19947,-0.064 -0.005,0.01333 v 0 z m 0.0204,-0.05733 0.005,-0.01467 v -0.0013 l 0.005,-0.01333 0.19733,0.06933 -0.005,0.01467 v 0 l -0.005,0.01333 z m 0.0208,-0.06 0.19534,0.07333 c 0.002,-0.0053 0.005,-0.01333 0.0104,-0.02533 l -0.19534,-0.07467 c -0.002,0.0053 -0.006,0.01467 -0.0104,0.02667 z m 0.0224,-0.05733 0.005,-0.01333 h 5.4e-4 l 0.006,-0.01467 0.19266,0.08 -0.005,0.01333 v 0 l -0.005,0.01467 z m 0.0235,-0.056 0.19213,0.08267 0.005,-0.01333 h 5.4e-4 l 0.006,-0.01333 -0.1916,-0.084 -0.006,0.01333 v 0.0013 z m 0.0255,-0.05733 v 0.0013 l 0.19013,0.08667 0.006,-0.01333 v 0 l 0.006,-0.012 v 0 0 l -0.1896,-0.08933 -0.006,0.01333 v 0.0013 z m 0.0255,-0.05467 0.007,-0.01333 5.4e-4,-0.0013 0.007,-0.012 0.18586,0.09333 -0.006,0.012 v 0 l -0.007,0.01333 z m 0.0281,-0.05467 0.007,-0.01333 v -0.0013 l 0.006,-0.012 0.18547,0.09733 -0.007,0.01333 v 0 l -0.007,0.012 z m 0.0287,-0.05467 0.18387,0.1 c 0.0177,-0.03067 0.0104,-0.01867 0.0125,-0.02267 l -0.18173,-0.102666 c -0.012,0.02133 -0.006,0.01067 -0.0147,0.02533 z m 0.0308,-0.05333 0.18014,0.105333 c 0.008,-0.01467 0.0109,-0.01867 0.0131,-0.02267 l -0.17867,-0.106666 z m 0.2088,0.056 v 0.0013 l -0.17813,-0.109333 c 0.003,-0.0053 0.008,-0.01333 0.0141,-0.02267 l 10e-4,-0.0013 0.17613,0.110666 -0.004,0.008 -9.3e-4,0.0013 h -5.4e-4 l -0.008,0.01333 z m -0.1448,-0.16 c 0.008,-0.01333 0.0109,-0.01733 0.0131,-0.02 l 0.002,-0.0027 0.1744,0.114667 -0.003,0.0027 -0.0115,0.01867 z m 0.0339,-0.052 0.1724,0.118666 5.3e-4,-0.0013 v 0 h 5.4e-4 v 0 c 0.002,-0.004 0.002,-0.004 0.01,-0.01333 h -5.3e-4 l 5.3e-4,-0.0013 v 0 l 0.003,-0.004 -0.17147,-0.12 -0.001,0.004 v 0 l -0.002,0.0013 v 0 l -0.0109,0.01467 v 0 0.0013 z m 0.0344,-0.04933 0.16973,0.122667 c 0.0136,-0.01867 0.0109,-0.01467 0.012,-0.016 l 0.003,-0.004 -0.1688,-0.124 -0.002,0.004 c -0.01,0.01333 -0.008,0.0093 -0.0131,0.01733 z m 0.0364,-0.048 10e-4,-0.0027 0.002,-0.0027 h 5.3e-4 v 0 0 l 5.4e-4,-0.0027 h 9.3e-4 l 0.001,-0.0013 v 0 l 0.002,-0.0013 v 0 l 5.3e-4,-0.0013 v 0 0 h 5.4e-4 v -0.0013 0 0 l 5.3e-4,-0.0013 0.005,-0.0053 0.1656,0.128 -0.005,0.0067 -0.003,0.0027 v 0.0013 h -9.3e-4 l -0.004,0.0067 z m 0.0376,-0.05067 0.008,-0.0093 0.005,-0.0053 0.16307,0.130667 -0.005,0.0053 -0.007,0.0093 z m 0.0432,-0.05333 0.003,-0.0027 h 5.3e-4 l 0.005,-0.0053 0.15947,0.134667 -0.005,0.0053 -0.002,0.0027 -0.005,0.0067 v 0 h -0.001 l -0.15987,-0.133334 c 0.008,-0.0093 0.006,-0.008 0.005,-0.008 z m 0.0344,-0.03867 0.15627,0.137333 0.007,-0.008 v 0 l 0.006,-0.0053 -0.15627,-0.14 -0.005,0.0067 h -5.3e-4 v 0.0013 z m 0.04,-0.04533 0.1532,0.141334 0.006,-0.0053 0.004,-0.004 -0.15307,-0.142666 -0.004,0.004 z m 0.54333,-0.452 0.005,-0.0027 v 0 l 0.006,-0.0053 0.11094,0.177334 -0.007,0.0053 v 0 l -0.005,0.0027 z m 0.15667,-0.09067 0.005,-0.0027 h 4e-4 l 0.009,-0.004 0.0973,0.185333 -0.008,0.004 v 0.0013 l -0.005,0.0013 z m 1.1844,-0.188 v 1.161333 l -0.0963,0.008 v 0 h -0.003 l -0.005,0.0013 -0.003,0.0013 h -0.005 -0.006 -0.002 l -0.005,0.0013 h -5.3e-4 l -0.007,0.0013 h -0.003 -0.01 -0.001 c -0.01,0.0027 -0.0193,0.0027 -0.0292,0.0053 h -0.005 c -0.0193,0.0027 -0.0391,0.0067 -0.0579,0.01067 -0.007,0.0013 -0.0151,0.0027 -0.0224,0.004 -0.0115,0.0027 -0.0224,0.0053 -0.0339,0.008 h -0.002 l -0.005,0.0027 h -5.4e-4 l -0.0131,0.0027 h -0.004 l -0.001,0.0013 -0.004,0.0013 -0.0109,0.0027 h -0.003 l -0.007,0.0027 h -4e-4 l -0.005,0.0013 v 0 l -0.014,0.004 -0.005,0.0013 -0.008,0.0027 -0.002,0.0013 -0.006,0.0013 -0.002,0.0013 -0.007,0.0013 -0.004,0.0013 -0.008,0.0027 -0.005,0.0013 -0.005,0.0013 -0.002,0.0013 -0.005,0.0027 -0.0697,-0.197333 0.002,-0.0013 0.004,-0.0013 0.0136,-0.0053 c 0.01,-0.0027 0.0187,-0.0053 0.0291,-0.0093 h 0.003 c 0.008,-0.0027 0.0151,-0.0053 0.0229,-0.008 l 0.008,-0.0013 c 0.0213,-0.0067 0.0443,-0.012 0.0661,-0.01867 l 0.009,-0.0013 0.005,-0.0013 0.003,-0.0013 0.006,-0.0013 h 0.003 l 0.0129,-0.0027 c 0.01,-0.0027 0.0199,-0.004 0.0297,-0.0067 h 5.4e-4 l 0.005,-0.0013 c 0.008,-0.0013 0.0167,-0.0027 0.0251,-0.004 l 0.004,-0.0013 c 0.006,0 0.0115,-0.0013 0.0177,-0.0027 h 0.003 l 0.012,-0.0027 v -0.972 z m -0.42387,1.241333 -0.0715,-0.197333 -0.0145,0.0053 -0.001,0.0013 -0.0151,0.0053 0.0724,0.190666 -0.0745,-0.190666 -0.014,0.0067 h -0.002 l -0.0135,0.0053 0.078,0.194666 0.0147,-0.0067 v 0 l 0.0125,-0.004 v 0 l 0.0145,-0.0053 v 0 z m -0.0573,0.02133 -0.0797,-0.193333 -0.0135,0.0053 -0.001,0.0013 -0.0136,0.0053 0.0823,0.192 0.0141,-0.0053 v 0 z m -0.0271,0.012 -0.0131,0.0053 v 0 l -0.0125,0.0067 -0.0864,-0.190666 0.012,-0.0053 10e-4,-0.0013 0.0131,-0.0053 z m -0.0276,0.012 -0.0115,0.0053 v 0 l -0.0131,0.0067 -0.0911,-0.188 0.0119,-0.0067 h 0.002 l 0.0131,-0.0053 z m -0.0271,0.01333 -0.0125,0.0067 -0.0125,0.0067 -0.0959,-0.186667 0.0125,-0.0067 h 0.001 l 0.0125,-0.0067 z m -0.0261,0.01333 -0.0124,0.0067 v 0 l -0.0131,0.0067 v 0 l -0.0131,0.008 v 0 l -0.0129,0.0067 -0.10373,-0.181333 0.0131,-0.0067 5.3e-4,-0.0013 0.014,-0.0067 0.1,0.178667 -0.0973,-0.18 0.0129,-0.008 h 5.4e-4 l 0.0131,-0.0067 z m -0.052,0.02933 -0.1068,-0.18 -0.0125,0.0067 -0.002,0.0013 -0.0119,0.008 0.0823,0.136 -0.0839,-0.134666 h -0.002 l -0.007,0.004 -0.002,0.0013 -0.002,0.0013 -0.002,0.0013 -0.002,0.0013 -0.002,0.0027 h -0.002 l -0.004,0.0027 -0.004,0.0027 -0.002,0.0013 -10e-4,0.0013 -0.007,0.004 -0.003,0.0013 -0.004,0.0027 -0.003,0.0027 -0.002,0.0013 -0.003,0.0013 -0.005,0.0027 -0.001,0.0013 -0.003,0.0027 -0.005,0.004 -0.004,0.0027 -0.007,0.004 -0.005,0.004 -0.005,0.0027 -0.002,0.0027 -0.004,0.0027 -0.005,0.004 -0.005,0.0027 -0.004,0.0027 -0.001,0.0013 -0.003,0.0013 -5.3e-4,0.0013 -0.006,0.004 -0.002,0.0013 -0.005,0.004 c -0.005,0.004 -0.0104,0.008 -0.0161,0.01333 h -9.3e-4 l -0.005,0.004 h -4e-4 l -0.003,0.0027 -10e-4,0.0013 -0.005,0.004 -0.002,0.0013 -0.01,0.008 -10e-4,0.0013 -0.008,0.0067 -0.001,0.0013 c -0.006,0.0053 -0.0129,0.01067 -0.0192,0.016 v 0 c -0.005,0.0053 -0.01,0.008 -0.0147,0.01333 l -0.002,0.0013 -0.005,0.004 -0.002,0.0027 -0.012,0.012 -0.003,0.0013 -0.004,0.004 0.14333,0.152 10e-4,-0.0013 0.002,-0.0013 0.002,-0.0013 0.002,-0.0027 0.003,-0.0013 0.002,-0.0027 0.003,-0.0027 0.002,-0.0013 0.002,-0.0013 0.004,-0.004 0.003,-0.0027 0.005,-0.004 0.003,-0.0027 0.002,-0.0027 0.008,-0.008 0.003,-0.0013 0.005,-0.0053 0.002,-0.0013 10e-4,-0.0013 0.002,-0.0013 0.004,-0.0027 0.002,-0.0027 5.4e-4,-0.0013 0.005,-0.0027 0.002,-0.0027 0.005,-0.0027 0.002,-0.0027 0.002,-0.0013 0.004,-0.0027 0.004,-0.0027 9.3e-4,-0.0013 0.0109,-0.008 0.007,-0.0067 0.001,-0.0013 0.004,-0.0027 0.0109,-0.008 h 0.002 l 0.001,-0.0027 0.002,-0.0013 c 0.007,-0.0053 0.0131,-0.0093 0.0204,-0.01333 l 9.3e-4,-0.0027 0.007,-0.004 0.003,-0.0013 0.002,-0.0013 0.002,-0.0013 0.002,-0.0027 0.004,-0.0013 0.004,-0.0027 0.002,-0.0013 0.003,-0.0027 h 0.002 l 0.003,-0.0027 0.002,-0.0013 0.002,-0.0013 h 0.001 l 0.004,-0.0027 0.001,-0.0013 0.005,-0.0027 0.007,-0.004 0.001,-0.0013 v 0 l 0.012,-0.008 v 0 z m -0.23653,0.176 c -0.007,0.0067 -0.012,0.012 -0.0167,0.01733 l -0.1468,-0.149334 c 0.008,-0.0067 0.0151,-0.01467 0.0208,-0.02 z m -0.0208,0.02 -0.008,0.0093 -0.009,0.0093 -0.14893,-0.148 0.009,-0.008 h 5.3e-4 l 0.008,-0.0093 z m -0.0213,0.02267 -0.007,0.008 v 0 l -0.008,0.008 -0.15213,-0.142667 0.007,-0.008 9.3e-4,-0.0013 0.008,-0.008 z m -0.0204,0.02267 -0.008,0.008 v 0 l -0.007,0.0067 -0.15467,-0.138666 0.007,-0.008 5.4e-4,-0.0013 0.007,-0.008 z m -0.0203,0.02267 -0.007,0.008 h -4e-4 l -0.006,0.008 -0.15893,-0.136 v 0 l 0.001,-0.0013 10e-4,-0.0013 0.005,-0.0067 h 5.3e-4 l 0.007,-0.0093 v 0.0013 l 9.4e-4,-0.0013 z m -0.0203,0.02267 -0.006,0.0067 v 0 l -0.006,0.0093 -0.162,-0.133333 0.006,-0.0093 h 5.3e-4 l 0.007,-0.0067 z m -0.0193,0.024 -0.164,-0.130667 -0.006,0.008 h -5.3e-4 l -0.006,0.008 0.16453,0.129334 v -0.0013 h 0.001 l 0.004,-0.0067 v 0 z m -0.19213,-0.09467 v 0 0.0013 l -0.006,0.0067 h 5.3e-4 l -5.3e-4,0.0013 0.16773,0.124 0.006,-0.008 v 0 l 0.005,-0.0067 -0.16666,-0.126667 z m 0.1552,0.142667 -0.16934,-0.121333 -0.006,0.0067 v 0.0013 l -0.006,0.008 0.17027,0.121333 0.006,-0.0093 v 0 z m -0.18907,-0.09333 -0.006,0.0067 v 0 l -0.006,0.01067 0.17293,0.116 v 0 0 l 0.005,-0.0067 v 0 -0.0013 l 0.005,-0.0067 -0.17133,-0.12 z m -0.001,0 v 0 h 0.001 v 0 z m -0.005,0.0067 v 0 l 0.005,-0.0067 z m 0.16093,0.136 -0.17546,-0.114666 -0.005,0.0093 h -5.4e-4 l -0.006,0.0093 0.17654,0.113334 0.005,-0.008 v 0 z m -0.0161,0.02667 h -0.001 l -5.3e-4,0.0013 c -0.002,0.0027 -0.004,0.0053 -0.008,0.01333 l -0.1792,-0.108 c 10e-4,-0.0027 0.006,-0.0093 0.01,-0.016 v 0 l 5.3e-4,-0.0013 z m -0.0177,0.028 -0.002,0.0027 v 0 l -0.007,0.012 -0.1792,-0.106667 0.006,-0.01067 v 0 l 0.002,-0.004 z m -0.014,0.024 -0.002,0.004 -0.006,0.012 -0.18493,-0.09867 h 10e-4 v 0 l 5.3e-4,-0.0013 c 0.004,-0.008 0.006,-0.01067 0.007,-0.01333 v 0 0 -0.0013 0 h 5.4e-4 v 0 0 0 l 0.001,-0.004 z m -0.0109,0.02 h -5.3e-4 l -5.3e-4,0.0013 v 0 0 l -5.4e-4,0.0013 v 0 0.0013 h -0.001 l -5.3e-4,0.0013 v 0 l -5.3e-4,0.0013 -0.001,0.0027 h -4e-4 v 0.0013 h -5.3e-4 l -5.4e-4,0.0013 v 0 0 l -0.002,0.0027 v 0.0013 l -5.3e-4,0.0013 v 0 0 l -0.002,0.0027 -4e-4,0.0013 -0.001,0.0013 -0.001,0.0013 v 0.0013 h -5.3e-4 l -5.4e-4,0.0027 h -5.3e-4 l -10e-4,0.0013 -9.4e-4,0.004 -0.002,0.0027 v 0.0013 0 l -5.3e-4,0.0013 h -5.3e-4 v 0 l -0.001,0.0013 v 0 l -5.4e-4,0.0027 -4e-4,0.0013 -0.002,0.0013 v 0.0013 l -0.001,0.0027 v 0 l -5.3e-4,0.0013 v 0 l -0.002,0.0027 v 0 l -0.001,0.0027 v 0.0013 l -0.001,0.0013 v 0.0013 l -5.3e-4,0.0013 -0.002,0.0027 v 0 h -5.4e-4 v 0.0013 0 l -9.3e-4,0.0013 -0.18907,-0.08933 v 0 0 l 5.4e-4,-0.0013 v 0 l 4e-4,-0.0013 5.3e-4,-0.0013 v 0 h 0.001 l 10e-4,-0.004 0.001,-0.0013 v 0 l 5.3e-4,-0.0027 v 0 h 5.4e-4 l 4e-4,-0.0013 v 0 l 0.002,-0.004 h 5.3e-4 l 5.3e-4,-0.0013 v 0 l 10e-4,-0.0013 5.4e-4,-0.0013 v -0.0013 l 0.001,-0.0013 v -0.0013 l 4e-4,-0.0013 0.002,-0.0013 5.3e-4,-0.0013 10e-4,-0.0013 5.3e-4,-0.0027 0.001,-0.0013 v 0 l 0.001,-0.0027 v 0 h 5.4e-4 v -0.0013 l 5.3e-4,-0.0013 0.001,-0.0013 5.3e-4,-0.0013 v 0 l 5.3e-4,-0.0027 h 5.4e-4 l 5.3e-4,-0.0013 v 0 l 9.3e-4,-0.0013 v 0 l 5.4e-4,-0.0013 v 0 0 l 0.002,-0.0013 0.001,-0.0027 5.3e-4,-0.0013 0.001,-0.004 h 0.001 l 0.002,-0.0053 5.4e-4,-0.0013 0.002,-0.0013 4e-4,-0.0013 v -0.0013 l 0.003,-0.0053 v 0 z m -0.0376,0.07733 -0.19106,-0.08667 h -5.4e-4 v 0 l -0.002,0.004 v 0.0013 0 0 l -0.001,0.0013 -0.002,0.0067 -0.002,0.004 0.19174,0.08267 0.001,-0.0027 z m -0.0124,0.02667 -0.1928,-0.08 h -5.3e-4 v 0 l -0.005,0.012 h -5.3e-4 v 0.0013 0 l -0.001,0.0013 v 0 l -9.3e-4,0.0027 0.1932,0.07733 h 0.001 v 0 l 10e-4,-0.0013 v 0 l 4e-4,-0.0027 v 0 l 0.002,-0.0027 z m -0.0125,0.028 -0.1932,-0.076 c -0.009,0.02133 -0.005,0.01067 -0.006,0.016 l -0.001,0.0013 0.19534,0.07467 0.001,-0.0027 c 0.005,-0.01333 -9.3e-4,0 0.004,-0.01333 z m -0.0104,0.02933 -0.004,0.0093 h 5.4e-4 l -5.4e-4,0.0013 v 0 l -0.002,0.004 -0.1964,-0.06933 v 0 0 l 0.001,-0.0053 v 0 0 0 l 0.004,-0.01067 z m -0.0109,0.02933 v 0.0013 l -0.003,0.01067 v 0 c 0.001,-0.004 0.002,-0.0053 0,0 v 0 l -0.001,0.0027 h -4e-4 l 10e-4,-0.0027 v 0 l -10e-4,0.0013 -4e-4,0.0013 v 0 0 0 0 0 c -0.001,0.004 -0.003,0.008 0,0 l -0.19853,-0.06533 0.002,-0.0027 v 0 l -0.002,0.0027 v 0 c -0.007,0.02133 0.003,-0.0093 0.002,-0.0027 v 0 l 0.004,-0.01333 z m -0.2016,-0.05333 z m 0.18334,0.113334 -0.20107,-0.05733 -0.002,0.008 v 0 l -0.003,0.008 0.20107,0.056 0.002,-0.0067 h 5.3e-4 z m -0.0161,0.06 -0.002,0.008 v 0 l -0.002,0.0067 -0.20373,-0.04533 0.002,-0.0067 v -0.0027 l 0.002,-0.0067 z m -0.0131,0.06267 -0.002,0.008 v 0 l -9.4e-4,0.0067 -0.20573,-0.036 0.002,-0.008 v -0.0013 l 0.002,-0.008 z m -0.005,0.03067 -0.2068,-0.032 v 0.0027 l -0.001,0.012 0.20573,0.032 0.002,-0.012 v 0 z m -0.005,0.03333 v 0.004 h -5.4e-4 l -0.001,0.0093 -0.20666,-0.02667 9.3e-4,-0.01067 v 0 -0.004 z m -0.004,0.03067 -0.20787,-0.02133 v 0.0027 l -0.002,0.012 0.20787,0.02133 0.001,-0.0093 v 0 z m -0.003,0.03333 v 0.0053 l -10e-4,0.008 -0.20827,-0.01733 5.4e-4,-0.008 v 0 l 5.3e-4,-0.0053 z m -0.002,0.032 -5.4e-4,0.004 v 0 l -5.3e-4,0.01067 -0.20893,-0.012 0.001,-0.01067 v 0 -0.0053 z m 2.79786,0.07733 v 0.0013 c 0,0.0053 0,0.0053 0,0.004 l -5.3e-4,0.02933 v 0.0013 0 0 0 0 0.0013 0 0 0 0 0 0.0013 0 0 l -0.20933,-0.0053 v -0.03333 z m -5.3e-4,0.04133 -0.20933,-0.0067 -5.4e-4,0.016 v 0 l -5.3e-4,0.01467 0.2088,0.01067 v -0.01867 0 z m -0.002,0.04 -0.2084,-0.012 -5.3e-4,0.01333 v 0 l -0.002,0.01467 0.2084,0.01333 0.001,-0.01333 v -0.0013 l 10e-4,-0.01467" />
      <path
         id="path1032"
         style="fill:#f38caf;fill-opacity:1;fill-rule:evenodd;stroke:none;stroke-width:0.133333"
         d="m 140.80076,72.548347 c 1.35987,0 2.46307,1.104 2.46307,2.462667 0,0.07867 -0.004,0.154666 -0.0105,0.232 h -1.07187 c 0.0125,-0.076 0.0193,-0.153334 0.0193,-0.232 0,-0.772 -0.62707,-1.4 -1.4,-1.4 -0.0396,0 -0.0787,0.0027 -0.1172,0.0053 v -1.065333 c 0.0385,-0.0013 0.0776,-0.0027 0.1172,-0.0027" />
      <path
         id="path1034"
         style="fill:#013668;fill-opacity:1;fill-rule:nonzero;stroke:none;stroke-width:0.133333"
         d="m 140.80076,72.444347 c 0.7088,0 1.35107,0.286667 1.81507,0.752 0.4656,0.464 0.75266,1.106667 0.75266,1.814667 0,0.03733 -5.3e-4,0.07733 -0.003,0.121333 -0.002,0.03867 -0.005,0.07867 -0.008,0.12 l -0.01,0.09467 h -0.0943 -1.07186 -0.12294 l 0.0199,-0.121334 c 0.006,-0.03333 0.009,-0.06933 0.0125,-0.106666 0.004,-0.03467 0.005,-0.07067 0.005,-0.108 0,-0.357334 -0.1448,-0.68 -0.3792,-0.914667 -0.23493,-0.234667 -0.55826,-0.38 -0.9156,-0.38 -0.024,0 -0.0423,0 -0.0552,0.0013 -0.0131,0 -0.0313,0.0013 -0.0541,0.0027 l -0.11306,0.01067 V 73.616353 72.55102 72.45235 l 0.1,-0.0053 c 0.0177,0 0.038,-0.0013 0.0604,-0.0027 0.0312,0 0.0521,0 0.062,0 z m 1.6672,0.898667 c -0.42653,-0.425334 -1.01613,-0.689334 -1.6672,-0.689334 h -0.0131 v 0.853334 h 0.0131 c 0.4156,0 0.7916,0.169333 1.06347,0.441333 0.2724,0.272 0.4412,0.648 0.4412,1.062667 0,0.04267 -0.002,0.084 -0.005,0.125333 v 0.0013 h 0.8552 l 0.002,-0.01467 c 10e-4,-0.03333 10e-4,-0.06933 10e-4,-0.112 0,-0.650667 -0.26347,-1.24 -0.69054,-1.668" />
      <path
         id="path1036"
         style="fill:#e5ec99;fill-opacity:1;fill-rule:evenodd;stroke:none;stroke-width:0.133333"
         d="m 140.80076,77.475014 c -1.3604,0 -2.4636,-1.102667 -2.4636,-2.464 0,-1.358667 1.1032,-2.462667 2.4636,-2.462667 v 1.062667 c -0.77347,0 -1.40053,0.628 -1.40053,1.4 0,0.774666 0.62706,1.401333 1.40053,1.401333 v 1.062667" />
      <path
         id="path1038"
         style="fill:#013668;fill-opacity:1;fill-rule:nonzero;stroke:none;stroke-width:0.133333"
         d="m 140.80076,77.580347 c -0.70893,0 -1.3516,-0.288 -1.81613,-0.752 -0.46467,-0.465333 -0.75214,-1.108 -0.75214,-1.817333 0,-0.708 0.28747,-1.350667 0.75214,-1.814667 0.46453,-0.465333 1.1072,-0.752 1.81613,-0.752 h 0.10413 v 0.104 1.062667 0.105333 h -0.10413 c -0.3584,0 -0.68173,0.145333 -0.91667,0.38 -0.2344,0.234667 -0.37866,0.557333 -0.37866,0.914667 0,0.358666 0.14426,0.682666 0.37866,0.917333 0.23494,0.233333 0.55827,0.378667 0.91667,0.378667 h 0.10413 v 0.105333 1.062667 0.105333 z m -1.66773,-0.9 c 0.4032,0.402667 0.95266,0.661333 1.56306,0.688 V 76.51368 c -0.374,-0.02667 -0.7104,-0.188 -0.95986,-0.437333 -0.272,-0.273333 -0.44067,-0.648 -0.44067,-1.065333 0,-0.414667 0.16867,-0.790667 0.44067,-1.062667 0.24946,-0.249333 0.58586,-0.412 0.95986,-0.437333 v -0.856 c -0.6104,0.02667 -1.15986,0.285333 -1.56306,0.688 -0.42707,0.428 -0.6912,1.017333 -0.6912,1.668 0,0.652 0.26413,1.241333 0.6912,1.669333" />
      <path
         id="path1040"
         style="fill:#fafafa;fill-opacity:1;fill-rule:evenodd;stroke:none;stroke-width:0.133333"
         d="m 134.10236,74.00168 v 0 c -0.1464,0 -0.26573,0.12 -0.26573,0.265334 v 4.395999 c 0,0.145334 0.11933,0.265334 0.26573,0.265334 v 0 c 0.14573,0 0.2656,-0.12 0.2656,-0.265334 v -4.395999 c 0,-0.145334 -0.11987,-0.265334 -0.2656,-0.265334" />
      <path
         id="path1042"
         style="fill:#013668;fill-opacity:1;fill-rule:nonzero;stroke:none;stroke-width:0.133333"
         d="m 134.10236,74.107014 v 0 c -0.0453,0 -0.0849,0.01867 -0.11413,0.04667 -0.0292,0.02933 -0.0468,0.06933 -0.0468,0.113334 v 4.395999 c 0,0.044 0.0176,0.084 0.0468,0.113334 0.0292,0.02933 0.0688,0.048 0.11413,0.048 v 0 c 0.0443,0 0.0843,-0.01867 0.11293,-0.048 0.0297,-0.02933 0.0475,-0.06933 0.0475,-0.113334 v -4.395999 c 0,-0.044 -0.0177,-0.084 -0.0475,-0.113334 -0.0291,-0.028 -0.0687,-0.04667 -0.11293,-0.04667 z m 0,-0.209334 v 0 c 0.102,0 0.19427,0.04133 0.26147,0.108 0.0671,0.06667 0.1088,0.16 0.1088,0.261334 v 4.395999 c 0,0.101334 -0.0417,0.194667 -0.1088,0.26 v 0.0013 c -0.0677,0.068 -0.16,0.108 -0.26147,0.108 v 0 c -0.1016,0 -0.1948,-0.04 -0.262,-0.108 l -5.3e-4,-0.0013 c -0.0661,-0.06533 -0.10894,-0.158666 -0.10894,-0.26 v -4.395999 c 0,-0.101334 0.0428,-0.193334 0.10894,-0.26 l 5.3e-4,-0.0013 c 0.0672,-0.06667 0.1604,-0.108 0.262,-0.108" />
      <path
         id="path1044"
         style="fill:#fafafa;fill-opacity:1;fill-rule:evenodd;stroke:none;stroke-width:0.133333"
         d="m 132.15236,75.243014 v 0 c -0.14587,0 -0.26573,0.118666 -0.26573,0.265333 v 3.225333 c 0,0.146667 0.11986,0.265333 0.26573,0.265333 v 0 c 0.14627,0 0.26613,-0.118666 0.26613,-0.265333 v -3.225333 c 0,-0.146667 -0.11986,-0.265333 -0.26613,-0.265333" />
      <path
         id="path1046"
         style="fill:#013668;fill-opacity:1;fill-rule:nonzero;stroke:none;stroke-width:0.133333"
         d="m 132.15236,75.347014 v 0 c -0.0443,0 -0.0844,0.01867 -0.11307,0.048 -0.0297,0.028 -0.0479,0.06933 -0.0479,0.113333 v 3.225333 c 0,0.044 0.0181,0.08533 0.0479,0.113333 0.0292,0.02933 0.0688,0.048 0.11307,0.048 v 0 c 0.0443,0 0.0843,-0.01867 0.114,-0.048 0.0292,-0.028 0.0475,-0.06933 0.0475,-0.113333 v -3.225333 c 0,-0.044 -0.0183,-0.08533 -0.0475,-0.113333 -0.0297,-0.02933 -0.0697,-0.048 -0.114,-0.048 z m 0,-0.209334 v 0 c 0.102,0 0.1948,0.04267 0.26147,0.108 l 9.3e-4,0.0013 c 0.0661,0.06667 0.10893,0.158666 0.10893,0.261333 v 3.225333 c 0,0.102667 -0.0428,0.194667 -0.10893,0.261333 -0.0676,0.06667 -0.1604,0.109334 -0.2624,0.109334 v 0 c -0.1016,0 -0.1948,-0.04267 -0.262,-0.109334 -0.0667,-0.06667 -0.1084,-0.158666 -0.1084,-0.261333 v -3.225333 c 0,-0.102667 0.0417,-0.194667 0.1084,-0.261333 l 0.001,-0.0013 c 0.0667,-0.06533 0.15933,-0.108 0.26093,-0.108" />
      <path
         id="path1048"
         style="fill:#fafafa;fill-opacity:1;fill-rule:evenodd;stroke:none;stroke-width:0.133333"
         d="m 130.20289,76.607014 v 0 c -0.1464,0 -0.26573,0.118666 -0.26573,0.266666 v 1.930667 c 0,0.145333 0.11933,0.265333 0.26573,0.265333 v 0 c 0.1468,0 0.26667,-0.12 0.26667,-0.265333 V 76.87368 c 0,-0.148 -0.11987,-0.266666 -0.26667,-0.266666" />
      <path
         id="path1050"
         style="fill:#013668;fill-opacity:1;fill-rule:nonzero;stroke:none;stroke-width:0.133333"
         d="m 130.20289,76.712347 v 0 c -0.0444,0 -0.0844,0.01733 -0.1136,0.04667 -0.0287,0.02933 -0.0469,0.06933 -0.0469,0.114666 v 1.930667 c 0,0.044 0.0183,0.08533 0.0469,0.114666 0.0292,0.02933 0.0692,0.04667 0.1136,0.04667 v 0 c 0.0443,0 0.0848,-0.01733 0.114,-0.048 0.0287,-0.028 0.0469,-0.06933 0.0469,-0.113333 v -1.930667 c 0,-0.04533 -0.0183,-0.08533 -0.0469,-0.114666 -0.0292,-0.028 -0.0697,-0.04667 -0.114,-0.04667 z m 0,-0.209333 v 0 c 0.10254,0 0.19467,0.04 0.26187,0.108 0.0677,0.06667 0.10893,0.16 0.10893,0.262666 v 1.930667 c 0,0.102666 -0.0412,0.194666 -0.10893,0.261333 -0.0672,0.068 -0.15933,0.109333 -0.26187,0.109333 v 0 c -0.10106,0 -0.19386,-0.04133 -0.26106,-0.109333 h -4e-4 c -0.0672,-0.06667 -0.10894,-0.16 -0.10894,-0.261333 V 76.87368 c 0,-0.102666 0.0417,-0.194666 0.10894,-0.262666 h 4e-4 c 0.0672,-0.068 0.16,-0.108 0.26106,-0.108" />
    </g>
  </g>
</svg>
