<?xml version="1.0" encoding="UTF-8" standalone="no"?>
<!-- Created with Inkscape (http://www.inkscape.org/) -->

<svg
   width="210mm"
   height="297mm"
   viewBox="0 0 210 297"
   version="1.1"
   id="svg3151"
   inkscape:version="1.1.1 (3bf5ae0d25, 2021-09-20)"
   sodipodi:docname="leaf1.svg"
   xmlns:inkscape="http://www.inkscape.org/namespaces/inkscape"
   xmlns:sodipodi="http://sodipodi.sourceforge.net/DTD/sodipodi-0.dtd"
   xmlns="http://www.w3.org/2000/svg"
   xmlns:svg="http://www.w3.org/2000/svg">
  <sodipodi:namedview
     id="namedview3153"
     pagecolor="#ffffff"
     bordercolor="#666666"
     borderopacity="1.0"
     inkscape:pageshadow="2"
     inkscape:pageopacity="0.0"
     inkscape:pagecheckerboard="0"
     inkscape:document-units="mm"
     showgrid="false"
     inkscape:zoom="0.25953041"
     inkscape:cx="171.46353"
     inkscape:cy="880.43632"
     inkscape:window-width="1920"
     inkscape:window-height="1009"
     inkscape:window-x="-8"
     inkscape:window-y="-8"
     inkscape:window-maximized="1"
     inkscape:current-layer="layer1" />
  <defs
     id="defs3148" />
  <g
     inkscape:label="Layer 1"
     inkscape:groupmode="layer"
     id="layer1">
    <path
       d="m 139.33945,55.344023 c 7.12785,-7.128007 21.38354,0 23.75934,-11.003652 8.53458,-29.816273 -6.5128,-36.9441146 -45.14288,-21.383539 -8.56486,4.203515 -14.90103,14.999038 -19.007599,32.387191 -2.640346,6.419811 -7.39209,6.419811 -14.255848,0 -13.535277,-8.280721 -20.663124,-1.944555 -21.383539,19.007589 1.351524,23.179767 -3.400372,33.476158 -14.255542,30.887198 -15.852352,-4.13318 -18.228302,9.32993 -7.128,40.39143 14.236732,24.45316 15.821005,40.29236 4.752051,47.51884 -22.270336,-0.28794 -26.22964,11.59179 -11.879898,35.63922 11.610756,21.11395 25.073856,32.20186 40.391284,33.26345 22.029798,-1.83705 38.661451,-24.01227 49.894781,-66.52672 2.85507,-19.67555 -1.10501,-28.38783 -11.87959,-26.13544 -15.400004,-0.15766 -5.89621,-8.86979 28.51139,-26.13545 14.25571,-7.12784 12.73137,-18.53995 -2.37595,-23.75949 -11.86079,-2.27135 -12.65246,-6.23156 -2.37594,-11.8799 19.04567,-9.418157 26.96518,-16.545847 23.75948,-21.383545 -3.62852,-6.934852 -10.75638,-10.103406 -21.38354,-9.503642 -12.94898,-1.166028 -12.94898,-8.294022 0,-21.38354"
       style="fill:#266632;fill-opacity:1;fill-rule:evenodd;stroke:none;stroke-width:0.152922"
       id="path1600" />
    <path
       d="m 82.31658,297.69105 c -3.431723,3.20952 -5.807827,3.20952 -7.127697,0 -2.507311,-22.06788 -3.543048,-43.5103 -3.113646,-64.32833 -12.10194,-10.44381 -18.192976,-22.26376 -18.270047,-35.46153 0.87242,9.94085 7.004286,20.14516 18.395748,30.6136 1.036656,-32.67406 5.722954,-63.79339 14.057825,-93.36163 -10.816336,-12.13451 -15.345727,-24.81833 -13.588505,-38.05127 -0.517032,10.23169 4.421126,21.50129 14.811562,33.80876 10.434486,-35.349459 26.13469,-68.458763 47.10565,-99.326215 -14.67761,24.301299 -26.4653,49.686806 -35.367499,76.155005 14.730969,-7.22861 23.914559,-15.700347 27.546899,-25.412429 -3.76632,13.289386 -13.47824,23.365109 -29.133006,30.229939 -9.575975,29.78002 -15.533061,60.91739 -17.872767,93.41103 13.938227,-7.07846 22.667473,-15.32401 26.187753,-24.73468 -3.54871,12.51942 -12.374915,22.18669 -26.474937,29.00471 -1.745761,28.13979 -0.801165,57.29085 2.842667,87.45304"
       style="fill:#132916;fill-opacity:1;fill-rule:evenodd;stroke:none;stroke-width:0.152922"
       id="path1604" />
  </g>
</svg>
