<?xml version="1.0" encoding="UTF-8" standalone="no"?>
<!-- Created with Inkscape (http://www.inkscape.org/) -->

<svg
   width="210mm"
   height="297mm"
   viewBox="0 0 210 297"
   version="1.1"
   id="svg84787"
   inkscape:version="1.1.1 (3bf5ae0d25, 2021-09-20)"
   sodipodi:docname="meal_white.svg"
   inkscape:export-filename="C:\Users\rdbog\Documents\Food Optimisation\Quanteco-HQ.github.io\assets\images\qe\meal_white.png"
   inkscape:export-xdpi="108.16865"
   inkscape:export-ydpi="108.16865"
   xmlns:inkscape="http://www.inkscape.org/namespaces/inkscape"
   xmlns:sodipodi="http://sodipodi.sourceforge.net/DTD/sodipodi-0.dtd"
   xmlns="http://www.w3.org/2000/svg"
   xmlns:svg="http://www.w3.org/2000/svg">
  <sodipodi:namedview
     id="namedview84789"
     pagecolor="#ffffff"
     bordercolor="#666666"
     borderopacity="1.0"
     inkscape:pageshadow="2"
     inkscape:pageopacity="0.0"
     inkscape:pagecheckerboard="0"
     inkscape:document-units="mm"
     showgrid="false"
     inkscape:zoom="5.8725028"
     inkscape:cx="24.435919"
     inkscape:cy="13.452527"
     inkscape:window-width="958"
     inkscape:window-height="1000"
     inkscape:window-x="-7"
     inkscape:window-y="0"
     inkscape:window-maximized="0"
     inkscape:current-layer="layer3" />
  <defs
     id="defs84784" />
  <g
     inkscape:groupmode="layer"
     id="layer3"
     inkscape:label="Layer 2" />
  <g
     inkscape:label="Layer 1"
     inkscape:groupmode="layer"
     id="layer1">
    <path
       fill="#699dbd"
       d="M 6.448215,9.6364556 H 1.9118514 L 1.5692257,11.089188 v 0 c 1.7199808,0.335774 3.4947816,0.335774 5.2147624,0 v 0 z"
       id="path78949"
       style="fill:#2fa6ee;fill-opacity:0;stroke-width:0.0685251"
       inkscape:export-filename="C:\Users\rdbog\Documents\Food Optimisation\Quanteco-HQ.github.io\assets\images\qe\meal_white.png"
       inkscape:export-xdpi="108.16865"
       inkscape:export-ydpi="108.16865" />
    <path
       fill="#a2ceee"
       d="m 4.1800332,10.84935 v 0 c -2.1448366,0 -3.90593244,-1.6857178 -4.00186762,-3.8305543 L 0.11649296,6.4294796 H 8.2435734 L 8.1819008,7.0187957 C 8.0859656,9.1636322 6.3248697,10.84935 4.1800332,10.84935 Z"
       id="path78953"
       style="fill:#a2ceee;fill-opacity:0;stroke-width:0.0685251"
       inkscape:export-filename="C:\Users\rdbog\Documents\Food Optimisation\Quanteco-HQ.github.io\assets\images\qe\meal_white.png"
       inkscape:export-xdpi="108.16865"
       inkscape:export-ydpi="108.16865" />
    <path
       fill="#d7e6f6"
       d="M 0.74692416,7.0187957 0.68525154,6.4294796 H 0.11649296 l 0.0616726,0.5893161 C 0.27410076,9.1636322 2.0351966,10.84935 4.1800332,10.84935 v 0 c 0.095935,0 0.1918703,-0.0069 0.2878055,-0.0069 C 2.4531999,10.698595 0.83600683,9.0676971 0.74692416,7.0187957 Z"
       id="path78955"
       style="fill:#d7e6f6;fill-opacity:0;stroke-width:0.0685251"
       inkscape:export-filename="C:\Users\rdbog\Documents\Food Optimisation\Quanteco-HQ.github.io\assets\images\qe\meal_white.png"
       inkscape:export-xdpi="108.16865"
       inkscape:export-ydpi="108.16865" />
    <path
       fill="#6baed4"
       d="m 7.5857321,6.4294796 -0.061673,0.5893161 c -0.089083,2.0283438 -1.6788657,3.6523893 -3.672947,3.8168493 0.1096403,0.0069 0.2192805,0.0137 0.3289207,0.0137 v 0 c 2.1448365,0 3.9059324,-1.6857177 4.0018676,-3.8305543 l 0.061673,-0.5893161 z"
       id="path78957"
       style="fill:#6baed4;fill-opacity:0;stroke-width:0.0685251"
       inkscape:export-filename="C:\Users\rdbog\Documents\Food Optimisation\Quanteco-HQ.github.io\assets\images\qe\meal_white.png"
       inkscape:export-xdpi="108.16865"
       inkscape:export-ydpi="108.16865" />
    <path
       style="fill:#ffffff;fill-opacity:1;stroke-width:0.0685251"
       d="m 1.706276,11.006958 c 1.6446031,0.308363 3.3029112,0.308363 4.9475144,0 L 6.3591323,9.7529484 H 2.000934 Z"
       id="path89426"
       inkscape:export-filename="C:\Users\rdbog\Documents\Food Optimisation\Quanteco-HQ.github.io\assets\images\qe\meal_white.png"
       inkscape:export-xdpi="108.16865"
       inkscape:export-ydpi="108.16865" />
    <path
       style="fill:#ffffff;fill-opacity:1;stroke-width:0.0685251"
       d="m 4.1800332,11.459224 c -0.8771217,0 -1.7542434,-0.08908 -2.631365,-0.260395 -0.02741,-0.0069 -0.05482,-0.02056 -0.075378,-0.04797 -0.013705,-0.02741 -0.020558,-0.05482 -0.013705,-0.08908 l 0.342626,-1.4527334 c 0.013705,-0.047968 0.05482,-0.089083 0.1096402,-0.089083 H 6.448215 c 0.05482,0 0.095935,0.034263 0.1096402,0.089083 l 0.3426256,1.4527324 c 0.00685,0.02741 0,0.06167 -0.013705,0.08908 -0.013705,0.02741 -0.041115,0.04111 -0.075378,0.04797 -0.8771217,0.171312 -1.7542434,0.260395 -2.631365,0.260395 z"
       id="path89424"
       inkscape:export-filename="C:\Users\rdbog\Documents\Food Optimisation\Quanteco-HQ.github.io\assets\images\qe\meal_white.png"
       inkscape:export-xdpi="108.16865"
       inkscape:export-ydpi="108.16865" />
    <path
       style="fill:#ffffff;fill-opacity:1;stroke-width:0.0685251"
       d="m 0.2398382,6.5391198 0.0479676,0.4659709 c 0,0 0,0.00685 0,0.00685 0.0890827,2.0900189 1.8022109,3.7277693 3.8922274,3.7277693 v 0 c 2.0900164,0 3.8031447,-1.6377504 3.8922274,-3.7277668 0,0 0,-0.00685 0,-0.00685 l 0.047968,-0.4659709 z"
       id="path89422"
       inkscape:export-filename="C:\Users\rdbog\Documents\Food Optimisation\Quanteco-HQ.github.io\assets\images\qe\meal_white.png"
       inkscape:export-xdpi="108.16865"
       inkscape:export-ydpi="108.16865" />
    <path
       style="fill:#ffffff;fill-opacity:1;stroke-width:0.0685251"
       d="m 4.1800332,10.958991 c -1.0689921,0 -2.0763115,-0.404299 -2.8506454,-1.14437 C 0.56190631,9.0814021 0.10964045,8.0877877 0.06167286,7.0256482 L 2.42e-7,6.4431846 c 0,-0.034263 0.006852518,-0.061673 0.027410048,-0.089083 0.02055754,-0.020557 0.04796759,-0.034262 0.08223016,-0.034262 H 8.2367209 c 0.034263,0 0.061673,0.013705 0.08223,0.034262 0.020558,0.020558 0.034263,0.05482 0.02741,0.089083 L 8.2846885,7.0256482 C 8.2367209,8.0877877 7.784455,9.0814021 7.0169736,9.814621 c -0.760629,0.740071 -1.7679484,1.14437 -2.8369404,1.14437 z"
       id="path78959"
       inkscape:export-filename="C:\Users\rdbog\Documents\Food Optimisation\Quanteco-HQ.github.io\assets\images\qe\meal_white.png"
       inkscape:export-xdpi="108.16865"
       inkscape:export-ydpi="108.16865" />
    <path
       fill="#fff162"
       d="m 0.32892087,6.4294796 c 0.27410052,-2.5765449 4.90639933,-3.4810766 5.79037353,0 z"
       id="path78961"
       style="fill:#fff162;fill-opacity:0;stroke-width:0.0685251"
       inkscape:export-filename="C:\Users\rdbog\Documents\Food Optimisation\Quanteco-HQ.github.io\assets\images\qe\meal_white.png"
       inkscape:export-xdpi="108.16865"
       inkscape:export-ydpi="108.16865" />
    <path
       fill="#6f1546"
       d="M 6.1192944,6.5391198 H 0.32892087 c -0.0342626,0 -0.0616726,-0.013705 -0.0822302,-0.034263 -0.0205575,-0.020557 -0.0342626,-0.05482 -0.0274101,-0.089083 C 0.28780579,5.7647858 0.61672641,5.1891747 1.17178,4.7506139 1.6857184,4.3463156 2.3435597,4.0927726 3.028811,4.044805 3.7414723,3.989985 4.4061661,4.1612978 4.9543671,4.5244809 5.5710933,4.9356317 6.0096541,5.5866205 6.222082,6.408922 c 0.00685,0.034263 0,0.068525 -0.020558,0.095935 -0.013705,0.020557 -0.047968,0.034263 -0.08223,0.034263 z M 0.45911861,6.3198394 H 5.9753916 C 5.4957157,4.6889413 4.1594756,4.1887078 3.0493685,4.2640855 1.8981463,4.3531681 0.65784149,5.0795345 0.45911861,6.3198394 Z"
       id="path78963"
       style="fill:#ffffff;fill-opacity:1;stroke-width:0.0685251"
       inkscape:export-filename="C:\Users\rdbog\Documents\Food Optimisation\Quanteco-HQ.github.io\assets\images\qe\meal_white.png"
       inkscape:export-xdpi="108.16865"
       inkscape:export-ydpi="108.16865" />
    <path
       fill="#6f1546"
       d="m 5.4340431,6.5391198 c -0.047968,0 -0.095935,-0.034263 -0.1096403,-0.08223 C 4.9269571,5.0795345 3.6935047,4.6820887 2.6724803,4.7643189 1.6514559,4.8465491 0.55505379,5.4495702 0.43856107,6.4431846 0.43170856,6.5048572 0.37688846,6.5459723 0.31521584,6.5391198 0.25354322,6.5322673 0.21242814,6.4774472 0.21928066,6.4157745 0.28095327,5.9086886 0.56875882,5.4564227 1.0484347,5.1069446 1.4869956,4.791729 2.0626067,4.5861536 2.6587753,4.538186 3.2892065,4.490218 3.9059327,4.613564 4.3924611,4.8945167 c 0.561906,0.3220681 0.9593518,0.842859 1.1512222,1.5007003 0.013705,0.061673 -0.020558,0.1233452 -0.075378,0.1370503 -0.013705,0.00685 -0.02741,0.00685 -0.034262,0.00685 z"
       id="path78965"
       style="fill:#ffffff;fill-opacity:1;stroke-width:0.0685251"
       inkscape:export-filename="C:\Users\rdbog\Documents\Food Optimisation\Quanteco-HQ.github.io\assets\images\qe\meal_white.png"
       inkscape:export-xdpi="108.16865"
       inkscape:export-ydpi="108.16865" />
    <path
       fill="#6f1546"
       d="m 4.337641,6.5391198 c -0.047968,0 -0.095935,-0.034263 -0.1096402,-0.08223 C 3.9196377,5.3947501 2.9671384,5.0795345 2.1722469,5.1480596 1.3842079,5.2097322 0.53449626,5.6757031 0.44541359,6.4431846 0.43856107,6.5048572 0.38374097,6.5459723 0.32206835,6.5391198 0.26039574,6.5322673 0.21928066,6.4774472 0.22613317,6.4157745 0.27410076,6.0114763 0.50023369,5.6482931 0.88397442,5.3741926 1.2334526,5.1206496 1.6857184,4.9630418 2.1585418,4.9287792 c 0.5002335,-0.041115 0.9867619,0.061673 1.3773552,0.280953 0.4454133,0.253543 0.7606289,0.6646938 0.9113842,1.1923373 0.013705,0.061673 -0.020558,0.1233452 -0.075378,0.1370503 -0.013705,0 -0.02741,0 -0.034262,0 z"
       id="path78967"
       style="fill:#ffffff;fill-opacity:1;stroke-width:0.0685251"
       inkscape:export-filename="C:\Users\rdbog\Documents\Food Optimisation\Quanteco-HQ.github.io\assets\images\qe\meal_white.png"
       inkscape:export-xdpi="108.16865"
       inkscape:export-ydpi="108.16865" />
    <path
       fill="#6f1546"
       d="m 3.1658612,6.5391198 c -0.047967,0 -0.095935,-0.034263 -0.1096402,-0.08223 C 2.8437931,5.7236707 2.1790994,5.5043903 1.6308983,5.5523579 1.0826973,5.593473 0.50023369,5.9155411 0.43170856,6.4431846 c -0.006853,0.061673 -0.0616726,0.1027877 -0.12334523,0.095935 -0.0616726,-0.00685 -0.1027877,-0.061673 -0.0959352,-0.1233453 0.0753776,-0.6441362 0.76062894,-1.0347294 1.39791267,-1.082697 0.3563307,-0.02741 0.7126613,0.041115 0.9936144,0.2055754 0.3220681,0.1850178 0.5550535,0.4865284 0.6646937,0.8634166 0.013705,0.061673 -0.020558,0.1233452 -0.075378,0.1370503 -0.00685,0 -0.013705,0 -0.02741,2e-7 z"
       id="path78969"
       style="fill:#ffffff;fill-opacity:1;stroke-width:0.0685251"
       inkscape:export-filename="C:\Users\rdbog\Documents\Food Optimisation\Quanteco-HQ.github.io\assets\images\qe\meal_white.png"
       inkscape:export-xdpi="108.16865"
       inkscape:export-ydpi="108.16865" />
    <path
       fill="#fbb16a"
       d="m 8.0996706,6.4294796 c 0,0 -0.5276435,-3.0493683 -3.9950151,-2.1722467 v 0 c 0.9045317,0.2466905 1.6994233,0.9319418 2.0146389,2.1722467 z"
       id="path78971"
       style="fill:#fbb16a;fill-opacity:0.0668896;stroke-width:0.0685251"
       inkscape:export-filename="C:\Users\rdbog\Documents\Food Optimisation\Quanteco-HQ.github.io\assets\images\qe\meal_white.png"
       inkscape:export-xdpi="108.16865"
       inkscape:export-ydpi="108.16865" />
    <path
       fill="#6f1546"
       d="M 8.0996706,6.5391198 H 6.1192944 c -0.047968,0 -0.095935,-0.034263 -0.1096403,-0.08223 C 5.7355536,5.3741926 5.0503023,4.6341212 4.084098,4.3668731 4.063541,4.3600231 4.042983,4.3531681 4.029278,4.3326101 4.001868,4.3052001 3.988163,4.2640851 4.001868,4.2229699 4.015573,4.1818549 4.049836,4.1544449 4.084098,4.1475919 5.2216151,3.8597864 6.1741145,3.9557216 6.9073333,4.4353975 c 1.0689921,0.6921038 1.2882725,1.9255561 1.3019775,1.9735237 0.00685,0.034263 0,0.068525 -0.02741,0.089083 -0.020558,0.02741 -0.047968,0.041115 -0.08223,0.041116 z M 6.2015245,6.3198394 H 7.9557678 C 7.8666852,5.9909187 7.5720271,5.1343546 6.7839881,4.6204161 6.180967,4.2298229 5.420338,4.1133302 4.5158063,4.2777905 5.3449604,4.6341212 5.9342765,5.3467825 6.2015245,6.3198394 Z"
       id="path78973"
       style="fill:#ffffff;fill-opacity:1;stroke-width:0.0685251"
       inkscape:export-filename="C:\Users\rdbog\Documents\Food Optimisation\Quanteco-HQ.github.io\assets\images\qe\meal_white.png"
       inkscape:export-xdpi="108.16865"
       inkscape:export-ydpi="108.16865" />
    <path
       fill="#6f1546"
       d="m 7.3664517,5.086387 c -0.020557,0 -0.047968,-0.00685 -0.068525,-0.020557 -1.267715,-0.9730574 -2.0214914,-0.232986 -2.055754,-0.2055759 -0.041115,0.041115 -0.1164927,0.041115 -0.1576078,0 -0.041115,-0.041115 -0.047968,-0.1096402 0,-0.1576078 0.00685,-0.00685 0.2398379,-0.239838 0.6441362,-0.3289206 0.3700357,-0.08223 0.9662043,-0.05482 1.7062757,0.5070859 0.047968,0.034263 0.05482,0.1096402 0.020558,0.1576078 -0.02741,0.02741 -0.05482,0.047968 -0.089083,0.047968 z"
       id="path78975"
       style="fill:#ffffff;fill-opacity:1;stroke-width:0.0685251"
       inkscape:export-filename="C:\Users\rdbog\Documents\Food Optimisation\Quanteco-HQ.github.io\assets\images\qe\meal_white.png"
       inkscape:export-xdpi="108.16865"
       inkscape:export-ydpi="108.16865" />
    <path
       fill="#6f1546"
       d="m 7.9283578,5.9977712 c -0.034263,0 -0.075378,-0.020557 -0.095935,-0.047967 C 7.236254,5.0384194 5.8177838,5.6414406 5.8040788,5.6482931 c -0.05482,0.02741 -0.1233453,0 -0.1439028,-0.05482 -0.02741,-0.05482 0,-0.1233453 0.05482,-0.1439028 0.013705,-0.00685 0.3974457,-0.1713128 0.8702691,-0.2124279 0.6441363,-0.05482 1.1375172,0.1507553 1.4321753,0.5961686 0.034263,0.05482 0.020558,0.1233453 -0.034263,0.1507553 -0.013705,0.00685 -0.034263,0.013705 -0.05482,0.013705 z"
       id="path78977"
       style="fill:#ffffff;fill-opacity:1;stroke-width:0.0685251"
       inkscape:export-filename="C:\Users\rdbog\Documents\Food Optimisation\Quanteco-HQ.github.io\assets\images\qe\meal_white.png"
       inkscape:export-xdpi="108.16865"
       inkscape:export-ydpi="108.16865" />
    <path
       fill="#6f1546"
       d="m 7.7433399,6.5391198 c -0.034262,0 -0.068525,-0.020558 -0.095935,-0.047968 C 7.4144193,6.141674 7.0786462,5.9772137 6.6469379,5.9977712 6.3111647,6.0183288 6.0507692,6.141674 6.0439167,6.141674 c -0.05482,0.02741 -0.1233452,0 -0.1507553,-0.05482 -0.02741,-0.05482 0,-0.1233452 0.05482,-0.1507553 0.013705,-0.00685 0.3083631,-0.1439027 0.6852513,-0.1644603 0.5139385,-0.02741 0.9250893,0.1781654 1.1991898,0.5893161 0.034263,0.047968 0.020557,0.1233453 -0.034263,0.1576078 -0.013705,0.020558 -0.034263,0.020558 -0.05482,0.020557 z"
       id="path78979"
       style="fill:#ffffff;fill-opacity:1;stroke-width:0.0685251"
       inkscape:export-filename="C:\Users\rdbog\Documents\Food Optimisation\Quanteco-HQ.github.io\assets\images\qe\meal_white.png"
       inkscape:export-xdpi="108.16865"
       inkscape:export-ydpi="108.16865" />
    <polygon
       fill="#78c696"
       points="320.1,407.8 431.9,392.9 433,402.8 320.7,413.6 "
       id="polygon78981"
       transform="matrix(0.06852513,0,0,0.06852513,-18.049519,-26.812061)"
       style="fill:#ffffff;fill-opacity:1"
       inkscape:export-filename="C:\Users\rdbog\Documents\Food Optimisation\Quanteco-HQ.github.io\assets\images\qe\meal_white.png"
       inkscape:export-xdpi="108.16865"
       inkscape:export-ydpi="108.16865" />
    <path
       fill="#6f1546"
       d="m 3.9264902,1.639573 c -0.05482,0 -0.1027877,-0.041115 -0.1096402,-0.095935 L 3.7688824,1.146192 C 3.7620324,1.084519 3.8031454,1.0296993 3.8648174,1.0228468 L 11.525927,0.00182234 c 0.02741,-0.00685 0.06167,0.00685 0.08223,0.020558 0.02056,0.020558 0.04111,0.0479676 0.04111,0.0753776 l 0.07538,0.67839879 c 0,0.02741 -0.0069,0.061673 -0.02741,0.08223 -0.02056,0.020558 -0.04797,0.041115 -0.07538,0.041115 L 3.9333427,1.6395727 c 0,0 0,0 -0.00685,0 z m 0.08223,-0.4111508 0.020558,0.1781653 7.4692388,-0.71951387 -0.05482,-0.45226582 z"
       id="path78983"
       style="fill:#ffffff;fill-opacity:1;stroke-width:0.0685251"
       inkscape:export-filename="C:\Users\rdbog\Documents\Food Optimisation\Quanteco-HQ.github.io\assets\images\qe\meal_white.png"
       inkscape:export-xdpi="108.16865"
       inkscape:export-ydpi="108.16865" />
    <polygon
       fill="#78c696"
       points="320.9,420 432.9,432.5 431.7,442.4 320.1,425.8 "
       id="polygon78985"
       transform="matrix(0.06852513,0,0,0.06852513,-18.049519,-26.812061)"
       style="fill:#ffffff;fill-opacity:1"
       inkscape:export-filename="C:\Users\rdbog\Documents\Food Optimisation\Quanteco-HQ.github.io\assets\images\qe\meal_white.png"
       inkscape:export-xdpi="108.16865"
       inkscape:export-ydpi="108.16865" />
    <path
       fill="#6f1546"
       d="m 11.53278,3.6199492 c -0.0069,0 -0.0137,0 -0.0137,0 L 3.8785226,2.4755796 C 3.81685,2.468727 3.7757349,2.4139069 3.7825874,2.3522343 l 0.05482,-0.3974457 C 3.84426,1.893116 3.8990801,1.8520009 3.9607528,1.8588534 L 11.64242,2.7154175 c 0.02741,0 0.05482,0.020558 0.07538,0.041115 0.02056,0.020558 0.02741,0.05482 0.02056,0.08223 l -0.08908,0.6783987 c -0.0069,0.02741 -0.02056,0.05482 -0.04111,0.075378 -0.03426,0.020557 -0.05482,0.02741 -0.07538,0.02741 z M 4.0087203,2.2700042 11.429992,3.3801113 11.491665,2.9278454 4.0361304,2.0918388 Z"
       id="path78987"
       style="fill:#ffffff;fill-opacity:1;stroke-width:0.0685251"
       inkscape:export-filename="C:\Users\rdbog\Documents\Food Optimisation\Quanteco-HQ.github.io\assets\images\qe\meal_white.png"
       inkscape:export-xdpi="108.16865"
       inkscape:export-ydpi="108.16865" />
    <path
       fill="#6f1546"
       d="m 4.9475146,4.2229704 c 0,0 0,0 0,0 -0.061673,0 -0.1164927,-0.05482 -0.1096402,-0.1164927 0.020558,-0.8085966 0.041115,-2.0763115 0,-2.2544768 0,0 0,0 0,0 -0.061673,-0.013705 -0.267248,0.08223 -0.4385608,0.2055754 -0.047968,0.034263 -0.1164927,0.02741 -0.1576078,-0.02741 -0.034263,-0.047968 -0.02741,-0.1164927 0.02741,-0.1576078 0.1027877,-0.075378 0.4522659,-0.3083631 0.6578413,-0.2329854 0.068525,0.02741 0.1164927,0.08223 0.1370502,0.1576078 0.061673,0.267248 0.00685,2.1037215 0,2.3161494 -0.00685,0.061673 -0.05482,0.1096402 -0.1164927,0.1096401 z"
       id="path78989"
       style="fill:#ffffff;fill-opacity:1;stroke-width:0.0685251"
       inkscape:export-filename="C:\Users\rdbog\Documents\Food Optimisation\Quanteco-HQ.github.io\assets\images\qe\meal_white.png"
       inkscape:export-xdpi="108.16865"
       inkscape:export-ydpi="108.16865" />
    <path
       fill="#6f1546"
       d="m 5.6670285,4.2092654 c -0.00685,0 -0.00685,0 0,0 -0.068525,0 -0.1164927,-0.05482 -0.1096402,-0.1164928 l 0.05482,-1.6240456 c 0.00685,-0.1096402 -0.047968,-0.2124279 -0.1439028,-0.267248 -0.095935,-0.05482 -0.2055754,-0.05482 -0.3015106,0 -0.05482,0.02741 -0.1233452,0.013705 -0.1507552,-0.041115 -0.02741,-0.05482 -0.013705,-0.1233453 0.041115,-0.1507553 0.1644603,-0.095935 0.3631832,-0.095935 0.5276435,0.00685 0.1644603,0.095935 0.2603955,0.2741005 0.253543,0.4659709 l -0.05482,1.6240456 c -0.00685,0.05482 -0.061673,0.1027877 -0.1164927,0.1027877 z"
       id="path78991"
       style="fill:#ffffff;fill-opacity:1;stroke-width:0.0685251"
       inkscape:export-filename="C:\Users\rdbog\Documents\Food Optimisation\Quanteco-HQ.github.io\assets\images\qe\meal_white.png"
       inkscape:export-xdpi="108.16865"
       inkscape:export-ydpi="108.16865" />
    <path
       fill="#6f1546"
       d="m 6.2631971,4.3189056 c -0.061673,0 -0.1096402,-0.047968 -0.1096402,-0.1096402 V 2.2220366 c 0,-0.034263 -0.020557,-0.047968 -0.034262,-0.047968 -0.00685,-0.00685 -0.034263,-0.013705 -0.05482,0.013705 -0.041115,0.041115 -0.1164927,0.041115 -0.1576078,-0.00685 -0.041115,-0.041115 -0.041115,-0.1164927 0.00685,-0.1576078 0.08223,-0.075378 0.1987228,-0.095935 0.3015105,-0.05482 0.1027877,0.041115 0.1644603,0.1439028 0.1644603,0.253543 v 1.9872288 c -0.00685,0.05482 -0.05482,0.1096402 -0.1164927,0.1096402 z"
       id="path78993"
       style="fill:#ffffff;fill-opacity:1;stroke-width:0.0685251"
       inkscape:export-filename="C:\Users\rdbog\Documents\Food Optimisation\Quanteco-HQ.github.io\assets\images\qe\meal_white.png"
       inkscape:export-xdpi="108.16865"
       inkscape:export-ydpi="108.16865" />
  </g>
</svg>
