<?xml version="1.0" encoding="UTF-8" standalone="no"?>
<!-- Created with Inkscape (http://www.inkscape.org/) -->

<svg
   width="210mm"
   height="297mm"
   viewBox="0 0 210 297"
   version="1.1"
   id="svg84787"
   inkscape:version="1.1.1 (3bf5ae0d25, 2021-09-20)"
   sodipodi:docname="meals.svg"
   xmlns:inkscape="http://www.inkscape.org/namespaces/inkscape"
   xmlns:sodipodi="http://sodipodi.sourceforge.net/DTD/sodipodi-0.dtd"
   xmlns="http://www.w3.org/2000/svg"
   xmlns:svg="http://www.w3.org/2000/svg">
  <sodipodi:namedview
     id="namedview84789"
     pagecolor="#ffffff"
     bordercolor="#666666"
     borderopacity="1.0"
     inkscape:pageshadow="2"
     inkscape:pageopacity="0.0"
     inkscape:pagecheckerboard="0"
     inkscape:document-units="mm"
     showgrid="false"
     inkscape:zoom="0.73406285"
     inkscape:cx="-18.390796"
     inkscape:cy="370.54048"
     inkscape:window-width="958"
     inkscape:window-height="1000"
     inkscape:window-x="-7"
     inkscape:window-y="0"
     inkscape:window-maximized="0"
     inkscape:current-layer="layer1" />
  <defs
     id="defs84784" />
  <g
     inkscape:label="Layer 1"
     inkscape:groupmode="layer"
     id="layer1">
    <g
       id="g78995"
       transform="matrix(0.06852513,0,0,0.06852513,-18.049519,-26.812061)">
      <path
         fill="#699dbd"
         d="m 357.5,531.9 h -66.2 l -5,21.2 v 0 c 25.1,4.9 51,4.9 76.1,0 v 0 z"
         id="path78949" />
      <path
         fill="#6f1546"
         d="m 324.4,558.5 c -12.8,0 -25.6,-1.3 -38.4,-3.8 -0.4,-0.1 -0.8,-0.3 -1.1,-0.7 -0.2,-0.4 -0.3,-0.8 -0.2,-1.3 l 5,-21.2 c 0.2,-0.7 0.8,-1.3 1.6,-1.3 h 66.2 c 0.8,0 1.4,0.5 1.6,1.3 l 5,21.2 c 0.1,0.4 0,0.9 -0.2,1.3 -0.2,0.4 -0.6,0.6 -1.1,0.7 -12.8,2.5 -25.6,3.8 -38.4,3.8 z m -36.1,-6.6 c 24,4.5 48.2,4.5 72.2,0 l -4.3,-18.3 h -63.6 z"
         id="path78951" />
      <path
         fill="#a2ceee"
         d="m 324.4,549.6 v 0 c -31.3,0 -57,-24.6 -58.4,-55.9 l -0.9,-8.6 h 118.6 l -0.9,8.6 c -1.4,31.3 -27.1,55.9 -58.4,55.9 z"
         id="path78953" />
      <path
         fill="#d7e6f6"
         d="m 274.3,493.7 -0.9,-8.6 h -8.3 l 0.9,8.6 c 1.4,31.3 27.1,55.9 58.4,55.9 v 0 c 1.4,0 2.8,-0.1 4.2,-0.1 -29.4,-2.1 -53,-25.9 -54.3,-55.8 z"
         id="path78955" />
      <path
         fill="#6baed4"
         d="m 374.1,485.1 -0.9,8.6 c -1.3,29.6 -24.5,53.3 -53.6,55.7 1.6,0.1 3.2,0.2 4.8,0.2 v 0 c 31.3,0 57,-24.6 58.4,-55.9 l 0.9,-8.6 z"
         id="path78957" />
      <path
         fill="#6f1546"
         d="m 324.4,551.2 c -15.6,0 -30.3,-5.9 -41.6,-16.7 -11.2,-10.7 -17.8,-25.2 -18.5,-40.7 l -0.9,-8.5 c 0,-0.5 0.1,-0.9 0.4,-1.3 0.3,-0.3 0.7,-0.5 1.2,-0.5 h 118.6 c 0.5,0 0.9,0.2 1.2,0.5 0.3,0.3 0.5,0.8 0.4,1.3 l -0.9,8.5 c -0.7,15.5 -7.3,30 -18.5,40.7 -11.1,10.8 -25.8,16.7 -41.4,16.7 z m -57.5,-64.5 0.7,6.8 c 0,0 0,0.1 0,0.1 1.3,30.5 26.3,54.4 56.8,54.4 v 0 c 30.5,0 55.5,-23.9 56.8,-54.4 0,0 0,-0.1 0,-0.1 l 0.7,-6.8 z"
         id="path78959" />
      <path
         fill="#fff162"
         d="m 268.2,485.1 c 4,-37.6 71.6,-50.8 84.5,0 z"
         id="path78961" />
      <path
         fill="#6f1546"
         d="m 352.7,486.7 h -84.5 c -0.5,0 -0.9,-0.2 -1.2,-0.5 -0.3,-0.3 -0.5,-0.8 -0.4,-1.3 1,-9.5 5.8,-17.9 13.9,-24.3 7.5,-5.9 17.1,-9.6 27.1,-10.3 10.4,-0.8 20.1,1.7 28.1,7 9,6 15.4,15.5 18.5,27.5 0.1,0.5 0,1 -0.3,1.4 -0.2,0.3 -0.7,0.5 -1.2,0.5 z m -82.6,-3.2 h 80.5 c -7,-23.8 -26.5,-31.1 -42.7,-30 -16.8,1.3 -34.9,11.9 -37.8,30 z"
         id="path78963" />
      <path
         fill="#6f1546"
         d="m 342.7,486.7 c -0.7,0 -1.4,-0.5 -1.6,-1.2 -5.8,-20.1 -23.8,-25.9 -38.7,-24.7 -14.9,1.2 -30.9,10 -32.6,24.5 -0.1,0.9 -0.9,1.5 -1.8,1.4 -0.9,-0.1 -1.5,-0.9 -1.4,-1.8 0.9,-7.4 5.1,-14 12.1,-19.1 6.4,-4.6 14.8,-7.6 23.5,-8.3 9.2,-0.7 18.2,1.1 25.3,5.2 8.2,4.7 14,12.3 16.8,21.9 0.2,0.9 -0.3,1.8 -1.1,2 -0.2,0.1 -0.4,0.1 -0.5,0.1 z"
         id="path78965" />
      <path
         fill="#6f1546"
         d="m 326.7,486.7 c -0.7,0 -1.4,-0.5 -1.6,-1.2 -4.5,-15.5 -18.4,-20.1 -30,-19.1 -11.5,0.9 -23.9,7.7 -25.2,18.9 -0.1,0.9 -0.9,1.5 -1.8,1.4 -0.9,-0.1 -1.5,-0.9 -1.4,-1.8 0.7,-5.9 4,-11.2 9.6,-15.2 5.1,-3.7 11.7,-6 18.6,-6.5 7.3,-0.6 14.4,0.9 20.1,4.1 6.5,3.7 11.1,9.7 13.3,17.4 0.2,0.9 -0.3,1.8 -1.1,2 -0.2,0 -0.4,0 -0.5,0 z"
         id="path78967" />
      <path
         fill="#6f1546"
         d="m 309.6,486.7 c -0.7,0 -1.4,-0.5 -1.6,-1.2 -3.1,-10.7 -12.8,-13.9 -20.8,-13.2 -8,0.6 -16.5,5.3 -17.5,13 -0.1,0.9 -0.9,1.5 -1.8,1.4 -0.9,-0.1 -1.5,-0.9 -1.4,-1.8 1.1,-9.4 11.1,-15.1 20.4,-15.8 5.2,-0.4 10.4,0.6 14.5,3 4.7,2.7 8.1,7.1 9.7,12.6 0.2,0.9 -0.3,1.8 -1.1,2 -0.1,0 -0.2,0 -0.4,0 z"
         id="path78969" />
      <path
         fill="#fbb16a"
         d="m 381.6,485.1 c 0,0 -7.7,-44.5 -58.3,-31.7 v 0 c 13.2,3.6 24.8,13.6 29.4,31.7 z"
         id="path78971" />
      <path
         fill="#6f1546"
         d="m 381.6,486.7 h -28.9 c -0.7,0 -1.4,-0.5 -1.6,-1.2 -4,-15.8 -14,-26.6 -28.1,-30.5 -0.3,-0.1 -0.6,-0.2 -0.8,-0.5 -0.4,-0.4 -0.6,-1 -0.4,-1.6 0.2,-0.6 0.7,-1 1.2,-1.1 16.6,-4.2 30.5,-2.8 41.2,4.2 15.6,10.1 18.8,28.1 19,28.8 0.1,0.5 0,1 -0.4,1.3 -0.3,0.4 -0.7,0.6 -1.2,0.6 z m -27.7,-3.2 h 25.6 c -1.3,-4.8 -5.6,-17.3 -17.1,-24.8 -8.8,-5.7 -19.9,-7.4 -33.1,-5 12.1,5.2 20.7,15.6 24.6,29.8 z"
         id="path78973" />
      <path
         fill="#6f1546"
         d="m 370.9,465.5 c -0.3,0 -0.7,-0.1 -1,-0.3 -18.5,-14.2 -29.5,-3.4 -30,-3 -0.6,0.6 -1.7,0.6 -2.3,0 -0.6,-0.6 -0.7,-1.6 0,-2.3 0.1,-0.1 3.5,-3.5 9.4,-4.8 5.4,-1.2 14.1,-0.8 24.9,7.4 0.7,0.5 0.8,1.6 0.3,2.3 -0.4,0.4 -0.8,0.7 -1.3,0.7 z"
         id="path78975" />
      <path
         fill="#6f1546"
         d="m 379.1,478.8 c -0.5,0 -1.1,-0.3 -1.4,-0.7 -8.7,-13.3 -29.4,-4.5 -29.6,-4.4 -0.8,0.4 -1.8,0 -2.1,-0.8 -0.4,-0.8 0,-1.8 0.8,-2.1 0.2,-0.1 5.8,-2.5 12.7,-3.1 9.4,-0.8 16.6,2.2 20.9,8.7 0.5,0.8 0.3,1.8 -0.5,2.2 -0.2,0.1 -0.5,0.2 -0.8,0.2 z"
         id="path78977" />
      <path
         fill="#6f1546"
         d="m 376.4,486.7 c -0.5,0 -1,-0.3 -1.4,-0.7 -3.4,-5.1 -8.3,-7.5 -14.6,-7.2 -4.9,0.3 -8.7,2.1 -8.8,2.1 -0.8,0.4 -1.8,0 -2.2,-0.8 -0.4,-0.8 0,-1.8 0.8,-2.2 0.2,-0.1 4.5,-2.1 10,-2.4 7.5,-0.4 13.5,2.6 17.5,8.6 0.5,0.7 0.3,1.8 -0.5,2.3 -0.2,0.3 -0.5,0.3 -0.8,0.3 z"
         id="path78979" />
      <polygon
         fill="#78c696"
         points="433,402.8 320.7,413.6 320.1,407.8 431.9,392.9 "
         id="polygon78981" />
      <path
         fill="#6f1546"
         d="m 320.7,415.2 c -0.8,0 -1.5,-0.6 -1.6,-1.4 l -0.7,-5.8 c -0.1,-0.9 0.5,-1.7 1.4,-1.8 l 111.8,-14.9 c 0.4,-0.1 0.9,0.1 1.2,0.3 0.3,0.3 0.6,0.7 0.6,1.1 l 1.1,9.9 c 0,0.4 -0.1,0.9 -0.4,1.2 -0.3,0.3 -0.7,0.6 -1.1,0.6 l -112.2,10.8 c 0,0 0,0 -0.1,0 z m 1.2,-6 0.3,2.6 109,-10.5 -0.8,-6.6 z"
         id="path78983" />
      <polygon
         fill="#78c696"
         points="431.7,442.4 320.1,425.8 320.9,420 432.9,432.5 "
         id="polygon78985" />
      <path
         fill="#6f1546"
         d="m 431.7,444.1 c -0.1,0 -0.2,0 -0.2,0 L 320,427.4 c -0.9,-0.1 -1.5,-0.9 -1.4,-1.8 l 0.8,-5.8 c 0.1,-0.9 0.9,-1.5 1.8,-1.4 l 112.1,12.5 c 0.4,0 0.8,0.3 1.1,0.6 0.3,0.3 0.4,0.8 0.3,1.2 l -1.3,9.9 c -0.1,0.4 -0.3,0.8 -0.6,1.1 -0.5,0.3 -0.8,0.4 -1.1,0.4 z m -109.8,-19.7 108.3,16.2 0.9,-6.6 -108.8,-12.2 z"
         id="path78987" />
      <path
         fill="#6f1546"
         d="m 335.6,452.9 c 0,0 0,0 0,0 -0.9,0 -1.7,-0.8 -1.6,-1.7 0.3,-11.8 0.6,-30.3 0,-32.9 0,0 0,0 0,0 -0.9,-0.2 -3.9,1.2 -6.4,3 -0.7,0.5 -1.7,0.4 -2.3,-0.4 -0.5,-0.7 -0.4,-1.7 0.4,-2.3 1.5,-1.1 6.6,-4.5 9.6,-3.4 1,0.4 1.7,1.2 2,2.3 0.9,3.9 0.1,30.7 0,33.8 -0.1,0.9 -0.8,1.6 -1.7,1.6 z"
         id="path78989" />
      <path
         fill="#6f1546"
         d="m 346.1,452.7 c -0.1,0 -0.1,0 0,0 -1,0 -1.7,-0.8 -1.6,-1.7 l 0.8,-23.7 c 0.1,-1.6 -0.7,-3.1 -2.1,-3.9 -1.4,-0.8 -3,-0.8 -4.4,0 -0.8,0.4 -1.8,0.2 -2.2,-0.6 -0.4,-0.8 -0.2,-1.8 0.6,-2.2 2.4,-1.4 5.3,-1.4 7.7,0.1 2.4,1.4 3.8,4 3.7,6.8 l -0.8,23.7 c -0.1,0.8 -0.9,1.5 -1.7,1.5 z"
         id="path78991" />
      <path
         fill="#6f1546"
         d="m 354.8,454.3 c -0.9,0 -1.6,-0.7 -1.6,-1.6 v -29 c 0,-0.5 -0.3,-0.7 -0.5,-0.7 -0.1,-0.1 -0.5,-0.2 -0.8,0.2 -0.6,0.6 -1.7,0.6 -2.3,-0.1 -0.6,-0.6 -0.6,-1.7 0.1,-2.3 1.2,-1.1 2.9,-1.4 4.4,-0.8 1.5,0.6 2.4,2.1 2.4,3.7 v 29 c -0.1,0.8 -0.8,1.6 -1.7,1.6 z"
         id="path78993" />
    </g>
  </g>
</svg>
