<?xml version="1.0" encoding="UTF-8" standalone="no"?>
<!-- Created with Inkscape (http://www.inkscape.org/) -->

<svg
   width="210mm"
   height="297mm"
   viewBox="0 0 210 297"
   version="1.1"
   id="svg5"
   sodipodi:docname="pie chart.svg"
   inkscape:version="1.1.1 (3bf5ae0d25, 2021-09-20)"
   inkscape:export-filename="C:\Users\rdbog\Documents\Food Optimisation\media\pie chart.png"
   inkscape:export-xdpi="99.010002"
   inkscape:export-ydpi="99.010002"
   xmlns:inkscape="http://www.inkscape.org/namespaces/inkscape"
   xmlns:sodipodi="http://sodipodi.sourceforge.net/DTD/sodipodi-0.dtd"
   xmlns="http://www.w3.org/2000/svg"
   xmlns:svg="http://www.w3.org/2000/svg">
  <sodipodi:namedview
     id="namedview7"
     pagecolor="#ffffff"
     bordercolor="#666666"
     borderopacity="1.0"
     inkscape:pageshadow="2"
     inkscape:pageopacity="0.0"
     inkscape:pagecheckerboard="0"
     inkscape:document-units="mm"
     showgrid="false"
     inkscape:zoom="0.70710678"
     inkscape:cx="377.59502"
     inkscape:cy="484.36814"
     inkscape:window-width="1920"
     inkscape:window-height="1009"
     inkscape:window-x="-8"
     inkscape:window-y="-8"
     inkscape:window-maximized="1"
     inkscape:current-layer="layer1"
     inkscape:snap-path-clip="true"
     inkscape:snap-path-mask="true"
     objecttolerance="20" />
  <defs
     id="defs2" />
  <g
     inkscape:label="Layer 1"
     inkscape:groupmode="layer"
     id="layer1">
    <path
       style="fill:none;stroke:#000000;stroke-width:0.0264583;stroke-linecap:round;stroke-linejoin:miter;stroke-miterlimit:3.63636;stroke-dasharray:none;stroke-opacity:1"
       d="m 184.44085,95.15625 v 0 l -15.99021,8.03797 v 0 0"
       id="path1309-31"
       sodipodi:nodetypes="ccccc" />
    <path
       style="fill:none;stroke:#000000;stroke-width:0.0264583;stroke-linecap:butt;stroke-linejoin:miter;stroke-miterlimit:3.63636;stroke-dasharray:none;stroke-opacity:1"
       d="m 168.45064,103.19422 v 0 0"
       id="path18704"
       sodipodi:nodetypes="ccc" />
    <path
       style="fill:#ff5555;stroke:none;stroke-width:0.0901091"
       d="m 109.03932,8.7885378 c 0,5.3999242 0,10.7998482 0,16.1997732 3.62684,0.153284 7.30154,0.26179 10.93103,0.642817 19.37519,1.9232 38.1514,9.313201 53.7479,20.953879 1.16075,0.817954 2.2114,1.803783 3.397,2.575983 3.43684,-4.111207 6.80404,-8.294674 10.15788,-12.478896 0.0627,-0.238146 -0.38625,-0.368145 -0.50627,-0.54944 C 174.84422,26.584726 161.16423,19.239081 146.60001,14.626857 135.12614,10.970009 123.1207,9.0171994 111.0818,8.7850831 c -0.67655,-0.00534 -1.38381,-0.058994 -2.04248,0.00346 z"
       id="path24805" />
    <path
       style="fill:#00ff00;stroke:none;stroke-width:0.0318585"
       d="m 120.86917,58.778202 c -0.0991,0.246232 -0.0182,0.535972 -0.0444,0.799759 0,2.618343 0,5.236686 0,7.855029 0.0699,0.216334 0.36924,0.142679 0.54566,0.213437 7.42839,1.404294 14.61369,4.089289 21.14162,7.895291 2.58873,1.504122 5.07375,3.184197 7.43524,5.026649 0.22203,0.08432 0.30343,-0.227047 0.44019,-0.347588 3.55692,-4.549955 7.11093,-9.102347 10.65718,-13.660596 0.091,-0.214072 -0.20388,-0.293188 -0.31801,-0.420529 -1.00839,-0.777391 -2.03586,-1.518026 -3.07092,-2.259669 -0.85222,-0.595 -1.71523,-1.180203 -2.58515,-1.744763 -0.55703,-0.38118 -1.13598,-0.74495 -1.71645,-1.095475 -1.30363,-0.787675 -2.61469,-1.569797 -3.95737,-2.286275 -2.06913,-0.02027 -4.14306,-0.0029 -6.21403,-0.0087 -7.40856,0 -14.81712,0 -22.22567,0 -0.0293,0.01114 -0.0586,0.02228 -0.0879,0.03341 z"
       id="path25647" />
    <path
       style="fill:#00ff00;stroke:none;stroke-width:0.063717"
       d="m 161.03977,66.515381 c -0.31646,0.129632 -0.43267,0.540673 -0.67897,0.766482 -3.42424,4.39044 -6.83862,8.789294 -10.28704,13.160875 -0.0216,0.34168 0.48438,0.479541 0.67609,0.733298 5.33432,4.332012 10.04011,9.447908 13.81038,15.201534 1.44671,2.161239 2.75417,4.42043 3.93342,6.74339 0.28438,0.1368 0.57605,-0.22252 0.85844,-0.29332 5.03484,-2.52527 10.06992,-5.050019 15.09205,-7.600354 0.18871,-0.234418 -0.1386,-0.523438 -0.19837,-0.762735 -3.58102,-6.942304 -8.10756,-13.403876 -13.44475,-19.10933 -2.46892,-2.55492 -4.98731,-5.071996 -7.74595,-7.317322 -0.64668,-0.500711 -1.23333,-1.101944 -1.93926,-1.514927 -0.0247,-0.0065 -0.0505,-0.0095 -0.076,-0.0076 z"
       id="path25871" />
    <path
       style="fill:#00ff00;stroke:none;stroke-width:0.063717"
       d="m 108.91268,48.525453 c -0.0814,1.184862 -0.0116,2.39813 -0.0348,3.593904 0,4.742839 0,9.48568 0,14.228519 0.21386,0.286689 0.71682,0.06006 1.04623,0.132286 3.59446,0.04405 7.18101,0.409615 10.72297,1.011878 0.48307,0.06611 0.214,-0.604462 0.28501,-0.888794 0.01,-2.579166 0.0195,-5.15833 0.0293,-7.737493 9.34377,-0.02119 18.68754,-0.04234 28.03131,-0.06347 0.36912,-0.293161 -0.43204,-0.429364 -0.62567,-0.591648 -3.44238,-1.762379 -6.96442,-3.377904 -10.6115,-4.672346 -9.03835,-3.273412 -18.63531,-4.990595 -28.24855,-5.045509 -0.19517,0.01704 -0.41415,-0.05605 -0.59429,0.03267 z"
       id="path25910" />
    <path
       style="fill:none;stroke:#000000;stroke-width:0.264583px;stroke-linecap:butt;stroke-linejoin:miter;stroke-opacity:1"
       d="m 149.99586,80.628568 c 0,0 -15.31139,-14.283711 -40.93285,-14.154356"
       id="path40930" />
    <path
       style="fill:none;stroke:#000000;stroke-width:0.264583px;stroke-linecap:butt;stroke-linejoin:miter;stroke-opacity:1"
       d="m 149.94726,80.568367 c 0,0 12.24296,8.74962 18.6118,22.742923"
       id="path41125"
       sodipodi:nodetypes="cc" />
    <path
       style="fill:none;stroke:#000000;stroke-width:0.264583px;stroke-linecap:butt;stroke-linejoin:miter;stroke-opacity:1"
       d="m 168.55907,103.31129 c 0,0 21.08291,37.68544 -9.0054,73.07926"
       id="path41127"
       sodipodi:nodetypes="cc" />
    <path
       style="fill:#00ffff;stroke:none;stroke-width:0.0901091"
       d="m 108.96276,31.052556 c -0.0686,4.306587 -0.01,8.635033 -0.0294,12.950033 0.0329,1.496142 -0.0658,3.02216 0.0493,4.499652 3.21911,0.187198 6.46113,0.217019 9.66373,0.640937 10.58146,1.222277 20.94802,4.440238 30.32699,9.50568 0.34477,0.29395 0.8461,0.365522 1.22158,0.643083 3.76119,2.070881 7.30764,4.514133 10.73514,7.093109 0.43447,-0.06763 0.63817,-0.655532 0.95456,-0.952529 3.3213,-4.235413 6.64335,-8.494887 9.93977,-12.734777 -0.60653,-0.627396 -1.44369,-1.112216 -2.1453,-1.67794 -15.09189,-11.179598 -33.3144,-18.096205 -52.03914,-19.639176 -2.85083,-0.247053 -5.71169,-0.404044 -8.57409,-0.377351 l -0.0813,0.03885 z"
       id="path26986" />
    <path
       style="fill:#008000;stroke:none;stroke-width:0.132292"
       d="m 109.06864,66.653581 c 0,22.115015 0,44.230029 0,66.345049 4.01857,3.59845 8.20018,7.07418 12.28146,10.62543 12.66173,10.88923 25.31814,21.78466 37.98756,32.66495 0.59893,-0.17562 0.86833,-0.99701 1.34236,-1.40738 7.34912,-8.96831 12.47468,-19.82178 14.2359,-31.31245 0.94508,-5.8291 0.80336,-11.78552 0.25925,-17.64695 -1.23789,-10.82401 -5.12957,-21.32787 -11.14478,-30.404164 -4.20354,-6.103313 -9.4653,-11.44547 -15.38794,-15.889824 -4.18248,-3.298629 -8.92359,-5.831329 -13.78618,-7.970592 -8.0929,-3.415334 -16.87914,-5.115681 -25.65534,-5.136361 l -0.0935,0.09354 z"
       id="path50724" />
    <path
       style="fill:#b3b3b3;stroke:none;stroke-width:0.187089"
       d="m 106.29231,31.396182 c -8.386561,0.30786 -16.73911,1.697732 -24.809846,3.987299 -20.140856,5.764447 -38.47275,17.779263 -51.561417,34.164559 -9.179003,11.46483 -16.036894,24.835898 -19.788795,39.04429 -2.1629375,8.44902 -3.0709991,17.20588 -2.6925153,25.9196 0.1747917,10.96343 2.6054913,21.80513 6.2352753,32.1172 6.232202,17.1813 16.473624,33.16338 30.597032,44.90399 10.926498,8.49868 23.359594,15.12566 36.668191,19.00607 9.401027,2.78552 19.226915,4.08558 29.018935,4.05052 7.39348,-0.25201 14.78525,-0.98442 21.99647,-2.68511 8.52557,-1.86954 16.88273,-4.70455 24.48321,-9.04353 11.00907,-6.09872 20.90358,-14.08642 29.61389,-23.14428 -0.70589,-1.05835 -2.04573,-1.81035 -2.98684,-2.75503 -24.74166,-21.27185 -49.48328,-42.54374 -74.22487,-63.81565 -0.003,-33.873889 -0.007,-67.747781 -0.0102,-101.62167 -0.6972,-0.296726 -1.73981,-0.06017 -2.53849,-0.128258 z"
       id="path51176" />
  </g>
  <g
     inkscape:groupmode="layer"
     id="layer3"
     inkscape:label="Layer 2">
    <path
       style="fill:none;stroke:#000000;stroke-width:0.264583;stroke-linecap:round;stroke-linejoin:miter;stroke-miterlimit:3.63636;stroke-dasharray:none;stroke-opacity:1"
       d="m 171.73834,52.718131 v 0 l -10.71014,13.71519 0.0164,0.126862 0.0712,-0.03721"
       id="path1309-5"
       sodipodi:nodetypes="ccccc" />
    <path
       style="fill:none;stroke:#000000;stroke-width:0.264583;stroke-linecap:round;stroke-linejoin:miter;stroke-miterlimit:3.63636;stroke-dasharray:none;stroke-opacity:1"
       d="m 108.97019,31.10349 v 0 l 0.005,101.9879"
       id="path1309"
       sodipodi:nodetypes="ccc" />
    <path
       style="fill:none;stroke:#000000;stroke-width:0.264583px;stroke-linecap:butt;stroke-linejoin:miter;stroke-opacity:1"
       d="m 184.44414,95.227286 c 0,0 -18.2652,-44.701906 -75.46149,-46.725045"
       id="path40928" />
    <path
       style="fill:none;stroke:#000000;stroke-width:0.264583;stroke-linecap:butt;stroke-linejoin:miter;stroke-miterlimit:3.81818;stroke-dasharray:none;stroke-opacity:1"
       d="m 168.45064,103.19422 0.0247,-0.0124 15.9688,-7.954524 -0.003,-0.07104"
       id="path37530"
       sodipodi:nodetypes="cccc" />
    <path
       style="fill:none;stroke:#000000;stroke-width:0.264583;stroke-linecap:round;stroke-linejoin:miter;stroke-miterlimit:3.63636;stroke-dasharray:none;stroke-opacity:1"
       d="m 186.31364,199.60644 v 0 0 l -77.33849,-66.51505"
       id="path1309-3"
       sodipodi:nodetypes="cccc" />
    <path
       style="fill:none;stroke:#000000;stroke-width:0.264583;stroke-linecap:round;stroke-linejoin:miter;stroke-miterlimit:4;stroke-dasharray:none;stroke-opacity:1"
       d="M 109.03932,24.988311 108.93222,8.7470384"
       id="path42980"
       sodipodi:nodetypes="cc" />
    <path
       style="fill:none;stroke:#000000;stroke-width:0.264583px;stroke-linecap:butt;stroke-linejoin:miter;stroke-opacity:1"
       d="m 187.53003,36.485588 -10.42112,12.815766 c 0,0 -26.56929,-24.394614 -68.06959,-24.313043"
       id="path42982" />
    <path
       style="fill:none;stroke:#000000;stroke-width:0.264583px;stroke-linecap:butt;stroke-linejoin:miter;stroke-opacity:1"
       d="m 108.93222,8.7470384 c 47.76942,0.028466 78.48203,27.8680656 78.48203,27.8680656"
       id="path42984"
       sodipodi:nodetypes="cc" />
    <path
       style="fill:none;stroke:#000000;stroke-width:0.264583px;stroke-linecap:butt;stroke-linejoin:miter;stroke-opacity:1"
       d="M 187.41425,36.615104 Z"
       id="path42990" />
    <path
       style="fill:none;stroke:#000000;stroke-width:0.264583px;stroke-linecap:butt;stroke-linejoin:miter;stroke-opacity:1"
       d="m 171.73834,52.71813 c 0,0 -24.96823,-21.824004 -63.09464,-21.478708 -35.164374,0.338396 -77.349408,20.217006 -95.453949,67.356307 -17.7646393,46.254291 7.055832,96.092431 34.297116,115.563061 36.313162,25.95473 71.640173,22.63735 94.981163,15.02483 24.46993,-7.98072 43.84561,-29.57718 43.84561,-29.57718"
       id="path47975"
       sodipodi:nodetypes="ccsssc" />
  </g>
</svg>
