<?xml version="1.0" encoding="UTF-8" standalone="no"?>
<!-- Created with Inkscape (http://www.inkscape.org/) -->

<svg
   width="210mm"
   height="297mm"
   viewBox="0 0 210 297"
   version="1.1"
   id="svg94512"
   inkscape:version="1.1.1 (3bf5ae0d25, 2021-09-20)"
   sodipodi:docname="plan.svg"
   inkscape:export-filename="C:\Users\rdbog\Documents\Food Optimisation\Quanteco-HQ.github.io\assets\images\qe\plan.png"
   inkscape:export-xdpi="129.58"
   inkscape:export-ydpi="129.58"
   xmlns:inkscape="http://www.inkscape.org/namespaces/inkscape"
   xmlns:sodipodi="http://sodipodi.sourceforge.net/DTD/sodipodi-0.dtd"
   xmlns="http://www.w3.org/2000/svg"
   xmlns:svg="http://www.w3.org/2000/svg">
  <sodipodi:namedview
     id="namedview94514"
     pagecolor="#ffffff"
     bordercolor="#666666"
     borderopacity="1.0"
     inkscape:pageshadow="2"
     inkscape:pageopacity="0.0"
     inkscape:pagecheckerboard="0"
     inkscape:document-units="mm"
     showgrid="false"
     inkscape:zoom="5.8725028"
     inkscape:cx="17.283942"
     inkscape:cy="40.017009"
     inkscape:window-width="958"
     inkscape:window-height="1000"
     inkscape:window-x="-7"
     inkscape:window-y="0"
     inkscape:window-maximized="0"
     inkscape:current-layer="layer1" />
  <defs
     id="defs94509" />
  <g
     inkscape:label="Layer 1"
     inkscape:groupmode="layer"
     id="layer1">
    <g
       transform="matrix(0.00319985,0,0,-0.00319985,0,11.94952)"
       id="g12"
       inkscape:export-filename="C:\Users\rdbog\Documents\Food Optimisation\Quanteco-HQ.github.io\assets\images\qe\plan.png"
       inkscape:export-xdpi="106.98915"
       inkscape:export-ydpi="106.98915">
      <path
         id="path14"
         style="fill:#90daf7;fill-opacity:1;fill-rule:evenodd;stroke:none"
         d="m 327.09,3113.21 c -83.406,0 -159.195,-34.07 -214.102,-88.98 -54.9021,-54.91 -88.9841,-130.69 -88.9841,-214.1 V 327.09 c 0,-83.41 34.0781,-159.192 88.9841,-214.102 C 167.895,58.0898 243.684,24 327.09,24 h 2090.98 c 83.41,0 159.19,34.0898 214.09,88.988 54.92,54.91 89,130.692 89,214.102 v 2483.04 c 0,83.41 -34.08,159.19 -89,214.1 -54.9,54.91 -130.68,88.98 -214.09,88.98 -94.69,0 -1996.297,0 -2090.98,0" />
      <path
         id="path16"
         style="fill:#3f444f;fill-opacity:1;fill-rule:nonzero;stroke:none"
         d="m 202.266,3112.32 c 38.574,16.02 80.754,24.89 124.824,24.89 h 2090.98 c 44.06,0 86.24,-8.87 124.82,-24.89 40.06,-16.66 76.12,-41 106.25,-71.12 30.12,-30.13 54.47,-66.18 71.12,-106.25 16.02,-38.57 24.89,-80.75 24.89,-124.82 V 327.09 c 0,-44.07 -8.87,-86.25 -24.89,-124.82 -16.65,-40.071 -41,-76.122 -71.12,-106.2387 C 2619.01,65.8906 2582.95,41.5508 2542.89,24.8906 2504.31,8.87109 2462.13,0 2418.07,0 H 327.09 C 283.023,0 240.844,8.87109 202.27,24.8906 162.207,41.5508 126.152,65.8906 96.0195,96.0313 65.8945,126.148 41.5508,162.199 24.8984,202.27 8.86719,240.84 0,283.02 0,327.09 v 2483.04 c 0,44.07 8.86719,86.25 24.8984,124.82 16.6524,40.07 40.9961,76.12 71.1211,106.25 30.1325,30.12 66.1835,54.46 106.2465,71.12 z m 124.824,-23.11 c -37.731,0 -73.688,-7.53 -106.449,-21.14 -34.075,-14.16 -64.852,-34.98 -90.68,-60.81 -25.836,-25.83 -46.6524,-56.6 -60.8165,-90.69 -13.6132,-32.76 -21.1406,-68.72 -21.1406,-106.44 V 327.09 c 0,-37.719 7.5274,-73.692 21.1406,-106.449 14.1641,-34.082 34.9805,-64.852 60.8165,-90.68 25.828,-25.832 56.605,-46.6524 90.684,-60.8126 C 253.402,55.5313 289.363,48 327.09,48 h 2090.98 c 37.72,0 73.68,7.5313 106.44,21.1484 34.08,14.1602 64.86,34.9806 90.69,60.8126 25.83,25.828 46.64,56.598 60.81,90.68 13.61,32.757 21.14,68.73 21.14,106.449 v 2483.04 c 0,37.72 -7.53,73.68 -21.14,106.44 -14.17,34.09 -34.98,64.86 -60.81,90.69 -25.83,25.83 -56.61,46.65 -90.68,60.81 -32.77,13.61 -68.72,21.14 -106.45,21.14 H 327.09 v 0" />
      <path
         id="path18"
         style="fill:#e8f6fd;fill-opacity:1;fill-rule:evenodd;stroke:none"
         d="m 327.09,2963.25 c -40.82,0 -79.238,-16.24 -108.063,-45.07 -28.824,-28.82 -45.062,-67.24 -45.062,-108.05 V 327.09 c 0,-40.809 16.238,-79.238 45.062,-108.059 28.821,-28.82 67.246,-45.062 108.063,-45.062 h 2090.98 c 40.81,0 79.24,16.242 108.06,45.062 28.83,28.821 45.07,67.25 45.07,108.059 v 2483.04 c 0,40.81 -16.24,79.23 -45.07,108.05 -28.83,28.83 -67.25,45.07 -108.06,45.07 -696.99,0 -1393.99,0 -2090.98,0" />
      <path
         id="path20"
         style="fill:#3f444f;fill-opacity:1;fill-rule:nonzero;stroke:none"
         d="m 259.551,2973.73 c 21.195,8.83 44.058,13.52 67.539,13.52 h 2090.98 c 23.48,0 46.34,-4.69 67.53,-13.52 21.34,-8.91 40.86,-21.94 57.49,-38.58 16.64,-16.63 29.68,-36.15 38.58,-57.48 8.83,-21.21 13.52,-44.06 13.52,-67.54 V 327.09 c 0,-23.481 -4.69,-46.34 -13.52,-67.539 -8.9,-21.34 -21.94,-40.86 -38.58,-57.492 -16.63,-16.629 -36.14,-29.668 -57.49,-38.571 -21.19,-8.84 -44.05,-13.527 -67.53,-13.527 H 327.09 c -23.477,0 -46.336,4.687 -67.539,13.527 -21.336,8.903 -40.86,21.942 -57.488,38.571 -16.637,16.632 -29.676,36.152 -38.571,57.492 -8.844,21.199 -13.531,44.058 -13.531,67.539 v 2483.04 c 0,23.48 4.687,46.33 13.531,67.54 8.895,21.33 21.934,40.85 38.571,57.48 16.632,16.64 36.156,29.67 57.488,38.58 z m 67.539,-34.48 c -17.207,0 -33.852,-3.39 -49.164,-9.77 -15.41,-6.43 -29.656,-15.98 -41.93,-28.27 -12.281,-12.27 -21.832,-26.51 -28.258,-41.92 -6.386,-15.31 -9.773,-31.96 -9.773,-49.16 V 327.09 c 0,-17.211 3.383,-33.852 9.773,-49.16 6.426,-15.418 15.977,-29.66 28.258,-41.93 12.274,-12.281 26.516,-21.828 41.93,-28.262 15.312,-6.379 31.957,-9.769 49.164,-9.769 h 2090.98 c 17.2,0 33.85,3.39 49.16,9.769 15.42,6.434 29.65,15.981 41.93,28.262 12.28,12.27 21.83,26.512 28.26,41.93 6.38,15.308 9.77,31.949 9.77,49.16 v 2483.04 c 0,17.2 -3.39,33.85 -9.77,49.16 -6.43,15.41 -15.98,29.65 -28.26,41.92 -12.28,12.29 -26.52,21.84 -41.93,28.27 -15.31,6.38 -31.96,9.77 -49.16,9.77 H 327.09 v 0" />
      <path
         id="path22"
         style="fill:#90daf7;fill-opacity:1;fill-rule:evenodd;stroke:none"
         d="m 1012.02,2521.12 c 23.49,21.16 24.41,56.34 2.07,78.58 -22.336,22.24 -59.488,23.11 -82.973,1.96 l -215.719,-195.08 -71.984,77.4 c -21.449,23.08 -58.605,25.33 -82.976,5.01 -24.368,-20.31 -26.739,-55.5 -5.286,-78.57 l 112.387,-120.85 -0.023,-0.04 c 21.472,-23.09 58.66,-25.33 83.047,-4.99 1.667,1.39 3.23,2.86 4.695,4.39 l 256.762,232.19" />
      <path
         id="path24"
         style="fill:#3f444f;fill-opacity:1;fill-rule:nonzero;stroke:none"
         d="m 1031.34,2506.28 c -0.72,-0.72 -1.77,-1.7 -3.23,-3.02 l -0.05,0.05 -255.681,-231.22 c -1.066,-1.1 -2.086,-2.11 -3.027,-2.99 -1.168,-1.09 -2.297,-2.1 -3.368,-2.99 l -0.039,0.04 -0.05,-0.04 c -17.082,-14.25 -38.524,-20.6 -59.356,-19.34 -20.578,1.23 -40.734,9.82 -55.742,25.48 -0.754,0.73 -1.457,1.5 -2.098,2.31 l -111.133,119.49 c -1.101,1.18 -2.07,2.28 -2.894,3.27 l 0.047,0.04 -0.047,0.05 c -13.402,16.08 -19.324,35.71 -18.039,54.91 1.281,19.19 9.73,37.91 25.066,52.17 l 0.043,-0.05 0.055,0.05 c 1.199,1.11 2.32,2.11 3.316,2.93 17.078,14.24 38.5,20.58 59.321,19.32 20.964,-1.26 41.484,-10.17 56.566,-26.39 l 55.895,-60.11 196.796,177.97 c 0.43,0.46 0.875,0.9 1.344,1.32 16.434,14.8 37.617,21.9 58.563,21.4 20.945,-0.49 41.742,-8.61 57.422,-24.21 1.33,-1.32 2.35,-2.38 3.1,-3.21 13.94,-15.47 20.6,-34.82 20.1,-54.06 -0.48,-18.61 -7.66,-36.99 -21.41,-51.55 -0.46,-0.56 -0.95,-1.09 -1.47,-1.62 z m -35.399,32.71 1.356,1.34 c 0.301,0.3 0.613,0.59 0.926,0.88 5.167,5.63 7.857,12.51 8.037,19.37 0.19,7.29 -2.42,14.71 -7.869,20.77 -0.641,0.71 -1.071,1.17 -1.227,1.33 -6.656,6.62 -15.609,10.08 -24.691,10.29 -9.082,0.21 -18.231,-2.83 -25.278,-9.18 -0.441,-0.4 -0.894,-0.78 -1.367,-1.14 L 731.48,2388.81 c -9.726,-8.81 -24.718,-8.14 -33.625,1.44 l -0.042,-0.03 -71.985,77.4 c -6.363,6.84 -15.152,10.61 -24.219,11.16 -9.203,0.56 -18.546,-2.14 -25.839,-8.22 -0.598,-0.5 -1.063,-0.9 -1.383,-1.2 l 0.043,-0.05 c -6.028,-5.6 -9.348,-12.84 -9.84,-20.19 -0.485,-7.32 1.777,-14.82 6.898,-20.99 l 0.043,0.03 c 0.485,-0.57 0.895,-1.05 1.207,-1.38 l 112.391,-120.84 c 0.266,-0.29 0.519,-0.58 0.773,-0.88 6.301,-6.33 14.758,-9.81 23.457,-10.33 9.192,-0.55 18.524,2.14 25.817,8.2 l -0.039,0.04 c 0.593,0.5 1.093,0.93 1.484,1.3 0.559,0.53 1,0.96 1.332,1.3 0.731,0.75 1.496,1.45 2.285,2.09 l 255.703,231.24 0.051,0.04 -0.051,0.05 v 0" />
      <path
         id="path26"
         style="fill:#d4bee4;fill-opacity:1;fill-rule:evenodd;stroke:none"
         d="m 1616.72,2499.6 c -32.49,0 -58.83,-24.96 -58.83,-55.73 0,-30.77 26.34,-55.72 58.83,-55.72 h 529.11 c 32.49,0 58.83,24.95 58.83,55.72 0,30.77 -26.34,55.73 -58.83,55.73 h -529.11" />
      <path
         id="path28"
         style="fill:#3f444f;fill-opacity:1;fill-rule:nonzero;stroke:none"
         d="m 1558.57,2500.67 c 15,14.21 35.58,23 58.15,23 h 529.11 c 22.57,0 43.15,-8.79 58.15,-23 15.29,-14.48 24.76,-34.56 24.76,-56.8 0,-22.23 -9.47,-42.32 -24.76,-56.8 -15,-14.2 -35.58,-23 -58.15,-23 h -529.11 c -22.57,0 -43.15,8.8 -58.15,23 -15.29,14.49 -24.76,34.57 -24.76,56.8 0,22.24 9.47,42.32 24.76,56.8 z m 58.15,-25.15 c -9.91,0 -18.76,-3.69 -25.05,-9.65 -6,-5.67 -9.71,-13.46 -9.71,-22 0,-8.53 3.71,-16.32 9.71,-22 6.29,-5.96 15.14,-9.65 25.05,-9.65 h 529.11 c 9.91,0 18.75,3.69 25.04,9.65 6,5.68 9.72,13.47 9.72,22 0,8.54 -3.71,16.33 -9.72,22 -6.29,5.97 -15.13,9.65 -25.04,9.65 h -529.11 v 0" />
      <path
         id="path30"
         style="fill:#90daf7;fill-opacity:1;fill-rule:evenodd;stroke:none"
         d="m 1012.02,1937.66 c 23.49,21.16 24.41,56.34 2.07,78.58 -22.336,22.24 -59.488,23.12 -82.973,1.96 l -215.719,-195.08 -71.984,77.4 c -21.449,23.08 -58.605,25.33 -82.976,5.01 -24.368,-20.31 -26.739,-55.5 -5.286,-78.58 l 112.387,-120.85 -0.023,-0.03 c 21.472,-23.1 58.66,-25.33 83.047,-5 1.667,1.4 3.23,2.87 4.695,4.39 l 256.762,232.2" />
      <path
         id="path32"
         style="fill:#3f444f;fill-opacity:1;fill-rule:nonzero;stroke:none"
         d="m 1031.34,1922.82 c -0.72,-0.72 -1.77,-1.71 -3.23,-3.02 l -0.05,0.04 -255.673,-231.21 c -1.071,-1.1 -2.09,-2.12 -3.035,-2.99 -1.168,-1.1 -2.297,-2.09 -3.368,-2.99 l -0.039,0.05 -0.05,-0.05 c -17.086,-14.25 -38.524,-20.6 -59.364,-19.35 -20.972,1.26 -41.508,10.17 -56.605,26.4 l 0.015,0.02 c -0.261,0.28 -0.515,0.57 -0.765,0.87 l -111.61,120 c -0.609,0.65 -1.574,1.77 -2.894,3.37 -13.399,16.07 -19.324,35.7 -18.039,54.9 1.281,19.19 9.73,37.91 25.066,52.16 l 0.043,-0.05 0.055,0.05 c 1.199,1.11 2.32,2.11 3.316,2.94 17.075,14.23 38.5,20.57 59.321,19.32 20.961,-1.26 41.484,-10.17 56.566,-26.39 l 55.895,-60.1 196.796,177.96 c 0.43,0.45 0.875,0.89 1.344,1.32 16.434,14.8 37.61,21.89 58.559,21.4 20.949,-0.49 41.746,-8.6 57.426,-24.21 1.33,-1.33 2.35,-2.39 3.1,-3.22 13.94,-15.46 20.6,-34.81 20.1,-54.05 -0.48,-18.61 -7.66,-37 -21.41,-51.56 -0.46,-0.55 -0.95,-1.09 -1.47,-1.61 z m -35.399,32.71 1.356,1.34 c 0.301,0.3 0.613,0.59 0.926,0.87 5.167,5.63 7.857,12.52 8.037,19.37 0.19,7.29 -2.42,14.73 -7.869,20.78 -0.641,0.7 -1.071,1.17 -1.227,1.32 -6.66,6.64 -15.609,10.09 -24.699,10.3 -9.074,0.21 -18.223,-2.83 -25.27,-9.18 -0.441,-0.4 -0.894,-0.78 -1.367,-1.14 L 731.48,1805.34 c -9.726,-8.8 -24.718,-8.12 -33.625,1.45 l -0.042,-0.03 -71.985,77.4 c -6.363,6.84 -15.152,10.61 -24.219,11.16 -9.203,0.55 -18.546,-2.15 -25.839,-8.22 -0.598,-0.5 -1.063,-0.9 -1.383,-1.2 l 0.043,-0.05 c -6.028,-5.61 -9.348,-12.84 -9.84,-20.19 -0.488,-7.34 1.793,-14.87 6.941,-21.05 l 1.207,-1.29 112.391,-120.85 c 0.258,-0.28 0.516,-0.57 0.762,-0.86 6.293,-6.34 14.754,-9.82 23.464,-10.35 9.196,-0.55 18.52,2.14 25.821,8.2 l -0.039,0.04 c 0.593,0.5 1.093,0.94 1.484,1.3 0.559,0.53 1,0.97 1.332,1.31 0.731,0.75 1.496,1.45 2.285,2.09 l 255.703,231.24 0.051,0.04 -0.051,0.05 v 0" />
      <path
         id="path34"
         style="fill:#d4bee4;fill-opacity:1;fill-rule:evenodd;stroke:none"
         d="m 1616.72,1916.13 c -32.49,0 -58.83,-24.94 -58.83,-55.72 0,-30.77 26.34,-55.72 58.83,-55.72 h 529.11 c 32.49,0 58.83,24.95 58.83,55.72 0,30.78 -26.34,55.72 -58.83,55.72 h -529.11" />
      <path
         id="path36"
         style="fill:#3f444f;fill-opacity:1;fill-rule:nonzero;stroke:none"
         d="m 1558.57,1917.21 c 15,14.21 35.58,23 58.15,23 h 529.11 c 22.57,0 43.15,-8.79 58.15,-23 15.29,-14.48 24.76,-34.57 24.76,-56.8 0,-22.24 -9.47,-42.31 -24.76,-56.8 -15,-14.21 -35.58,-22.99 -58.15,-22.99 h -529.11 c -22.57,0 -43.15,8.78 -58.15,22.99 -15.29,14.49 -24.76,34.56 -24.76,56.8 0,22.23 9.47,42.32 24.76,56.8 z m 58.15,-25.15 c -9.91,0 -18.76,-3.69 -25.05,-9.65 -6,-5.68 -9.71,-13.46 -9.71,-22 0,-8.53 3.71,-16.32 9.71,-22 6.29,-5.96 15.14,-9.65 25.05,-9.65 h 529.11 c 9.91,0 18.75,3.69 25.04,9.65 6.01,5.68 9.72,13.47 9.72,22 0,8.54 -3.71,16.32 -9.72,22 -6.29,5.96 -15.13,9.65 -25.04,9.65 h -529.11 v 0" />
      <path
         id="path38"
         style="fill:#90daf7;fill-opacity:1;fill-rule:evenodd;stroke:none"
         d="m 1012.02,1354.2 c 23.49,21.15 24.41,56.34 2.07,78.57 -22.336,22.24 -59.488,23.12 -82.973,1.97 l -215.719,-195.08 -71.984,77.4 c -21.449,23.08 -58.605,25.32 -82.976,5.01 -24.368,-20.32 -26.739,-55.5 -5.286,-78.58 l 112.387,-120.84 -0.023,-0.05 c 21.472,-23.09 58.66,-25.32 83.047,-4.98 1.667,1.38 3.23,2.85 4.695,4.38 l 256.762,232.2" />
      <path
         id="path40"
         style="fill:#3f444f;fill-opacity:1;fill-rule:nonzero;stroke:none"
         d="m 1031.34,1339.36 c -0.72,-0.73 -1.77,-1.71 -3.23,-3.02 l -0.05,0.05 -255.673,-231.21 c -1.071,-1.12 -2.09,-2.12 -3.035,-3.01 -1.168,-1.1 -2.297,-2.09 -3.368,-2.99 l -0.039,0.05 -0.05,-0.05 c -17.082,-14.24 -38.516,-20.6 -59.356,-19.34 -20.578,1.23 -40.734,9.83 -55.742,25.48 -0.754,0.74 -1.457,1.5 -2.098,2.31 l -111.133,119.49 c -1.101,1.18 -2.07,2.28 -2.894,3.27 l 0.047,0.04 -0.047,0.06 c -13.399,16.06 -19.324,35.7 -18.039,54.9 1.281,19.2 9.73,37.91 25.07,52.17 0.645,0.6 1.774,1.57 3.41,2.94 17.078,14.24 38.5,20.57 59.321,19.32 20.964,-1.26 41.484,-10.17 56.566,-26.4 l 55.895,-60.1 196.796,177.97 c 0.43,0.45 0.875,0.89 1.344,1.32 16.434,14.8 37.617,21.89 58.563,21.4 20.945,-0.49 41.742,-8.61 57.422,-24.21 1.34,-1.32 2.35,-2.39 3.1,-3.22 13.94,-15.47 20.6,-34.82 20.1,-54.05 -0.48,-18.61 -7.66,-36.99 -21.41,-51.55 -0.46,-0.56 -0.95,-1.1 -1.47,-1.62 z m -35.399,32.71 1.356,1.33 c 0.301,0.3 0.613,0.59 0.926,0.88 5.167,5.63 7.857,12.52 8.037,19.37 0.19,7.3 -2.42,14.72 -7.869,20.77 -0.641,0.71 -1.071,1.18 -1.227,1.33 -6.66,6.63 -15.609,10.08 -24.691,10.3 -9.082,0.21 -18.231,-2.83 -25.278,-9.18 -0.441,-0.4 -0.894,-0.78 -1.367,-1.15 L 731.48,1221.89 c -9.726,-8.81 -24.718,-8.14 -33.625,1.44 l -0.042,-0.04 -71.985,77.4 c -6.363,6.85 -15.152,10.62 -24.219,11.17 -9.203,0.55 -18.546,-2.14 -25.839,-8.23 l -1.34,-1.24 c -6.028,-5.6 -9.348,-12.85 -9.84,-20.19 -0.485,-7.33 1.777,-14.83 6.898,-21 l 0.043,0.04 c 0.485,-0.58 0.895,-1.04 1.207,-1.39 l 112.391,-120.84 c 0.266,-0.29 0.519,-0.58 0.773,-0.87 6.301,-6.33 14.758,-9.82 23.457,-10.34 9.196,-0.55 18.524,2.14 25.817,8.2 l -0.039,0.05 c 0.593,0.49 1.093,0.92 1.484,1.29 0.559,0.52 1,0.96 1.332,1.3 0.731,0.76 1.496,1.46 2.285,2.09 l 255.703,231.24 0.051,0.05 -0.051,0.05 v 0" />
      <path
         id="path42"
         style="fill:#d4bee4;fill-opacity:1;fill-rule:evenodd;stroke:none"
         d="m 1616.72,1332.68 c -32.49,0 -58.83,-24.95 -58.83,-55.74 0,-30.77 26.34,-55.72 58.83,-55.72 h 529.11 c 32.49,0 58.83,24.95 58.83,55.72 0,30.79 -26.34,55.74 -58.83,55.74 h -529.11" />
      <path
         id="path44"
         style="fill:#3f444f;fill-opacity:1;fill-rule:nonzero;stroke:none"
         d="m 1558.57,1333.75 c 15,14.2 35.58,23 58.15,23 h 529.11 c 22.57,0 43.15,-8.79 58.15,-23 15.29,-14.48 24.76,-34.57 24.76,-56.81 0,-22.22 -9.47,-42.31 -24.76,-56.79 -15,-14.21 -35.58,-23 -58.15,-23 h -529.11 c -22.57,0 -43.15,8.8 -58.15,23 -15.29,14.48 -24.76,34.57 -24.76,56.79 0,22.24 9.47,42.32 24.76,56.81 z m 58.15,-25.16 c -9.91,0 -18.76,-3.69 -25.05,-9.63 -6,-5.69 -9.71,-13.48 -9.71,-22.02 0,-8.53 3.71,-16.31 9.71,-22 6.29,-5.95 15.14,-9.64 25.05,-9.64 h 529.11 c 9.91,0 18.75,3.68 25.04,9.64 6.01,5.69 9.72,13.47 9.72,22 0,8.54 -3.72,16.33 -9.72,22.02 -6.29,5.95 -15.13,9.63 -25.04,9.63 h -529.11 v 0" />
      <path
         id="path46"
         style="fill:#d4bee4;fill-opacity:1;fill-rule:evenodd;stroke:none"
         d="m 2145.83,749.211 h -529.11 c -32.49,0 -58.83,-24.949 -58.83,-55.723 0,-30.769 26.34,-55.726 58.83,-55.726 h 529.11 c 32.49,0 58.83,24.957 58.83,55.726 0,30.774 -26.34,55.723 -58.83,55.723" />
      <path
         id="path48"
         style="fill:#3f444f;fill-opacity:1;fill-rule:nonzero;stroke:none"
         d="m 1616.72,773.281 h 529.11 c 22.57,0 43.15,-8.793 58.15,-23 15.29,-14.48 24.76,-34.57 24.76,-56.793 0,-22.238 -9.47,-42.328 -24.76,-56.808 -15,-14.2 -35.58,-22.989 -58.15,-22.989 h -529.11 c -22.57,0 -43.15,8.789 -58.15,22.989 -15.29,14.492 -24.76,34.57 -24.76,56.808 0,22.231 9.47,42.313 24.76,56.793 15,14.207 35.58,23 58.15,23 z m 529.11,-48.14 h -529.11 c -9.91,0 -18.76,-3.692 -25.05,-9.653 -6,-5.679 -9.71,-13.468 -9.71,-22 0,-8.539 3.71,-16.328 9.71,-22.008 6.29,-5.949 15.14,-9.64 25.05,-9.64 h 529.11 c 9.91,0 18.75,3.691 25.04,9.64 6.01,5.68 9.72,13.469 9.72,22.008 0,8.532 -3.72,16.321 -9.72,22 -6.29,5.961 -15.13,9.653 -25.04,9.653 v 0" />
      <path
         id="path50"
         style="fill:#90daf7;fill-opacity:1;fill-rule:evenodd;stroke:none"
         d="M 755.258,538.539 1012.02,770.73 c 23.49,21.168 24.41,56.352 2.07,78.59 -22.336,22.231 -59.488,23.102 -82.973,1.95 L 715.398,656.191 643.414,733.59 c -21.449,23.082 -58.605,25.332 -82.976,5.012 -24.368,-20.313 -26.739,-55.493 -5.286,-78.571 l 112.387,-120.851 -0.023,-0.039 c 21.472,-23.09 58.66,-25.321 83.047,-4.993 1.667,1.403 3.23,2.864 4.695,4.391" />
      <path
         id="path52"
         style="fill:#3f444f;fill-opacity:1;fill-rule:nonzero;stroke:none"
         d="M 1028.06,752.922 772.387,521.711 c -1.071,-1.102 -2.09,-2.121 -3.035,-3 -0.668,-0.621 -1.797,-1.602 -3.457,-2.992 -17.086,-14.239 -38.524,-20.59 -59.364,-19.34 -20.972,1.262 -41.508,10.16 -56.605,26.391 l 0.015,0.019 c -0.261,0.293 -0.515,0.582 -0.765,0.871 l -111.61,120 c -1.101,1.18 -2.07,2.281 -2.894,3.27 l 0.047,0.039 -0.047,0.051 c -13.399,16.082 -19.324,35.71 -18.039,54.902 1.281,19.199 9.73,37.918 25.07,52.18 0.645,0.597 1.774,1.57 3.41,2.929 17.075,14.239 38.5,20.578 59.321,19.328 20.961,-1.269 41.484,-10.168 56.566,-26.398 l 55.895,-60.102 196.796,177.961 c 0.43,0.461 0.875,0.899 1.344,1.321 16.434,14.808 37.617,21.898 58.563,21.41 20.945,-0.5 41.742,-8.621 57.422,-24.211 1.33,-1.328 2.37,-2.399 3.1,-3.211 13.94,-15.469 20.6,-34.828 20.1,-54.07 -0.5,-19.258 -8.17,-38.289 -22.88,-53.071 -1.32,-1.328 -2.39,-2.359 -3.23,-3.117 z m -287.822,-195.641 255.703,231.231 0.051,0.047 -0.051,0.043 c 0.723,0.66 1.204,1.097 1.348,1.238 5.781,5.808 8.781,13.09 8.971,20.359 0.19,7.281 -2.43,14.711 -7.877,20.762 -0.653,0.73 -1.063,1.18 -1.219,1.34 -6.66,6.621 -15.609,10.07 -24.691,10.289 -9.082,0.199 -18.231,-2.828 -25.278,-9.18 -0.441,-0.398 -0.894,-0.781 -1.367,-1.14 L 731.48,638.422 c -9.726,-8.813 -24.718,-8.141 -33.625,1.437 l -0.042,-0.039 -71.985,77.41 c -6.363,6.84 -15.152,10.61 -24.219,11.161 -9.203,0.558 -18.546,-2.141 -25.839,-8.211 l -1.34,-1.25 c -6.028,-5.61 -9.348,-12.86 -9.84,-20.2 -0.485,-7.308 1.777,-14.808 6.898,-20.992 l 0.043,0.032 c 0.485,-0.571 0.895,-1.04 1.207,-1.372 L 685.129,555.551 c 0.258,-0.289 0.516,-0.571 0.762,-0.86 6.293,-6.339 14.754,-9.832 23.464,-10.351 9.215,-0.551 18.571,2.148 25.875,8.238 l 1.391,1.301 c 0.559,0.519 1,0.949 1.332,1.312 0.731,0.75 1.496,1.438 2.285,2.09 v 0" />
      <path
         id="path54"
         style="fill:#b493d0;fill-opacity:1;fill-rule:evenodd;stroke:none"
         d="m 1372.58,3479.38 c -78.32,0 -141.8,-63.49 -141.8,-141.8 0,-78.32 63.48,-141.8 141.8,-141.8 78.31,0 141.79,63.48 141.79,141.8 0,78.31 -63.48,141.8 -141.79,141.8 z M 452.59,3355.11 h 544.562 c 10.758,198.03 174.718,355.29 375.428,355.29 200.71,0 364.66,-157.26 375.41,-355.29 h 544.57 V 2809.34 H 452.59 v 545.77 0" />
      <path
         id="path56"
         style="fill:#3f444f;fill-opacity:1;fill-rule:nonzero;stroke:none"
         d="m 1455.87,3420.88 c -21.3,21.31 -50.76,34.49 -83.29,34.49 -32.54,0 -61.99,-13.18 -83.3,-34.49 -21.31,-21.31 -34.5,-50.77 -34.5,-83.3 0,-32.53 13.19,-61.99 34.5,-83.3 21.31,-21.31 50.76,-34.5 83.3,-34.5 32.53,0 61.99,13.19 83.29,34.5 21.31,21.31 34.51,50.77 34.51,83.3 0,32.53 -13.2,61.99 -34.51,83.3 z m -83.29,82.5 c -45.78,0 -87.24,-18.56 -117.24,-48.57 -30,-30 -48.56,-71.45 -48.56,-117.23 0,-45.78 18.56,-87.23 48.56,-117.23 30,-30.01 71.46,-48.57 117.24,-48.57 45.77,0 87.23,18.56 117.23,48.57 30,30 48.56,71.45 48.56,117.23 0,45.78 -18.56,87.23 -48.56,117.23 -30,30.01 -71.46,48.57 -117.23,48.57 z M 997.152,3331.11 H 476.586 V 2833.34 H 2268.56 v 497.77 h -520.57 v 0.07 c -12.66,-0.01 -23.25,9.92 -23.89,22.71 -5.05,92.96 -46.15,176.32 -109.54,236.32 -63.01,59.62 -148.18,96.19 -241.98,96.19 -93.82,0 -178.98,-36.57 -241.98,-96.19 -63.05,-59.67 -104.03,-142.44 -109.45,-234.79 l 0.01,-0.31 c 0,-13.25 -10.75,-24 -24.008,-24 z m -544.562,48 h 522.555 c 10.753,96.43 55.785,182.51 122.635,245.78 71.73,67.88 168.46,109.51 274.8,109.51 106.33,0 203.06,-41.63 274.79,-109.51 66.85,-63.27 111.88,-149.35 122.63,-245.78 h 522.56 c 13.26,0 24.01,-10.75 24.01,-24 v -545.77 c 0,-13.25 -10.75,-24 -24.01,-24 H 452.59 c -13.258,0 -24.004,10.75 -24.004,24 v 545.77 c 0,13.25 10.746,24 24.004,24 v 0" />
      <path
         id="path58"
         style="fill:#d4bee4;fill-opacity:1;fill-rule:evenodd;stroke:none"
         d="M 2292.56,3089.49 V 2809.34 H 452.59 v 280.15 h 1839.97" />
      <path
         id="path60"
         style="fill:#3f444f;fill-opacity:1;fill-rule:nonzero;stroke:none"
         d="m 2268.56,2833.34 v 232.14 H 476.586 v -232.14 z m 48.01,256.15 v -280.15 c 0,-13.25 -10.75,-24 -24.01,-24 H 452.59 c -13.258,0 -24.004,10.75 -24.004,24 v 280.15 c 0,13.25 10.746,24 24.004,24 h 1839.97 c 13.26,0 24.01,-10.75 24.01,-24 v 0" />
    </g>
  </g>
</svg>
