<?xml version="1.0" encoding="UTF-8" standalone="no"?>
<!-- Created with Inkscape (http://www.inkscape.org/) -->

<svg
   width="210mm"
   height="297mm"
   viewBox="0 0 210 297"
   version="1.1"
   id="svg94512"
   inkscape:version="1.1.1 (3bf5ae0d25, 2021-09-20)"
   sodipodi:docname="plan_white.svg"
   inkscape:export-filename="C:\Users\rdbog\Documents\Food Optimisation\Quanteco-HQ.github.io\assets\images\qe\plan_white.png"
   inkscape:export-xdpi="106.98915"
   inkscape:export-ydpi="106.98915"
   xmlns:inkscape="http://www.inkscape.org/namespaces/inkscape"
   xmlns:sodipodi="http://sodipodi.sourceforge.net/DTD/sodipodi-0.dtd"
   xmlns="http://www.w3.org/2000/svg"
   xmlns:svg="http://www.w3.org/2000/svg">
  <sodipodi:namedview
     id="namedview94514"
     pagecolor="#ffffff"
     bordercolor="#666666"
     borderopacity="1.0"
     inkscape:pageshadow="2"
     inkscape:pageopacity="0.0"
     inkscape:pagecheckerboard="0"
     inkscape:document-units="mm"
     showgrid="false"
     inkscape:zoom="5.8725028"
     inkscape:cx="1.1068535"
     inkscape:cy="-1.5325663"
     inkscape:window-width="958"
     inkscape:window-height="1000"
     inkscape:window-x="953"
     inkscape:window-y="0"
     inkscape:window-maximized="0"
     inkscape:current-layer="layer5" />
  <defs
     id="defs94509" />
  <g
     inkscape:groupmode="layer"
     id="layer5"
     inkscape:label="Layer 2" />
  <g
     inkscape:label="Layer 1"
     inkscape:groupmode="layer"
     id="layer1">
    <path
       id="path14"
       style="fill:#ffffff;fill-opacity:1;fill-rule:evenodd;stroke:none;stroke-width:0.0120939"
       d="m 3.9550781,7.5117188 c -1.0087054,0 -1.9238496,0.4120948 -2.5878906,1.0761718 C 0.70320584,9.251968 0.29101562,10.16898 0.29101562,11.177734 v 30.029297 c 0,1.008756 0.41214305,1.92577 1.07617188,2.589844 0.664041,0.663934 1.5791852,1.076172 2.5878906,1.076172 H 29.244141 c 1.008754,0 1.925887,-0.412238 2.589843,-1.076172 0.664198,-0.664074 1.076172,-1.581088 1.076172,-2.589844 V 11.177734 c 0,-1.008754 -0.411974,-1.925766 -1.076172,-2.5898434 -0.663956,-0.664077 -1.581089,-1.0761719 -2.589843,-1.0761718 z m 0,1.8144531 H 29.244141 c 0.493553,0 0.957971,0.1962529 1.30664,0.5449219 0.34867,0.3485472 0.544922,0.8130872 0.544922,1.3066402 v 30.029297 c 0,0.493542 -0.196253,0.958093 -0.544922,1.306641 -0.348547,0.348552 -0.813087,0.546875 -1.30664,0.546875 H 3.9550781 c -0.4936374,0 -0.9580816,-0.198327 -1.3066406,-0.546875 C 2.2998425,42.165113 2.1035156,41.700573 2.1035156,41.207031 V 11.177734 c 0,-0.493553 0.1963266,-0.958092 0.5449219,-1.3066402 0.3486073,-0.348666 0.8129669,-0.5449219 1.3066406,-0.5449219 z"
       transform="scale(0.26458333)" />
    <path
       id="path16"
       style="fill:#ffffff;fill-opacity:1;fill-rule:nonzero;stroke:none;stroke-width:0.00319985"
       d="M 0.64722086,1.9905628 C 0.77065187,1.9393013 0.90562155,1.9109186 1.0466389,1.9109186 h 6.6908224 c 0.1409854,0 0.2759551,0.028383 0.3994053,0.079644 0.128186,0.053309 0.2435725,0.1311939 0.339984,0.2275734 0.096379,0.096411 0.1742959,0.2117661 0.2275734,0.339984 0.051262,0.1234183 0.079644,0.2583879 0.079644,0.3994053 v 7.9453557 c 0,0.141017 -0.028383,0.275987 -0.079644,0.399405 -0.053278,0.128222 -0.1311939,0.243579 -0.2275734,0.339948 -0.096412,0.09645 -0.211798,0.17433 -0.339984,0.22764 -0.1234502,0.05126 -0.2584199,0.07965 -0.3994053,0.07965 H 1.0466389 c -0.14100775,0 -0.27597423,-0.02839 -0.39940524,-0.07965 C 0.51903807,11.816564 0.40366748,11.73868 0.307248,11.642234 0.21085252,11.545865 0.13295633,11.430508 0.07967115,11.302286 0.02837368,11.178868 0,11.043898 0,10.902881 V 2.9575255 C 0,2.8165081 0.02837368,2.6815385 0.07967115,2.5581202 0.13295633,2.4299023 0.21085252,2.3145477 0.307248,2.2181362 0.40366748,2.1217567 0.51902527,2.0438723 0.64722086,1.9905628 Z m 0.39941804,0.073949 c -0.1207335,0 -0.23579051,0.024095 -0.3406208,0.067645 -0.10903488,0.04531 -0.20751667,0.1119308 -0.29016239,0.1945829 -0.0826713,0.082652 -0.14928069,0.1811115 -0.19460368,0.2901944 -0.0435602,0.1048271 -0.0676467,0.2198937 -0.0676467,0.340592 v 7.9453559 c 0,0.120695 0.0240865,0.235803 0.0676467,0.340621 0.045323,0.109057 0.11193235,0.207517 0.19460368,0.290162 0.0826457,0.08266 0.18112751,0.149281 0.29017519,0.194591 0.10481749,0.04357 0.2198873,0.06767 0.340608,0.06767 h 6.6908224 c 0.1206983,0 0.2357649,-0.0241 0.340592,-0.06767 0.1090509,-0.04531 0.2075423,-0.111932 0.2901944,-0.194591 0.082652,-0.08264 0.149241,-0.181105 0.1945829,-0.290162 0.04355,-0.104818 0.067645,-0.219926 0.067645,-0.340621 V 2.9575255 c 0,-0.1206983 -0.024095,-0.2357649 -0.067645,-0.340592 C 8.5174887,2.5078506 8.4508998,2.4093912 8.3682477,2.3267391 8.2855956,2.244087 8.1871042,2.1774661 8.0780853,2.1321562 7.9732262,2.0886063 7.8581916,2.0645114 7.7374613,2.0645114 H 1.0466389 v 0" />
    <path
       id="path20"
       style="fill:#ffffff;fill-opacity:1;fill-rule:nonzero;stroke:none;stroke-width:0.00319985"
       d="m 0.83052427,2.4340301 c 0.0678208,-0.028255 0.14097899,-0.043262 0.21611463,-0.043262 h 6.6908224 c 0.075133,0 0.148281,0.015007 0.2160859,0.043262 0.068285,0.028511 0.1307458,0.070205 0.1839593,0.1234502 0.053245,0.053214 0.094972,0.1156745 0.1234502,0.1839274 0.028255,0.067869 0.043262,0.1409853 0.043262,0.2161178 v 7.9453555 c 0,0.07514 -0.015007,0.148281 -0.043262,0.216115 -0.028479,0.06829 -0.070205,0.130746 -0.1234502,0.183966 -0.053214,0.05321 -0.1156425,0.09493 -0.1839593,0.123421 -0.067805,0.02829 -0.1409534,0.04328 -0.2160859,0.04328 H 1.0466389 c -0.0751228,0 -0.14826821,-0.015 -0.21611463,-0.04328 -0.068272,-0.02849 -0.13074587,-0.07021 -0.18395298,-0.123421 -0.0532359,-0.05322 -0.0949587,-0.115681 -0.12342141,-0.183966 -0.0282995,-0.06783 -0.0432972,-0.140979 -0.0432972,-0.216115 V 2.9575255 c 0,-0.075133 0.0149977,-0.148249 0.0432972,-0.2161178 0.0284627,-0.068253 0.0701855,-0.1307139 0.12342141,-0.1839274 0.0532199,-0.053246 0.11569378,-0.09494 0.18395298,-0.1234502 z M 1.0466389,2.5443609 c -0.0550598,0 -0.10832129,0.010848 -0.15731739,0.031262 -0.0493097,0.020575 -0.0948948,0.051134 -0.13416971,0.09046 -0.0392974,0.039262 -0.0698591,0.084828 -0.0904214,0.1341377 -0.0204342,0.04899 -0.0312721,0.1022672 -0.0312721,0.1573046 v 7.9453558 c 0,0.05507 0.0108251,0.108321 0.0312721,0.157305 0.0205622,0.04934 0.051124,0.09491 0.0904214,0.134169 0.039275,0.0393 0.0848472,0.06985 0.13416971,0.09043 0.0489961,0.02041 0.10225761,0.03126 0.15731739,0.03126 h 6.6908224 c 0.055037,0 0.1083149,-0.01085 0.1573046,-0.03126 0.049342,-0.02059 0.094876,-0.05114 0.1341697,-0.09043 0.039294,-0.03926 0.069853,-0.08483 0.090428,-0.134169 0.020415,-0.04898 0.031263,-0.102232 0.031263,-0.157305 V 2.9575255 c 0,-0.055037 -0.010847,-0.1083149 -0.031263,-0.1573046 -0.020575,-0.04931 -0.051134,-0.094876 -0.090428,-0.1341377 -0.039294,-0.039326 -0.08486,-0.069885 -0.1341697,-0.09046 -0.04899,-0.020415 -0.1022672,-0.031262 -0.1573046,-0.031262 H 1.0466389 v 0" />
    <path
       id="path22"
       style="fill:#ffffff;fill-opacity:1;fill-rule:evenodd;stroke:none;stroke-width:0.00319985"
       d="M 3.2383122,3.8823142 C 3.3134767,3.8146053 3.3164205,3.7020346 3.2449359,3.63087 3.173464,3.5597053 3.0545832,3.5569214 2.9794347,3.6245982 L 2.2891663,4.248825 2.0588283,4.0011566 C 1.9901947,3.9273041 1.8713011,3.9201044 1.7933175,3.9851253 1.7153436,4.0501143 1.7077567,4.162717 1.7764031,4.2365376 l 0.3596216,0.3867018 -7.36e-5,1.28e-4 c 0.068707,0.073885 0.1877032,0.081052 0.2657379,0.015967 0.00533,-0.00445 0.010335,-0.00915 0.015023,-0.014047 L 3.2383122,3.8823142" />
    <path
       id="path24"
       style="fill:#ffffff;fill-opacity:1;fill-rule:nonzero;stroke:none;stroke-width:0.00319985"
       d="m 3.3001333,3.9297999 c -0.0023,0.0023 -0.00566,0.00544 -0.010336,0.00966 l -1.6e-4,-1.6e-4 -0.8181409,0.7398693 c -0.00341,0.00352 -0.00667,0.00675 -0.00969,0.00957 -0.00374,0.00349 -0.00735,0.00672 -0.010777,0.00957 l -1.248e-4,-1.28e-4 -1.6e-4,1.28e-4 c -0.05466,0.045598 -0.123271,0.065917 -0.1899303,0.061885 -0.065847,-0.00394 -0.1303427,-0.031422 -0.178366,-0.081532 -0.00241,-0.00234 -0.00466,-0.0048 -0.00671,-0.00739 L 1.7201306,4.2889191 c -0.00352,-0.00378 -0.00662,-0.0073 -0.00926,-0.010464 l 1.504e-4,-1.28e-4 -1.504e-4,-1.6e-4 C 1.6679858,4.226714 1.6490363,4.163901 1.6531481,4.1024638 c 0.0041,-0.061405 0.031135,-0.1213063 0.080207,-0.1669361 l 1.376e-4,1.6e-4 1.76e-4,-1.6e-4 c 0.00384,-0.00355 0.00742,-0.00675 0.010611,-0.00938 0.054647,-0.045566 0.1231943,-0.065853 0.1898183,-0.061821 0.067082,0.00403 0.1327426,0.032542 0.1810028,0.084444 L 2.2939565,4.141118 2.9236741,3.5716407 c 0.00138,-0.00147 0.0028,-0.00288 0.0043,-0.00422 0.052586,-0.047358 0.1203688,-0.070077 0.1873929,-0.068477 0.067021,0.00157 0.1335681,0.027551 0.1837417,0.077468 0.00426,0.00422 0.00752,0.00762 0.00992,0.010271 0.044606,0.049502 0.065917,0.1114188 0.064317,0.1729839 -0.00154,0.059549 -0.024511,0.1183625 -0.068509,0.1649523 -0.00147,0.00179 -0.00304,0.00349 -0.0047,0.00518 z m -0.1132715,-0.1046671 0.00434,-0.00429 c 9.632e-4,-9.599e-4 0.00196,-0.00189 0.00296,-0.00282 0.016534,-0.018015 0.025141,-0.04003 0.025717,-0.061981 6.079e-4,-0.023327 -0.00774,-0.04707 -0.02518,-0.066461 -0.00205,-0.00227 -0.00343,-0.00374 -0.00393,-0.00426 -0.021298,-0.021183 -0.049946,-0.032255 -0.079007,-0.032926 -0.029061,-6.719e-4 -0.058336,0.00906 -0.080886,0.029375 -0.00141,0.00128 -0.00286,0.0025 -0.00437,0.00365 L 2.3406263,4.3056863 c -0.031122,0.028191 -0.079094,0.026047 -0.107595,-0.00461 l -1.344e-4,9.6e-5 -0.2303412,-0.2476684 c -0.020361,-0.021887 -0.048484,-0.03395 -0.077497,-0.03571 -0.029448,-0.00179 -0.059345,0.00685 -0.082681,0.026303 -0.00191,0.0016 -0.0034,0.00288 -0.00443,0.00384 l 1.376e-4,1.6e-4 c -0.019289,0.017919 -0.029912,0.041086 -0.031487,0.064605 -0.00155,0.023423 0.00569,0.047422 0.022073,0.067165 l 1.376e-4,-9.6e-5 c 0.00155,0.00182 0.00286,0.00336 0.00386,0.00442 L 2.19231,4.5708579 c 8.512e-4,9.279e-4 0.00166,0.00186 0.00247,0.00282 0.020162,0.020255 0.047223,0.031391 0.075059,0.033054 0.029413,0.00176 0.059274,-0.00685 0.08261,-0.026239 l -1.248e-4,-1.28e-4 c 0.0019,-0.0016 0.0035,-0.00298 0.00475,-0.00416 0.00179,-0.0017 0.0032,-0.00307 0.00426,-0.00416 0.00234,-0.0024 0.00479,-0.00464 0.00731,-0.00669 l 0.8182112,-0.7399333 1.632e-4,-1.28e-4 -1.632e-4,-1.6e-4 v 0" />
    <path
       id="path26"
       style="fill:#ffffff;fill-opacity:1;fill-rule:evenodd;stroke:none;stroke-width:0.00319985"
       d="m 5.1732615,3.9511749 c -0.1039631,0 -0.1882472,0.079868 -0.1882472,0.1783277 0,0.098459 0.084284,0.1782956 0.1882472,0.1782956 h 1.6930726 c 0.1039632,0 0.1882472,-0.079836 0.1882472,-0.1782956 0,-0.098459 -0.084284,-0.1783277 -0.1882472,-0.1783277 H 5.1732615" />
    <path
       id="path28"
       style="fill:#ffffff;fill-opacity:1;fill-rule:nonzero;stroke:none;stroke-width:0.00319985"
       d="m 4.9871902,3.9477511 c 0.047998,-0.04547 0.1138507,-0.073597 0.1860713,-0.073597 h 1.6930726 c 0.072221,0 0.1380736,0.028127 0.1860713,0.073597 0.048926,0.046334 0.079228,0.1105868 0.079228,0.1817515 0,0.071133 -0.030303,0.1354176 -0.079228,0.1817515 -0.047998,0.045438 -0.1138507,0.073596 -0.1860713,0.073596 H 5.1732615 c -0.072221,0 -0.1380735,-0.028159 -0.1860713,-0.073596 -0.048926,-0.046366 -0.079228,-0.1106189 -0.079228,-0.1817515 0,-0.071165 0.030303,-0.1354177 0.079228,-0.1817515 z m 0.1860713,0.080476 c -0.03171,0 -0.060029,0.011807 -0.080156,0.030879 -0.019199,0.018143 -0.031071,0.04307 -0.031071,0.070397 0,0.027295 0.011871,0.052221 0.031071,0.070397 0.020127,0.019071 0.048446,0.030879 0.080156,0.030879 h 1.6930726 c 0.03171,0 0.059997,-0.011807 0.080124,-0.030879 0.019199,-0.018175 0.031103,-0.043102 0.031103,-0.070397 0,-0.027327 -0.011871,-0.052254 -0.031103,-0.070397 -0.020127,-0.019103 -0.048414,-0.030879 -0.080124,-0.030879 H 5.1732615 v 0" />
    <path
       id="path30"
       style="fill:#ffffff;fill-opacity:1;fill-rule:evenodd;stroke:none;stroke-width:0.00319985"
       d="m 3.2383122,5.7492986 c 0.075164,-0.067709 0.078108,-0.1802795 0.00662,-0.2514442 -0.071472,-0.071165 -0.1903527,-0.07398 -0.2655012,-0.00627 L 2.2891663,6.1158095 2.0588283,5.8681411 C 1.9901947,5.7942885 1.8713011,5.7870889 1.7933175,5.8521098 1.7153436,5.9170988 1.7077567,6.0297015 1.7764031,6.103554 l 0.3596216,0.3867019 -7.36e-5,9.6e-5 c 0.068707,0.073916 0.1877032,0.081052 0.2657379,0.015999 0.00533,-0.00448 0.010335,-0.00918 0.015023,-0.014047 L 3.2383122,5.7492986" />
    <path
       id="path32"
       style="fill:#ffffff;fill-opacity:1;fill-rule:nonzero;stroke:none;stroke-width:0.00319985"
       d="m 3.3001333,5.7967844 c -0.0023,0.0023 -0.00566,0.00547 -0.010336,0.00966 l -1.6e-4,-1.28e-4 -0.8181153,0.7398373 c -0.00343,0.00352 -0.00669,0.00678 -0.00971,0.00957 -0.00374,0.00352 -0.00735,0.00669 -0.010777,0.00957 l -1.248e-4,-1.6e-4 -1.6e-4,1.6e-4 C 2.3960765,6.6108903 2.3274781,6.6312093 2.2607932,6.6272095 2.193686,6.6231777 2.1279738,6.594667 2.0796657,6.5427335 l 4.8e-5,-6.4e-5 c -8.352e-4,-8.96e-4 -0.00165,-0.00182 -0.00245,-0.00278 L 1.7201306,6.1559036 c -0.00195,-0.00208 -0.00504,-0.00566 -0.00926,-0.010784 -0.042875,-0.051422 -0.061834,-0.1142347 -0.057722,-0.1756718 0.0041,-0.061405 0.031135,-0.1213063 0.080207,-0.1669041 l 1.376e-4,1.599e-4 1.76e-4,-1.599e-4 c 0.00384,-0.00355 0.00742,-0.00675 0.010611,-0.00941 0.054638,-0.045534 0.1231943,-0.065821 0.1898183,-0.061821 0.067072,0.00403 0.1327426,0.032542 0.1810028,0.084444 l 0.1788556,0.192311 0.6297176,-0.5694453 c 0.00138,-0.00144 0.0028,-0.00285 0.0043,-0.00422 0.052586,-0.047358 0.1203464,-0.070045 0.1873801,-0.068477 0.067034,0.00157 0.1335809,0.027519 0.1837545,0.077468 0.00426,0.00426 0.00752,0.00765 0.00992,0.010304 0.044606,0.04947 0.065917,0.1113868 0.064317,0.1729519 -0.00154,0.059549 -0.024511,0.1183944 -0.068509,0.1649843 -0.00147,0.00176 -0.00304,0.00349 -0.0047,0.00515 z m -0.1132715,-0.1046671 0.00434,-0.00429 c 9.632e-4,-9.599e-4 0.00196,-0.00189 0.00296,-0.00278 0.016534,-0.018015 0.025141,-0.040062 0.025717,-0.061981 6.079e-4,-0.023327 -0.00774,-0.047134 -0.02518,-0.066493 -0.00205,-0.00224 -0.00343,-0.00374 -0.00393,-0.00422 -0.021311,-0.021247 -0.049946,-0.032286 -0.079033,-0.032959 -0.029035,-6.719e-4 -0.058311,0.00906 -0.08086,0.029375 -0.00141,0.00128 -0.00286,0.0025 -0.00437,0.00365 L 2.3406263,6.1727028 c -0.031122,0.028159 -0.079094,0.025983 -0.107595,-0.00464 l -1.344e-4,9.6e-5 -0.2303412,-0.2476684 c -0.020361,-0.021887 -0.048484,-0.03395 -0.077497,-0.03571 -0.029448,-0.00176 -0.059345,0.00688 -0.082681,0.026303 -0.00191,0.0016 -0.0034,0.00288 -0.00443,0.00384 l 1.376e-4,1.6e-4 c -0.019289,0.017951 -0.029912,0.041086 -0.031487,0.064605 -0.00156,0.023487 0.00574,0.047582 0.02221,0.067357 l 0.00386,0.00413 0.3596343,0.3867019 c 8.256e-4,8.959e-4 0.00165,0.00182 0.00244,0.00275 0.020137,0.020287 0.047211,0.031423 0.075081,0.033119 0.029426,0.00176 0.059261,-0.00685 0.082623,-0.026239 l -1.248e-4,-1.28e-4 c 0.0019,-0.0016 0.0035,-0.00301 0.00475,-0.00416 0.00179,-0.0017 0.0032,-0.0031 0.00426,-0.00419 0.00234,-0.0024 0.00479,-0.00464 0.00731,-0.00669 L 3.186853,5.692406 3.1870162,5.692278 3.186853,5.692118 v 0" />
    <path
       id="path34"
       style="fill:#ffffff;fill-opacity:1;fill-rule:evenodd;stroke:none;stroke-width:0.00319985"
       d="m 5.1732615,5.8181914 c -0.1039631,0 -0.1882472,0.079804 -0.1882472,0.1782957 0,0.098459 0.084284,0.1782956 0.1882472,0.1782956 h 1.6930726 c 0.1039632,0 0.1882472,-0.079836 0.1882472,-0.1782956 0,-0.098491 -0.084284,-0.1782957 -0.1882472,-0.1782957 H 5.1732615" />
    <path
       id="path36"
       style="fill:#ffffff;fill-opacity:1;fill-rule:nonzero;stroke:none;stroke-width:0.00319985"
       d="M 4.9871902,5.8147356 C 5.035188,5.7692657 5.1010409,5.741139 5.1732615,5.741139 h 1.6930726 c 0.072221,0 0.1380736,0.028127 0.1860713,0.073597 0.048926,0.046334 0.079228,0.1106188 0.079228,0.1817515 0,0.071165 -0.030303,0.1353856 -0.079228,0.1817514 -0.047998,0.04547 -0.1138507,0.073565 -0.1860713,0.073565 H 5.1732615 c -0.072221,0 -0.1380735,-0.028095 -0.1860713,-0.073565 -0.048926,-0.046366 -0.079228,-0.1105868 -0.079228,-0.1817514 0,-0.071133 0.030303,-0.1354177 0.079228,-0.1817519 z m 0.1860713,0.080476 c -0.03171,0 -0.060029,0.011807 -0.080156,0.030879 -0.019199,0.018175 -0.031071,0.04307 -0.031071,0.070397 0,0.027295 0.011871,0.052221 0.031071,0.070397 0.020127,0.019071 0.048446,0.030879 0.080156,0.030879 h 1.6930726 c 0.03171,0 0.059997,-0.011807 0.080124,-0.030879 0.019231,-0.018175 0.031103,-0.043102 0.031103,-0.070397 0,-0.027327 -0.011871,-0.052222 -0.031103,-0.070397 -0.020127,-0.019071 -0.048414,-0.030879 -0.080124,-0.030879 H 5.1732615 v 0" />
    <path
       id="path38"
       style="fill:#ffffff;fill-opacity:1;fill-rule:evenodd;stroke:none;stroke-width:0.00319985"
       d="m 3.2383122,7.6162831 c 0.075164,-0.067677 0.078108,-0.1802795 0.00662,-0.2514122 -0.071472,-0.071165 -0.1903527,-0.07398 -0.2655012,-0.0063 L 2.2891663,7.9827939 2.0588283,7.7351256 C 1.9901947,7.661273 1.8713011,7.6541054 1.7933175,7.7190943 1.7153436,7.7841153 1.7077567,7.896686 1.7764031,7.9705385 l 0.3596216,0.3866699 -7.36e-5,1.6e-4 c 0.068707,0.073885 0.1877032,0.08102 0.2657379,0.015935 0.00533,-0.00442 0.010335,-0.00912 0.015023,-0.014015 L 3.2383122,7.6162831" />
    <path
       id="path40"
       style="fill:#ffffff;fill-opacity:1;fill-rule:nonzero;stroke:none;stroke-width:0.00319985"
       d="m 3.3001333,7.6637689 c -0.0023,0.00234 -0.00566,0.00547 -0.010336,0.00966 l -1.6e-4,-1.6e-4 -0.8181153,0.7398373 c -0.00343,0.00358 -0.00669,0.00678 -0.00971,0.00963 -0.00374,0.00352 -0.00735,0.00669 -0.010777,0.00957 l -1.248e-4,-1.6e-4 -1.6e-4,1.6e-4 c -0.05466,0.045566 -0.1232454,0.065917 -0.1899303,0.061885 -0.065847,-0.00394 -0.1303427,-0.031455 -0.178366,-0.081532 -0.00241,-0.00237 -0.00466,-0.0048 -0.00671,-0.00739 L 1.720135,8.0229192 c -0.00352,-0.00378 -0.00662,-0.0073 -0.00926,-0.010464 l 1.504e-4,-1.28e-4 -1.504e-4,-1.92e-4 C 1.668,7.9607452 1.649041,7.8979005 1.653153,7.8364634 c 0.0041,-0.061437 0.031135,-0.1213063 0.08022,-0.1669362 0.00206,-0.00192 0.00568,-0.00502 0.010911,-0.00941 0.054647,-0.045566 0.1231943,-0.065821 0.1898183,-0.061821 0.067082,0.00403 0.1327426,0.032542 0.1810028,0.084476 L 2.2939565,7.875087 2.9236741,7.3056097 c 0.00138,-0.00144 0.0028,-0.00285 0.0043,-0.00422 0.052586,-0.047358 0.1203688,-0.070045 0.1873929,-0.068477 0.067021,0.00157 0.1335681,0.027551 0.1837417,0.077468 0.00429,0.00422 0.00752,0.00765 0.00992,0.010304 0.044606,0.049502 0.065917,0.1114188 0.064317,0.1729519 -0.00154,0.059549 -0.024511,0.1183624 -0.068509,0.1649522 -0.00147,0.00179 -0.00304,0.00352 -0.0047,0.00518 z m -0.1132715,-0.1046671 0.00434,-0.00426 c 9.632e-4,-9.599e-4 0.00196,-0.00189 0.00296,-0.00282 0.016534,-0.018015 0.025141,-0.040062 0.025717,-0.061981 6.079e-4,-0.023359 -0.00774,-0.047102 -0.02518,-0.066461 -0.00205,-0.00227 -0.00343,-0.00378 -0.00393,-0.00426 -0.021311,-0.021215 -0.049946,-0.032254 -0.079007,-0.032959 -0.029061,-6.72e-4 -0.058336,0.00906 -0.080886,0.029375 -0.00141,0.00128 -0.00286,0.0025 -0.00437,0.00368 L 2.3406263,8.0396553 c -0.031122,0.028191 -0.079094,0.026047 -0.107595,-0.00461 l -1.344e-4,1.28e-4 -0.2303412,-0.2476684 c -0.020361,-0.021919 -0.048484,-0.033982 -0.077497,-0.035742 -0.029448,-0.00176 -0.059345,0.00685 -0.082681,0.026335 l -0.00429,0.00397 c -0.019289,0.017919 -0.029912,0.041118 -0.031487,0.064605 -0.00155,0.023455 0.00569,0.047454 0.022073,0.067197 l 1.376e-4,-1.28e-4 c 0.00155,0.00186 0.00286,0.00333 0.00386,0.00445 L 2.19231,8.3048589 c 8.512e-4,9.279e-4 0.00166,0.00186 0.00247,0.00278 0.020162,0.020255 0.047223,0.031422 0.075059,0.033086 0.029426,0.00176 0.059274,-0.00685 0.08261,-0.026239 l -1.248e-4,-1.6e-4 c 0.0019,-0.00157 0.0035,-0.00294 0.00475,-0.00413 0.00179,-0.00166 0.0032,-0.00307 0.00426,-0.00416 0.00234,-0.00243 0.00479,-0.00467 0.00731,-0.00669 l 0.8182112,-0.7399333 1.632e-4,-1.6e-4 -1.632e-4,-1.6e-4 v 0" />
    <path
       id="path42"
       style="fill:#ffffff;fill-opacity:1;fill-rule:evenodd;stroke:none;stroke-width:0.00319985"
       d="m 5.1732615,7.6851439 c -0.1039631,0 -0.1882472,0.079836 -0.1882472,0.1783596 0,0.098459 0.084284,0.1782957 0.1882472,0.1782957 h 1.6930726 c 0.1039632,0 0.1882472,-0.079836 0.1882472,-0.1782957 0,-0.098523 -0.084284,-0.1783596 -0.1882472,-0.1783596 H 5.1732615" />
    <path
       id="path44"
       style="fill:#ffffff;fill-opacity:1;fill-rule:nonzero;stroke:none;stroke-width:0.00319985"
       d="m 4.9871902,7.6817201 c 0.047998,-0.045438 0.1138507,-0.073597 0.1860713,-0.073597 h 1.6930726 c 0.072221,0 0.1380736,0.028127 0.1860713,0.073597 0.048926,0.046334 0.079228,0.1106188 0.079228,0.1817834 0,0.071101 -0.030303,0.1353857 -0.079228,0.1817195 C 7.0044074,8.090693 6.9385547,8.11882 6.8663341,8.11882 H 5.1732615 c -0.072221,0 -0.1380735,-0.028159 -0.1860713,-0.073597 -0.048926,-0.046334 -0.079228,-0.1106188 -0.079228,-0.1817195 0,-0.071165 0.030303,-0.1354176 0.079228,-0.1817834 z m 0.1860713,0.080508 c -0.03171,0 -0.060029,0.011807 -0.080156,0.030814 -0.019199,0.018207 -0.031071,0.043134 -0.031071,0.070461 0,0.027295 0.011871,0.05219 0.031071,0.070397 0.020127,0.019039 0.048446,0.030847 0.080156,0.030847 h 1.6930726 c 0.03171,0 0.059997,-0.011776 0.080124,-0.030847 0.019231,-0.018207 0.031103,-0.043102 0.031103,-0.070397 0,-0.027327 -0.011903,-0.052253 -0.031103,-0.070461 -0.020127,-0.019039 -0.048414,-0.030814 -0.080124,-0.030814 H 5.1732615 v 0" />
    <path
       id="path46"
       style="fill:#ffffff;fill-opacity:1;fill-rule:evenodd;stroke:none;stroke-width:0.00319985"
       d="M 6.8663341,9.5521572 H 5.1732615 c -0.1039631,0 -0.1882472,0.079833 -0.1882472,0.1783052 0,0.098456 0.084284,0.1783149 0.1882472,0.1783149 h 1.6930726 c 0.1039632,0 0.1882472,-0.079859 0.1882472,-0.1783149 0,-0.098472 -0.084284,-0.1783052 -0.1882472,-0.1783052" />
    <path
       id="path48"
       style="fill:#ffffff;fill-opacity:1;fill-rule:nonzero;stroke:none;stroke-width:0.00319985"
       d="m 5.1732615,9.4751368 h 1.6930726 c 0.072221,0 0.1380736,0.028136 0.1860713,0.073597 0.048926,0.046334 0.079228,0.1106189 0.079228,0.1817291 0,0.071158 -0.030303,0.1354433 -0.079228,0.1817771 C 7.0044074,9.957678 6.9385547,9.985801 6.8663341,9.985801 H 5.1732615 c -0.072221,0 -0.1380735,-0.028123 -0.1860713,-0.073561 -0.048926,-0.046372 -0.079228,-0.1106188 -0.079228,-0.1817771 0,-0.071136 0.030303,-0.1353952 0.079228,-0.1817291 0.047998,-0.04546 0.1138507,-0.073597 0.1860713,-0.073597 z M 6.8663341,9.6291776 H 5.1732615 c -0.03171,0 -0.060029,0.011814 -0.080156,0.030888 -0.019199,0.018172 -0.031071,0.043096 -0.031071,0.070397 0,0.027323 0.011871,0.052247 0.031071,0.070422 0.020127,0.019036 0.048446,0.030847 0.080156,0.030847 h 1.6930726 c 0.03171,0 0.059997,-0.011811 0.080124,-0.030847 0.019231,-0.018175 0.031103,-0.043099 0.031103,-0.070422 0,-0.027301 -0.011903,-0.052225 -0.031103,-0.070397 -0.020127,-0.019074 -0.048414,-0.030888 -0.080124,-0.030888 v 0" />
    <path
       id="path50"
       style="fill:#ffffff;fill-opacity:1;fill-rule:evenodd;stroke:none;stroke-width:0.00319985"
       d="M 2.4167123,10.226276 3.2383122,9.4832996 C 3.3134767,9.4155652 3.3164205,9.3029817 3.2449359,9.2318234 3.173464,9.1606875 3.0545832,9.1579005 2.9794347,9.2255837 L 2.2891663,9.8498072 2.0588283,9.602142 C 1.9901947,9.5282831 1.8713011,9.5210834 1.7933175,9.5861044 1.7153436,9.6511029 1.7077567,9.7636737 1.7764031,9.8375198 l 0.3596216,0.3867052 -7.36e-5,1.25e-4 c 0.068707,0.07388 0.1877032,0.08102 0.2657379,0.01598 0.00533,-0.0045 0.010335,-0.0092 0.015023,-0.01405" />
    <path
       id="path52"
       style="fill:#ffffff;fill-opacity:1;fill-rule:nonzero;stroke:none;stroke-width:0.00319985"
       d="M 3.2896378,9.5402825 2.4715225,10.280123 c -0.00343,0.0035 -0.00669,0.0068 -0.00971,0.0096 -0.00214,0.002 -0.00575,0.0051 -0.011062,0.0096 -0.054673,0.04556 -0.123271,0.06588 -0.1899559,0.06189 -0.067107,-0.004 -0.1328194,-0.03251 -0.1811275,-0.08445 l 4.8e-5,-6e-5 c -8.352e-4,-9.38e-4 -0.00165,-0.0019 -0.00245,-0.0028 L 1.7201306,9.8899045 c -0.00352,-0.00378 -0.00662,-0.0073 -0.00926,-0.010464 l 1.504e-4,-1.248e-4 -1.504e-4,-1.631e-4 c -0.042875,-0.05146 -0.061834,-0.1142667 -0.057722,-0.1756782 0.0041,-0.061434 0.031135,-0.1213319 0.08022,-0.1669682 0.00206,-0.00191 0.00568,-0.00502 0.010911,-0.00937 0.054638,-0.045563 0.1231943,-0.065847 0.1898183,-0.061847 0.067072,0.00406 0.1327426,0.032536 0.1810028,0.08447 L 2.2939565,9.7420747 2.9236741,9.1726262 c 0.00138,-0.00148 0.0028,-0.00288 0.0043,-0.00423 0.052586,-0.047383 0.1203688,-0.07007 0.1873929,-0.068509 0.067021,0.0016 0.1335681,0.027586 0.1837417,0.077472 0.00426,0.00425 0.00758,0.00768 0.00992,0.010275 0.044606,0.049498 0.065917,0.1114443 0.064317,0.1730159 -0.0016,0.061623 -0.026143,0.122519 -0.073213,0.1698192 -0.00422,0.00425 -0.00765,0.00755 -0.010336,0.00997 z M 2.3686506,10.166304 3.1868618,9.4263999 3.187025,9.4262495 3.1868618,9.4261119 c 0.00231,-0.00211 0.00385,-0.00351 0.00431,-0.00396 0.018498,-0.018585 0.028098,-0.041886 0.028706,-0.065146 6.079e-4,-0.023298 -0.00778,-0.047073 -0.025205,-0.066435 -0.00209,-0.00234 -0.0034,-0.00378 -0.0039,-0.00429 -0.021311,-0.021186 -0.049946,-0.032222 -0.079007,-0.032923 -0.029061,-6.368e-4 -0.058336,0.00905 -0.080886,0.029375 -0.00141,0.00127 -0.00286,0.0025 -0.00437,0.00365 L 2.3406263,9.9066654 c -0.031122,0.0282 -0.079094,0.02605 -0.107595,-0.0046 L 2.2328969,9.902192 2.0025557,9.6544916 c -0.020361,-0.021887 -0.048484,-0.03395 -0.077497,-0.035713 -0.029448,-0.00179 -0.059345,0.00685 -0.082681,0.026274 l -0.00429,0.004 c -0.019289,0.017951 -0.029912,0.04115 -0.031487,0.064637 -0.00155,0.023385 0.00569,0.047383 0.022073,0.067171 l 1.376e-4,-1.024e-4 c 0.00155,0.00183 0.00286,0.00333 0.00386,0.00439 L 2.19231,10.17184 c 8.256e-4,9.25e-4 0.00165,0.0018 0.00244,0.0028 0.020137,0.02028 0.047211,0.03146 0.075081,0.03312 0.029487,0.0018 0.059424,-0.0069 0.082796,-0.02636 l 0.00445,-0.0042 c 0.00179,-0.0017 0.0032,-0.003 0.00426,-0.0042 0.00234,-0.0024 0.00479,-0.0046 0.00731,-0.0067 v 0" />
    <path
       id="path54"
       style="fill:#ffffff;fill-opacity:1;fill-rule:evenodd;stroke:none;stroke-width:0.00319985"
       d="m 4.3920501,0.81602591 c -0.2506122,0 -0.4537387,0.20315849 -0.4537387,0.45373869 0,0.2506123 0.2031265,0.4537388 0.4537387,0.4537388 0.2505803,0 0.4537067,-0.2031265 0.4537067,-0.4537388 0,-0.2505802 -0.2031264,-0.45373869 -0.4537067,-0.45373869 z m -2.94383,0.39764539 h 1.7425167 c 0.034424,-0.63366633 0.5590714,-1.13687474 1.2013133,-1.13687474 0.6422419,0 1.1668573,0.50320841 1.2012557,1.13687474 h 1.7425423 v 1.7463821 h -5.887628 v -1.7463821 0" />
    <path
       id="path56"
       style="fill:#ffffff;fill-opacity:1;fill-rule:nonzero;stroke:none;stroke-width:0.00319985"
       d="M 4.6585656,1.0032171 C 4.5904088,0.93502833 4.4961412,0.89285431 4.3920501,0.89285431 c -0.1041231,0 -0.1983587,0.042174 -0.2665475,0.11036279 -0.068189,0.068189 -0.1103948,0.1624564 -0.1103948,0.2665475 0,0.1040912 0.042206,0.1983587 0.1103948,0.2665475 0.068189,0.068189 0.1624244,0.1103949 0.2665475,0.1103949 0.1040911,0 0.1983587,-0.042206 0.2665155,-0.1103949 0.068189,-0.068189 0.1104268,-0.1624563 0.1104268,-0.2665475 0,-0.1040911 -0.042238,-0.1983587 -0.1104268,-0.2665475 z M 4.3920501,0.73922951 c -0.1464891,0 -0.2791549,0.0593892 -0.3751504,0.15541671 C 3.9209042,0.99064172 3.861515,1.1232755 3.861515,1.2697646 c 0,0.1464892 0.059389,0.279123 0.1553847,0.3751185 0.095995,0.096028 0.2286613,0.1554167 0.3751504,0.1554167 0.1464571,0 0.2791229,-0.059389 0.3751184,-0.1554167 0.095995,-0.095995 0.1553847,-0.2286293 0.1553847,-0.3751185 0,-0.1464891 -0.059389,-0.27912288 -0.1553847,-0.37511838 C 4.671173,0.79861872 4.5385072,0.73922951 4.3920501,0.73922951 Z M 3.1907368,1.2904677 H 1.5250037 V 2.883257 h 5.734048 V 1.2904677 H 5.5933058 v -2.24e-4 c -0.04051,3.2e-5 -0.074397,-0.031743 -0.076444,-0.072669 C 5.5007021,0.92011703 5.3691883,0.65337753 5.1663498,0.46138653 4.9647273,0.27061147 4.692196,0.15359296 4.3920501,0.15359296 c -0.3002099,0 -0.5727091,0.11701851 -0.7742997,0.30779357 C 3.4159999,0.65232158 3.28487,0.91717317 3.2675268,1.2126793 l 3.2e-5,9.92e-4 c 0,0.042398 -0.034398,0.076796 -0.076822,0.076796 z M 1.4482201,1.1368749 H 3.1203177 C 3.1547257,0.82831333 3.2988214,0.55287024 3.5127313,0.35041573 3.7422566,0.13320992 4.0517781,1.6e-7 4.3920501,1.6e-7 c 0.3402401,0 0.6497616,0.13320976 0.8792868,0.35041557 0.21391,0.20245451 0.3579992,0.4778976 0.3923976,0.78645917 h 1.6721136 c 0.04243,0 0.076828,0.034398 0.076828,0.076796 V 2.960053 c 0,0.042398 -0.034398,0.076796 -0.076828,0.076796 h -5.887628 c -0.042424,0 -0.076809,-0.034398 -0.076809,-0.076796 V 1.2136713 c 0,-0.042398 0.034386,-0.076796 0.076809,-0.076796 v 0" />
    <path
       id="path58"
       style="fill:#ffffff;fill-opacity:1;fill-rule:evenodd;stroke:none;stroke-width:0.00319985"
       d="m 7.3358481,2.0636154 v 0.896438 h -5.887628 v -0.896438 h 5.887628" />
    <path
       id="path60"
       style="fill:#ffffff;fill-opacity:1;fill-rule:nonzero;stroke:none;stroke-width:0.00319985"
       d="M 7.2590517,2.883257 V 2.1404438 H 1.5250037 V 2.883257 Z M 7.4126765,2.0636154 v 0.896438 c 0,0.042398 -0.034398,0.076796 -0.076828,0.076796 h -5.887628 c -0.042424,0 -0.076809,-0.034398 -0.076809,-0.076796 v -0.896438 c 0,-0.042398 0.034386,-0.076796 0.076809,-0.076796 h 5.887628 c 0.04243,0 0.076828,0.034398 0.076828,0.076796 v 0" />
  </g>
</svg>
