<?xml version="1.0" encoding="UTF-8" standalone="no"?>
<!-- Created with Inkscape (http://www.inkscape.org/) -->

<svg
   width="210mm"
   height="297mm"
   viewBox="0 0 210 297"
   version="1.1"
   id="svg81134"
   inkscape:version="1.1.1 (3bf5ae0d25, 2021-09-20)"
   sodipodi:docname="search.svg"
   xmlns:inkscape="http://www.inkscape.org/namespaces/inkscape"
   xmlns:sodipodi="http://sodipodi.sourceforge.net/DTD/sodipodi-0.dtd"
   xmlns="http://www.w3.org/2000/svg"
   xmlns:svg="http://www.w3.org/2000/svg">
  <sodipodi:namedview
     id="namedview81136"
     pagecolor="#ffffff"
     bordercolor="#666666"
     borderopacity="1.0"
     inkscape:pageshadow="2"
     inkscape:pageopacity="0.0"
     inkscape:pagecheckerboard="0"
     inkscape:document-units="mm"
     showgrid="false"
     inkscape:zoom="0.73406285"
     inkscape:cx="124.64873"
     inkscape:cy="201.61761"
     inkscape:window-width="958"
     inkscape:window-height="1000"
     inkscape:window-x="-7"
     inkscape:window-y="0"
     inkscape:window-maximized="0"
     inkscape:current-layer="layer1" />
  <defs
     id="defs81131" />
  <g
     inkscape:label="Layer 1"
     inkscape:groupmode="layer"
     id="layer1">
    <g
       id="g80072"
       transform="matrix(0.73088137,0,0,0.73088137,-83.061335,-63.748949)">
      <path
         id="path1346"
         style="fill:#626a6e;fill-opacity:1;fill-rule:evenodd;stroke:none;stroke-width:0.133333"
         d="m 121.42411,96.358017 -1.50133,1.501333 c -0.19734,0.196 -0.51467,0.196 -0.712,0 -0.196,-0.196 -0.196,-0.516 0,-0.710667 l 1.50266,-1.502666 c 0.19467,-0.196 0.51334,-0.196 0.71067,0 0.196,0.197333 0.196,0.514666 0,0.712" />
      <path
         id="path1348"
         style="fill:#013668;fill-opacity:1;fill-rule:nonzero;stroke:none;stroke-width:0.133333"
         d="m 121.49744,96.43135 -1.50133,1.502667 c -0.11867,0.117333 -0.27467,0.177333 -0.43067,0.177333 -0.15466,0 -0.30933,-0.06 -0.42933,-0.177333 -0.11733,-0.12 -0.17733,-0.274667 -0.17733,-0.430667 0,-0.154667 0.06,-0.310667 0.17733,-0.429333 l 1.50267,-1.501333 c 0.11866,-0.118667 0.27466,-0.177334 0.42933,-0.177334 0.15467,0 0.31067,0.05867 0.42933,0.177334 0.11867,0.118666 0.17734,0.274666 0.17734,0.429333 0,0.156 -0.0587,0.310666 -0.17734,0.429333 z m -1.64933,1.353333 1.50133,-1.501333 c 0.0773,-0.07733 0.116,-0.178667 0.116,-0.281333 0,-0.101333 -0.0387,-0.204 -0.116,-0.281333 -0.0773,-0.07733 -0.18,-0.116 -0.28133,-0.116 -0.10267,0 -0.204,0.03867 -0.28133,0.116 l -1.50134,1.501333 c -0.0773,0.07733 -0.11733,0.18 -0.11733,0.281333 0,0.102667 0.04,0.204 0.11733,0.281333 0.0773,0.07867 0.17867,0.117334 0.28,0.117334 0.10267,0 0.20534,-0.03867 0.28267,-0.117334" />
      <path
         id="path1350"
         style="fill:#626a6e;fill-opacity:1;fill-rule:evenodd;stroke:none;stroke-width:0.133333"
         d="m 124.71744,97.622017 c 1.31734,0 2.63467,-0.502667 3.64,-1.508 1.00534,-1.005333 1.50667,-2.322667 1.50667,-3.638667 0,-1.318666 -0.50133,-2.636 -1.50667,-3.641333 -1.00533,-1.004 -2.32266,-1.506667 -3.64,-1.506667 -1.31866,0 -2.63466,0.502667 -3.64,1.506667 -1.00533,1.005333 -1.508,2.322667 -1.508,3.641333 0,1.212 0.42534,2.422667 1.27734,3.393334 0.0733,0.084 0.15066,0.165333 0.23066,0.245333 0.0387,0.04 0.0787,0.07733 0.11867,0.116 0.98933,0.928 2.25467,1.392 3.52133,1.392 z m 0,-1.005334 c -1.056,0 -2.064,-0.397333 -2.832,-1.119999 -0.0333,-0.032 -0.0653,-0.06267 -0.0973,-0.09333 -0.064,-0.06533 -0.12667,-0.130666 -0.18667,-0.198666 -0.664,-0.757334 -1.02666,-1.724 -1.02666,-2.729334 0,-1.104 0.43333,-2.150666 1.21333,-2.929333 0.78,-0.781333 1.82533,-1.214667 2.92933,-1.214667 1.10267,0 2.148,0.433334 2.92934,1.214667 0.77866,0.778667 1.212,1.825333 1.212,2.929333 0,1.101334 -0.43334,2.146667 -1.212,2.928 -0.78134,0.778667 -1.82667,1.213333 -2.92934,1.213333" />
      <path
         id="path1352"
         style="fill:#013668;fill-opacity:1;fill-rule:nonzero;stroke:none;stroke-width:0.133333"
         d="m 124.71744,97.518017 c 0.65734,0 1.316,-0.129334 1.932,-0.384 0.59334,-0.245334 1.14934,-0.610667 1.63334,-1.093333 0.48266,-0.484 0.848,-1.041334 1.09466,-1.634667 0.25467,-0.616 0.38267,-1.273333 0.38267,-1.930667 0,-0.658666 -0.128,-1.317333 -0.38267,-1.933333 -0.24666,-0.593333 -0.612,-1.150667 -1.09466,-1.633333 -0.484,-0.484 -1.04,-0.848 -1.63334,-1.094667 -0.616,-0.254667 -1.27466,-0.382667 -1.932,-0.382667 -0.65866,0 -1.316,0.128 -1.93333,0.382667 -0.592,0.246667 -1.14933,0.610667 -1.632,1.094667 -0.484,0.482666 -0.84933,1.04 -1.09467,1.633333 -0.256,0.616 -0.38266,1.274667 -0.38266,1.933333 0,0.602667 0.10666,1.206667 0.32266,1.778667 0.208,0.554667 0.51734,1.078667 0.928,1.545333 0.0333,0.03867 0.0707,0.08 0.11067,0.121334 0.0347,0.03733 0.072,0.076 0.116,0.12 0.0267,0.02667 0.0453,0.04667 0.0573,0.056 0.0173,0.01867 0.0373,0.03733 0.0587,0.05733 0.47467,0.446666 1.01733,0.782666 1.592,1.009333 0.59467,0.234667 1.22667,0.354667 1.85733,0.354667 z m 2.012,-0.190667 c -0.644,0.266667 -1.328,0.398667 -2.012,0.398667 -0.65733,0 -1.31466,-0.122667 -1.93466,-0.368 -0.59734,-0.236 -1.16267,-0.586667 -1.65867,-1.053334 -0.0187,-0.01733 -0.0387,-0.03733 -0.0613,-0.05733 -0.028,-0.028 -0.048,-0.048 -0.06,-0.06 -0.0373,-0.036 -0.076,-0.07733 -0.11867,-0.122667 -0.0373,-0.04 -0.0773,-0.08267 -0.116,-0.127999 -0.428,-0.486667 -0.74933,-1.033334 -0.96667,-1.609334 -0.22533,-0.596 -0.33733,-1.225333 -0.33733,-1.852 0,-0.685333 0.13467,-1.369333 0.4,-2.013333 0.256,-0.618667 0.636,-1.198667 1.13867,-1.701333 0.50266,-0.502667 1.08266,-0.882667 1.70266,-1.14 0.64267,-0.265334 1.328,-0.398667 2.012,-0.398667 0.684,0 1.368,0.133333 2.012,0.398667 0.62,0.257333 1.19867,0.637333 1.70134,1.14 0.50266,0.502666 0.88266,1.082666 1.13866,1.701333 0.26667,0.644 0.4,1.328 0.4,2.013333 0,0.682667 -0.13333,1.368 -0.4,2.010667 -0.256,0.62 -0.636,1.2 -1.13866,1.701333 -0.50267,0.504 -1.08134,0.882667 -1.70134,1.14 z m -2.012,-0.816 c -0.51466,0 -1.01866,-0.09733 -1.48666,-0.281333 -0.468,-0.185333 -0.9,-0.457333 -1.27467,-0.809333 -0.0173,-0.01733 -0.0333,-0.032 -0.048,-0.04533 -0.007,-0.0067 -0.0227,-0.02267 -0.0453,-0.04667 -0.0347,-0.03467 -0.0667,-0.06667 -0.092,-0.09467 -0.0333,-0.03467 -0.0627,-0.06667 -0.0907,-0.09733 -0.324,-0.369334 -0.57333,-0.789334 -0.74267,-1.238667 -0.16933,-0.450667 -0.25733,-0.932 -0.25733,-1.422667 0,-0.538666 0.10533,-1.064 0.30533,-1.546666 0.20134,-0.484 0.496,-0.929334 0.87734,-1.309334 0.38,-0.38 0.82533,-0.676 1.308,-0.877333 0.48533,-0.2 1.008,-0.305333 1.54666,-0.305333 0.53867,0 1.06134,0.105333 1.54534,0.305333 0.484,0.201333 0.92933,0.497333 1.30933,0.877333 0.38,0.38 0.676,0.825334 0.876,1.309334 0.20133,0.482666 0.30667,1.008 0.30667,1.546666 0,0.537334 -0.10534,1.061334 -0.30667,1.545334 -0.2,0.482666 -0.496,0.928 -0.876,1.308 -0.38,0.381333 -0.82533,0.676 -1.30933,0.877333 -0.484,0.2 -1.00667,0.305333 -1.54534,0.305333 z m 1.624,-0.113333 c -0.50933,0.212 -1.06,0.322666 -1.624,0.322666 -0.54266,0 -1.07066,-0.101333 -1.56266,-0.296 -0.492,-0.194666 -0.94667,-0.481333 -1.34134,-0.851999 -0.016,-0.01467 -0.032,-0.03067 -0.0507,-0.048 -0.024,-0.024 -0.04,-0.03867 -0.0493,-0.048 -0.028,-0.02933 -0.0613,-0.06267 -0.096,-0.1 -0.0307,-0.03333 -0.0613,-0.06667 -0.0947,-0.104 -0.34,-0.388 -0.60267,-0.828 -0.78134,-1.301334 -0.17733,-0.474666 -0.27066,-0.981333 -0.27066,-1.496 0,-0.566666 0.11066,-1.117333 0.32133,-1.626666 0.212,-0.509334 0.52267,-0.977334 0.92133,-1.377334 0.4,-0.398666 0.868,-0.710666 1.37867,-0.921333 0.50933,-0.212 1.06,-0.322667 1.62533,-0.322667 0.564,0 1.11467,0.110667 1.624,0.322667 0.51067,0.210667 0.97867,0.522667 1.37867,0.921333 0.39867,0.4 0.70933,0.868 0.92133,1.377334 0.212,0.509333 0.32267,1.06 0.32267,1.626666 0,0.564 -0.11067,1.114667 -0.32267,1.624 -0.212,0.510667 -0.52266,0.977334 -0.92133,1.377334 -0.4,0.4 -0.868,0.710666 -1.37867,0.921333" />
      <path
         id="path1354"
         style="fill:#629cff;fill-opacity:1;fill-rule:evenodd;stroke:none;stroke-width:0.133333"
         d="m 126.97211,95.016684 c 0.94667,-0.762667 1.276,-2.074667 0.79467,-3.2 -0.216,0.02533 -0.42934,0.09333 -0.62667,0.208 -0.0467,0.02667 -0.0907,0.05467 -0.13333,0.08533 0.34933,0.785333 0.12933,1.708 -0.52134,2.252 0.0227,0.05333 0.0507,0.105333 0.08,0.157333 0.112,0.192 0.25067,0.358667 0.40667,0.497334" />
      <path
         id="path1356"
         style="fill:#013668;fill-opacity:1;fill-rule:nonzero;stroke:none;stroke-width:0.133333"
         d="m 126.97611,94.878017 c 0.41733,-0.362667 0.7,-0.837333 0.828,-1.353333 0.128,-0.517334 0.1,-1.074667 -0.10267,-1.593334 -0.076,0.01333 -0.152,0.032 -0.22666,0.056 -0.0973,0.03333 -0.19334,0.07467 -0.28267,0.126667 v 0.0013 c -0.0187,0.01067 -0.0387,0.02133 -0.056,0.03333 0.15333,0.390666 0.17867,0.806666 0.088,1.197333 -0.092,0.394667 -0.3,0.76 -0.60933,1.042667 l 0.001,0.004 c 0.0147,0.03067 0.0293,0.05467 0.04,0.07333 0.052,0.09067 0.11067,0.176 0.17467,0.253333 0.0453,0.056 0.0947,0.109334 0.14533,0.158667 z m 1.03067,-1.302667 c -0.14534,0.585334 -0.47734,1.125334 -0.96934,1.522667 l -0.068,0.056 -0.0667,-0.05867 c -0.084,-0.07467 -0.16134,-0.156 -0.23467,-0.244 -0.0693,-0.08667 -0.13467,-0.18 -0.192,-0.281333 -0.0187,-0.032 -0.0347,-0.05867 -0.0467,-0.08133 -0.0107,-0.02133 -0.024,-0.04933 -0.04,-0.08267 l -0.0333,-0.072 0.0627,-0.052 c 0.308,-0.257333 0.51466,-0.605333 0.60133,-0.982667 0.0867,-0.374666 0.056,-0.777333 -0.10933,-1.146666 l -0.0347,-0.07867 0.0693,-0.04933 c 0.024,-0.016 0.0467,-0.03333 0.0693,-0.04667 0.0227,-0.01467 0.0467,-0.02933 0.072,-0.044 v 0 c 0.10533,-0.06 0.21333,-0.109333 0.32266,-0.145333 0.11334,-0.03733 0.228,-0.06267 0.34534,-0.076 l 0.0773,-0.0093 0.0307,0.072 c 0.24933,0.582667 0.28933,1.213334 0.144,1.8" />
      <path
         id="path1358"
         style="fill:#a1e6ef;fill-opacity:1;fill-rule:evenodd;stroke:none;stroke-width:0.133333"
         d="m 126.48544,94.362017 c 0.65067,-0.544 0.87067,-1.466667 0.52134,-2.252 0.0427,-0.03067 0.0867,-0.05867 0.13333,-0.08533 0.19733,-0.114667 0.41067,-0.182667 0.62667,-0.208 0.48133,1.125333 0.152,2.437333 -0.79467,3.2 -0.156,-0.138667 -0.29467,-0.305334 -0.40667,-0.497334 -0.0293,-0.052 -0.0573,-0.104 -0.08,-0.157333 z m -1.768,2.254666 c 1.10267,0 2.148,-0.434666 2.92934,-1.213333 0.77866,-0.781333 1.212,-1.826666 1.212,-2.928 0,-1.104 -0.43334,-2.150666 -1.212,-2.929333 -0.78134,-0.781333 -1.82667,-1.214667 -2.92934,-1.214667 -1.104,0 -2.14933,0.433334 -2.92933,1.214667 -0.78,0.778667 -1.21333,1.825333 -1.21333,2.929333 0,1.005334 0.36266,1.972 1.02666,2.729334 0.06,0.068 0.12267,0.133333 0.18667,0.198666 0.032,0.03067 0.064,0.06133 0.0973,0.09333 0.768,0.722666 1.776,1.119999 2.832,1.119999" />
      <path
         id="path1360"
         style="fill:#013668;fill-opacity:1;fill-rule:nonzero;stroke:none;stroke-width:0.133333"
         d="m 127.83211,91.70335 -0.0773,0.0093 c -0.11734,0.01333 -0.232,0.03867 -0.34534,0.076 -0.10933,0.036 -0.21733,0.08533 -0.32266,0.145333 -0.0267,0.016 -0.052,0.03067 -0.072,0.044 -0.0227,0.01333 -0.0453,0.03067 -0.0693,0.04667 l -0.0693,0.04933 0.0347,0.07867 c 0.16533,0.369333 0.196,0.772 0.10933,1.146666 -0.0867,0.377334 -0.29333,0.725334 -0.60133,0.982667 l -0.0627,0.052 0.0333,0.072 c 0.0147,0.03067 0.0293,0.05867 0.04,0.08267 v 0 c 0.012,0.02267 0.028,0.05067 0.0467,0.08133 0.0573,0.101333 0.12267,0.194667 0.192,0.281333 0.0733,0.088 0.15067,0.169334 0.23467,0.244 l 0.0667,0.05867 0.068,-0.056 c 0.492,-0.397333 0.824,-0.937333 0.96934,-1.522667 0.14533,-0.586666 0.10533,-1.217333 -0.144,-1.8 z m -0.028,1.821334 c -0.128,0.516 -0.41067,0.990666 -0.828,1.353333 -0.0507,-0.04933 -0.1,-0.102667 -0.14533,-0.158667 -0.064,-0.07733 -0.12267,-0.162666 -0.17467,-0.253333 -0.0107,-0.01867 -0.0253,-0.044 -0.04,-0.07333 l -0.003,-0.004 c 0.31067,-0.282667 0.51867,-0.648 0.61067,-1.042667 0.0907,-0.390667 0.0653,-0.806667 -0.088,-1.197333 0.02,-0.01333 0.0387,-0.024 0.0547,-0.03333 0.0907,-0.05333 0.18666,-0.09467 0.284,-0.128 0.0747,-0.024 0.15066,-0.04267 0.22666,-0.056 0.20267,0.518667 0.23067,1.076 0.10267,1.593334" />
      <path
         id="path1362"
         style="fill:#013668;fill-opacity:1;fill-rule:nonzero;stroke:none;stroke-width:0.133333"
         d="m 128.64144,90.848684 c -0.212,-0.509334 -0.52266,-0.977334 -0.92133,-1.377334 -0.4,-0.398666 -0.868,-0.710666 -1.37867,-0.921333 -0.508,-0.210667 -1.05866,-0.322667 -1.624,-0.322667 -0.56533,0 -1.116,0.112 -1.62533,0.322667 -0.51067,0.210667 -0.97867,0.522667 -1.37867,0.921333 -0.39866,0.4 -0.70933,0.868 -0.92133,1.377334 -0.21067,0.509333 -0.32133,1.06 -0.32133,1.626666 0,0.514667 0.0933,1.021334 0.27066,1.496 0.17867,0.473334 0.44134,0.913334 0.78134,1.301334 0.0333,0.03733 0.064,0.07067 0.0947,0.104 0.0347,0.03733 0.068,0.07067 0.096,0.1 0.009,0.0093 0.0253,0.024 0.0493,0.048 0.0187,0.01733 0.0347,0.03333 0.0507,0.048 0.39467,0.370666 0.84934,0.657333 1.34134,0.851999 0.492,0.194667 1.02,0.296 1.56266,0.296 0.564,0 1.11467,-0.110666 1.624,-0.322666 0.51067,-0.210667 0.97867,-0.521333 1.37867,-0.921333 0.39867,-0.4 0.70933,-0.866667 0.92133,-1.377334 0.212,-0.509333 0.32267,-1.06 0.32267,-1.624 0,-0.566666 -0.11067,-1.117333 -0.32267,-1.626666 z m -0.19333,3.172 c -0.2,0.482666 -0.496,0.928 -0.876,1.308 -0.38,0.381333 -0.82533,0.676 -1.30933,0.877333 -0.484,0.2 -1.00667,0.305333 -1.54534,0.305333 -0.51466,0 -1.01866,-0.09733 -1.48666,-0.281333 -0.468,-0.185333 -0.9,-0.457333 -1.27467,-0.809333 -0.016,-0.01733 -0.032,-0.032 -0.0467,-0.04533 -0.008,-0.0067 -0.024,-0.02267 -0.0467,-0.04667 -0.0347,-0.03467 -0.0667,-0.06667 -0.092,-0.096 -0.0333,-0.03333 -0.0627,-0.06533 -0.0907,-0.096 -0.324,-0.369334 -0.57333,-0.789334 -0.74267,-1.238667 -0.16933,-0.450667 -0.25733,-0.932 -0.25733,-1.422667 0,-0.538666 0.10533,-1.064 0.30533,-1.546666 0.20134,-0.484 0.496,-0.929334 0.87734,-1.309334 0.38,-0.38 0.82533,-0.676 1.308,-0.877333 0.48533,-0.2 1.00933,-0.305333 1.54666,-0.305333 0.53734,0 1.06134,0.105333 1.54534,0.305333 0.484,0.201333 0.92933,0.497333 1.30933,0.877333 0.38,0.38 0.676,0.825334 0.876,1.309334 0.20133,0.482666 0.30667,1.008 0.30667,1.546666 0,0.537334 -0.10534,1.061334 -0.30667,1.545334" />
      <path
         id="path1364"
         style="fill:#d47b60;fill-opacity:1;fill-rule:nonzero;stroke:none;stroke-width:0.133333"
         d="m 120.71744,98.250017 -1.776,-1.774667 c -0.0973,-0.09867 -0.25733,-0.09867 -0.356,0 l -4.76266,4.76133 c -0.0973,0.0973 -0.0973,0.25867 0,0.356 l 1.776,1.776 c 0.0973,0.0973 0.25733,0.0973 0.35466,0 l 4.764,-4.762663 c 0.0973,-0.09867 0.0973,-0.257334 0,-0.356" />
      <path
         id="path1366"
         style="fill:#013668;fill-opacity:1;fill-rule:nonzero;stroke:none;stroke-width:0.133333"
         d="m 120.64278,98.324683 -1.776,-1.776 v 0 c -0.028,-0.028 -0.0653,-0.04267 -0.104,-0.04267 -0.0373,0 -0.0747,0.01467 -0.104,0.04267 h 0.001 v 0 l -4.76267,4.762667 h -0.001 c -0.028,0.028 -0.0427,0.0653 -0.0427,0.104 v 0 c 0,0.0373 0.0147,0.0747 0.044,0.104 l 1.77467,1.77467 v 0 c 0.0293,0.028 0.0667,0.0427 0.104,0.0427 v 0.001 c 0.0373,0 0.076,-0.0147 0.104,-0.044 l 4.76267,-4.76267 v 0 c 0.0293,-0.028 0.044,-0.06667 0.044,-0.102667 h -0.001 c 0,-0.03867 -0.0147,-0.076 -0.0427,-0.104 z m -1.62667,-1.924 1.77467,1.774667 c 0.0693,0.06933 0.104,0.161333 0.104,0.253333 v 0 c 0,0.09067 -0.0347,0.181334 -0.104,0.250667 v 0 l -4.76267,4.76267 c -0.0693,0.0693 -0.16,0.104 -0.252,0.104 v 0 c -0.0907,0 -0.18133,-0.0347 -0.25067,-0.104 v 0 l -1.77733,-1.776 c -0.0693,-0.068 -0.10267,-0.16 -0.10267,-0.25067 v 0 c 0,-0.0907 0.0347,-0.184 0.10267,-0.252 v 0 l 4.764,-4.762667 v 0 0 c 0.0693,-0.07067 0.16,-0.104 0.25067,-0.104 0.092,0 0.18266,0.03333 0.25333,0.104 v 0" />
    </g>
  </g>
</svg>
