<?xml version="1.0" encoding="UTF-8" standalone="no"?>
<!-- Created with Inkscape (http://www.inkscape.org/) -->

<svg
   width="210mm"
   height="297mm"
   viewBox="0 0 210 297"
   version="1.1"
   id="svg81134"
   inkscape:version="1.1.1 (3bf5ae0d25, 2021-09-20)"
   sodipodi:docname="search_white.svg"
   inkscape:export-filename="C:\Users\rdbog\Documents\Food Optimisation\Quanteco-HQ.github.io\assets\images\qe\search_white.png"
   inkscape:export-xdpi="106.44602"
   inkscape:export-ydpi="106.44602"
   xmlns:inkscape="http://www.inkscape.org/namespaces/inkscape"
   xmlns:sodipodi="http://sodipodi.sourceforge.net/DTD/sodipodi-0.dtd"
   xmlns="http://www.w3.org/2000/svg"
   xmlns:svg="http://www.w3.org/2000/svg">
  <sodipodi:namedview
     id="namedview81136"
     pagecolor="#ffffff"
     bordercolor="#666666"
     borderopacity="1.0"
     inkscape:pageshadow="2"
     inkscape:pageopacity="0.0"
     inkscape:pagecheckerboard="0"
     inkscape:document-units="mm"
     showgrid="false"
     inkscape:zoom="11.745006"
     inkscape:cx="0.46828415"
     inkscape:cy="5.5342673"
     inkscape:window-width="958"
     inkscape:window-height="1000"
     inkscape:window-x="-7"
     inkscape:window-y="0"
     inkscape:window-maximized="0"
     inkscape:current-layer="layer2" />
  <defs
     id="defs81131" />
  <g
     inkscape:groupmode="layer"
     id="layer2"
     inkscape:label="Layer 2" />
  <g
     inkscape:label="Layer 1"
     inkscape:groupmode="layer"
     id="layer1">
    <path
       id="path1346"
       style="fill:#ffffff;fill-opacity:1;fill-rule:evenodd;stroke:none;stroke-width:0.0974506"
       d="M 5.6852849,6.6773305 4.5879907,7.7746268 c -0.1442321,0.1432527 -0.3761627,0.1432527 -0.5203875,0 -0.1432527,-0.1432528 -0.1432527,-0.3771348 0,-0.5194133 L 5.1658694,6.1569429 c 0.1422807,-0.1432527 0.3751906,-0.1432527 0.5194155,0 0.1432527,0.1442271 0.1432527,0.3761598 0,0.5203876" />
    <path
       id="path1348"
       style="fill:#ffffff;fill-opacity:1;fill-rule:nonzero;stroke:none;stroke-width:0.0974506"
       d="M 5.7388804,6.7309282 4.6415863,7.8291995 C 4.5548526,7.914956 4.4408351,7.9588089 4.3268176,7.9588089 4.2137795,7.9588089 4.1007341,7.914956 4.0130283,7.8291995 3.927274,7.7414938 3.8834211,7.6284505 3.8834211,7.514433 c 0,-0.1130432 0.043853,-0.2270607 0.1296072,-0.3137915 L 5.1113018,6.1033452 c 0.086726,-0.086731 0.2007439,-0.1296101 0.3137893,-0.1296101 0.1130454,0 0.2270629,0.042881 0.3137893,0.1296101 0.086734,0.086731 0.1296145,0.2007483 0.1296145,0.3137915 0,0.1140175 -0.042903,0.22706 -0.1296145,0.3137915 z M 4.5334158,7.7200541 5.63071,6.6227578 c 0.056497,-0.056519 0.084782,-0.1305844 0.084782,-0.2056211 0,-0.074062 -0.028285,-0.1490998 -0.084782,-0.205621 -0.056497,-0.056519 -0.1315587,-0.084782 -0.2056189,-0.084782 -0.07504,0 -0.1490998,0.028263 -0.2056189,0.084782 L 4.1221708,7.308812 c -0.056497,0.056519 -0.085754,0.1315586 -0.085754,0.205621 0,0.075037 0.029235,0.1490998 0.085754,0.2056211 0.056497,0.057498 0.1305866,0.085757 0.2046468,0.085757 0.07504,0 0.1500792,-0.028263 0.2065982,-0.085757" />
    <path
       id="path1350"
       style="fill:#ffffff;fill-opacity:1;fill-rule:evenodd;stroke:none;stroke-width:0.0974506"
       d="m 8.0923184,7.6011645 c 0.9628193,0 1.9256316,-0.3673899 2.6604086,-1.1021691 0.734784,-0.7347791 1.101197,-1.697594 1.101197,-2.6594339 0,-0.9637884 -0.366413,-1.9266033 -1.101197,-2.6613825 C 10.01795,0.44437415 9.0551377,0.07698421 8.0923184,0.07698421 c -0.963784,0 -1.9256239,0.36738994 -2.6604082,1.10119479 -0.7347769,0.7347792 -1.1021691,1.6975941 -1.1021691,2.6613825 0,0.8858282 0.3108731,1.7706822 0.933584,2.4801246 0.053574,0.061394 0.1101146,0.1208388 0.1685851,0.1793093 0.028285,0.029235 0.05752,0.056519 0.086734,0.084782 0.7230829,0.6782579 1.6478963,1.0173868 2.5736742,1.0173871 z m 0,-0.7347799 c -0.7718107,0 -1.5085391,-0.2904033 -2.069856,-0.8185864 C 5.998124,6.02441 5.9747358,6.0019939 5.9513476,5.9795851 5.9045712,5.9318366 5.8587669,5.8840837 5.814914,5.8343838 5.3296088,5.2808625 5.0645473,4.5743443 5.0645473,3.8395644 c 0,-0.806893 0.3167128,-1.5718817 0.8868003,-2.1409949 0.5700875,-0.5710617 1.3340997,-0.88777747 2.1409927,-0.88777747 0.805921,0 1.5699332,0.31671577 2.1409997,0.88777747 0.569108,0.5691132 0.885829,1.3341019 0.885829,2.1409949 0,0.8049445 -0.316721,1.5689589 -0.885829,2.1400207 C 9.6622735,6.5486983 8.8982613,6.8663876 8.0923403,6.8663876" />
    <path
       id="path1352"
       style="fill:#ffffff;fill-opacity:0.0501672;fill-rule:nonzero;stroke:none;stroke-width:0.0974506"
       d="m 8.0923184,7.5251529 c 0.4804376,0 0.9618399,-0.094528 1.4120628,-0.2806585 0.4336612,-0.17931 0.8400308,-0.4463251 1.1937778,-0.7990967 0.352767,-0.3537466 0.619787,-0.7610916 0.800067,-1.1947477 0.186133,-0.4502229 0.279686,-0.9306553 0.279686,-1.4110885 0,-0.4814067 -0.09355,-0.9628141 -0.279686,-1.4130371 -0.18028,-0.433656 -0.4473,-0.841001 -0.800067,-1.1937726 C 10.344412,0.87900518 9.9380424,0.61296437 9.5043812,0.43268005 9.0541583,0.24654868 8.572756,0.15299587 8.0923184,0.15299587 c -0.4814023,0 -0.9618399,0.0935528 -1.4130349,0.27968418 C 6.2466018,0.61296437 5.8392596,0.87900518 5.4864851,1.2327518 5.1327386,1.5855234 4.8657257,1.9928684 4.6864112,2.4265244 c -0.1871056,0.450223 -0.279679,0.9316304 -0.279679,1.4130371 0,0.4404781 0.077956,0.8819304 0.2358261,1.2999946 0.1520234,0.4053957 0.3781142,0.7883776 0.678258,1.1294551 0.024338,0.028263 0.051673,0.058471 0.080887,0.088681 0.025362,0.027284 0.052624,0.055547 0.084782,0.087706 0.019515,0.019493 0.033109,0.03411 0.041879,0.040929 0.012644,0.013646 0.027262,0.027284 0.042903,0.041901 0.3469274,0.3264598 0.7435475,0.572036 1.1635631,0.7377027 0.4346332,0.1715137 0.8965503,0.2592195 1.3574879,0.2592195 z M 9.5628517,7.3857979 C 9.0921641,7.5806998 8.5922413,7.6771762 8.0923184,7.6771762 7.6118882,7.6771762 7.1314579,7.5875212 6.6783115,7.4082118 6.2417268,7.2357238 5.8285376,6.9794279 5.4660205,6.6383496 5.452353,6.6256835 5.4377353,6.6110658 5.4212174,6.5964482 5.4007528,6.5759835 5.3861351,6.5613659 5.3773645,6.5525953 5.3501027,6.5262836 5.3218176,6.4960763 5.2906309,6.4629403 5.263369,6.4337051 5.2341337,6.4025183 5.2058486,6.3693882 4.8930314,6.0136924 4.6581773,5.6141437 4.4993275,5.193156 4.334638,4.7575507 4.2527793,4.2975829 4.2527793,3.8395637 c 0,-0.5008971 0.098428,-1.00082 0.2923526,-1.4715076 C 4.7322375,1.9158839 5.0099724,1.4919727 5.3773645,1.1245835 5.7447494,0.75719357 6.1686606,0.47945865 6.621807,0.29137875 7.0915226,0.09745108 7.5924175,4.7176737e-7 8.0923403,4.7176737e-7 8.5922632,4.7176737e-7 9.0921861,0.09745108 9.5628737,0.29137875 10.01602,0.47945865 10.438959,0.75719357 10.806351,1.1245835 c 0.367385,0.3673892 0.64512,0.7913004 0.832226,1.2434726 0.194904,0.4706876 0.292352,0.9706105 0.292352,1.4715076 0,0.4989486 -0.09745,0.9998457 -0.292352,1.469559 C 11.451471,5.7622692 11.173736,6.1861804 10.806351,6.5525953 10.438959,6.9209595 10.01602,7.1977202 9.5628737,7.3858001 Z M 8.0923184,6.7893987 c -0.3761554,0 -0.7445196,-0.071137 -1.0865721,-0.205621 C 6.6636938,6.4483212 6.3479531,6.2495215 6.0741138,5.9922512 6.0614695,5.9795851 6.0497754,5.968863 6.0390315,5.9591204 c -0.00512,-0.0049 -0.016591,-0.016569 -0.033109,-0.03411 -0.025362,-0.02534 -0.04875,-0.048728 -0.067241,-0.069193 C 5.9143431,5.830478 5.8928552,5.8070898 5.8723905,5.7846809 5.6355849,5.5147416 5.4533543,5.2077714 5.3295868,4.8793623 5.2058267,4.5499782 5.1415091,4.1981809 5.1415091,3.8395615 c 0,-0.3937009 0.076984,-0.7776578 0.22316,-1.1304294 C 5.5118248,2.3553856 5.7271863,2.0298992 6.0059006,1.7521643 6.2836355,1.4744294 6.6091189,1.2580885 6.9618934,1.110938 7.3166121,0.96476169 7.6986219,0.88777576 8.0923184,0.88777576 c 0.3937039,0 0.7757136,0.0769859 1.1294602,0.22316224 0.3537466,0.1471505 0.67923,0.3634914 0.9569654,0.6412263 0.277734,0.2777349 0.494075,0.6032213 0.640252,0.9569678 0.147148,0.3527716 0.224139,0.7367285 0.224139,1.1304294 0,0.3927274 -0.07699,0.7757092 -0.224139,1.1294558 C 10.672819,5.3217889 10.456478,5.6472752 10.178744,5.9250102 9.9010086,6.2037193 9.5755252,6.419086 9.2217786,6.5662365 8.868032,6.7124128 8.4860223,6.7893987 8.0923184,6.7893987 Z M 9.2792698,6.7065657 C 8.9070099,6.8615126 8.5045355,6.9423963 8.0923184,6.9423963 7.6956983,6.9423963 7.309793,6.8683339 6.9501993,6.7260554 6.5906057,6.5837777 6.2582959,6.3742581 5.9698389,6.1033452 5.9581448,6.0926232 5.9464507,6.0809291 5.9327832,6.0682629 5.9152421,6.0507218 5.903548,6.0399997 5.8967508,6.0331806 5.8762861,6.0117439 5.8519477,5.9873763 5.8265862,5.9600925 5.8041481,5.9357322 5.7817831,5.9113646 5.7573717,5.8840808 5.508872,5.6004988 5.3168914,5.278911 5.1863048,4.93296 5.0566977,4.5860355 4.9884845,4.215722 4.9884845,3.8395615 c 0,-0.4141656 0.080879,-0.8166379 0.2348541,-1.1888999 C 5.3782855,2.2783989 5.6053484,1.9363464 5.8967215,1.6439939 6.1890741,1.3526163 6.5311266,1.1245813 6.9043658,0.97060874 7.2766256,0.81566189 7.6791,0.73477744 8.0922892,0.73477744 c 0.4122171,0 0.8146915,0.0808844 1.1869513,0.2358313 0.3732392,0.15397256 0.7152917,0.38200756 1.0076445,0.67338516 0.29138,0.2923525 0.518436,0.634405 0.673383,1.0066677 0.154947,0.372262 0.235833,0.7747343 0.235833,1.1888999 0,0.4122171 -0.08089,0.8146893 -0.235833,1.1869513 -0.154947,0.373237 -0.382003,0.7143153 -0.673383,1.0066678 C 9.9945322,6.3255332 9.6524797,6.5525931 9.2792405,6.7065657" />
    <path
       id="path1354"
       style="fill:#ffffff;fill-opacity:1;fill-rule:evenodd;stroke:none;stroke-width:0.0974506"
       d="M 9.7402147,5.6969752 C 10.432118,5.1395561 10.672819,4.1806397 10.321024,3.3581548 c -0.15787,0.018513 -0.313796,0.068213 -0.4580212,0.1520233 -0.034132,0.019493 -0.066291,0.039957 -0.097448,0.062366 0.2553182,0.5739853 0.094525,1.2483454 -0.3810377,1.6459449 0.016591,0.038978 0.037056,0.076986 0.05847,0.1149917 0.081859,0.1403292 0.18321,0.2621431 0.2972275,0.3634922" />
    <path
       id="path1358"
       style="fill:#a1e6ef;fill-opacity:0;fill-rule:evenodd;stroke:none;stroke-width:0.0974506"
       d="M 9.3845167,5.2184913 C 9.8600793,4.8208918 10.020873,4.1465317 9.7655544,3.5725464 9.796763,3.5501303 9.8289218,3.5296656 9.8630028,3.5101803 10.007228,3.4263723 10.163154,3.3766724 10.321024,3.358157 10.672819,4.1806419 10.432118,5.1395583 9.7402147,5.6969774 9.6261972,5.5956282 9.5248459,5.4738144 9.4429872,5.3334852 9.4215724,5.2954794 9.4011077,5.2574735 9.3845167,5.2184935 Z M 8.0923184,6.8663846 c 0.805921,0 1.5699332,-0.3176892 2.1409996,-0.8868024 0.569109,-0.5710618 0.885829,-1.3350762 0.885829,-2.1400207 0,-0.806893 -0.31672,-1.5718817 -0.885829,-2.1409949 C 9.6622516,1.1275048 8.8982394,0.8107891 8.0923184,0.8107891 c -0.806893,0 -1.5709052,0.3167157 -2.1409927,0.8877775 -0.5700875,0.5691132 -0.8868003,1.3341019 -0.8868003,2.1409949 0,0.7347799 0.2650614,1.4412981 0.7503667,1.9948194 0.043853,0.0497 0.089657,0.097451 0.1364336,0.1452013 0.023388,0.022416 0.046776,0.044825 0.071115,0.068213 0.5613169,0.5281831 1.2980454,0.8185864 2.0698561,0.8185864" />
    <path
       id="path1362"
       style="fill:#ffffff;fill-opacity:1;fill-rule:nonzero;stroke:none;stroke-width:0.0974506"
       d="M 10.960297,2.6506616 C 10.80535,2.2783989 10.578294,1.9363464 10.286914,1.6439939 9.9945614,1.3526163 9.6525089,1.1245813 9.2792698,0.97060874 8.907982,0.81663615 8.5055149,0.73477744 8.0923184,0.73477744 c -0.4131892,0 -0.8156636,0.0818587 -1.1879234,0.2358313 C 6.5311558,1.1245813 6.1891033,1.3526163 5.8967508,1.6439939 5.6053776,1.9363464 5.3783147,2.2783989 5.2233678,2.6506616 5.0693931,3.0229236 4.9885137,3.4253959 4.9885137,3.8395615 c 0,0.3761605 0.068191,0.746474 0.1978204,1.0933985 0.1305866,0.345951 0.3225672,0.6675388 0.5710668,0.9511208 0.024338,0.027284 0.046776,0.051651 0.069214,0.076012 0.025362,0.027284 0.0497,0.051651 0.070165,0.073088 0.00658,0.0068 0.018491,0.017541 0.036033,0.035082 0.013667,0.012666 0.025361,0.02436 0.037056,0.035082 0.288457,0.2709129 0.6207668,0.4804325 0.9803605,0.6227102 0.3595936,0.1422785 0.745499,0.2163409 1.142119,0.2163409 0.4122171,0 0.8146916,-0.080884 1.1869514,-0.2358306 C 9.652539,6.5525927 9.9945915,6.3255328 10.286944,6.0331802 10.578325,5.7408277 10.80538,5.3997494 10.960327,5.0265124 c 0.154947,-0.372262 0.235834,-0.7747342 0.235834,-1.1869513 0,-0.4141656 -0.08089,-0.8166379 -0.235834,-1.1888999 z M 10.818996,4.9690173 C 10.672819,5.3217889 10.456478,5.6472752 10.178744,5.9250102 9.9010086,6.2037193 9.5755252,6.419086 9.2217786,6.5662365 8.868032,6.7124128 8.4860223,6.7893987 8.0923184,6.7893987 7.716163,6.7893987 7.3477988,6.718262 7.0057463,6.5837777 6.6636938,6.4483212 6.3479531,6.2495215 6.0741138,5.9922512 6.0624197,5.9795851 6.0507256,5.968863 6.0399816,5.9591204 c -0.00585,-0.0049 -0.017541,-0.016569 -0.034132,-0.03411 -0.025361,-0.02534 -0.04875,-0.048728 -0.067241,-0.070165 C 5.91427,5.8304853 5.8927821,5.8070971 5.8723174,5.7846809 5.6355118,5.5147416 5.4532812,5.2077714 5.3295137,4.8793623 5.2057536,4.5499782 5.141436,4.1981809 5.141436,3.8395615 5.141436,3.4458606 5.21842,3.0619037 5.364596,2.7091321 5.5117517,2.3553856 5.7271132,2.0298992 6.0058275,1.7521643 6.2835624,1.4744294 6.6090458,1.2580885 6.9618203,1.110938 7.316539,0.96476169 7.6995208,0.88777576 8.0922453,0.88777576 c 0.3927318,0 0.7757137,0.0769859 1.1294602,0.22316224 0.3537466,0.1471505 0.67923,0.3634914 0.9569645,0.6412263 0.277735,0.2777349 0.494076,0.6032213 0.640253,0.9569678 0.147148,0.3527716 0.224139,0.7367285 0.224139,1.1304294 0,0.3927274 -0.07699,0.7757092 -0.224139,1.1294558" />
    <path
       id="path1364"
       style="fill:#ffffff;fill-opacity:1;fill-rule:nonzero;stroke:#ffffff;stroke-width:0.0974506;stroke-opacity:1"
       d="M 5.1687929,8.060158 3.8707476,6.763087 c -0.071115,-0.072116 -0.1880777,-0.072116 -0.2601938,0 l -3.48093942,3.479967 c -0.07111475,0.07111 -0.07111475,0.189057 0,0.260194 l 1.29804532,1.298045 c 0.071115,0.07112 0.1880777,0.07112 0.2592144,0 L 5.1687929,8.3203518 c 0.071115,-0.072116 0.071115,-0.1880806 0,-0.2601938" />
    <path
       id="path1366"
       style="fill:#ffffff;fill-opacity:1;fill-rule:nonzero;stroke:none;stroke-width:0.0974506"
       d="M 5.1142253,8.11473 3.81618,6.8166847 v 0 C 3.7957153,6.79622 3.7684535,6.785498 3.7401684,6.785498 c -0.027262,0 -0.054597,0.010722 -0.076012,0.031187 h 7.309e-4 v 0 l -3.4809465,3.480944 h -7.3089e-4 c -0.0204647,0.02046 -0.0312086,0.04773 -0.0312086,0.07601 v 0 c 0,0.02726 0.010744,0.0546 0.0321588,0.07601 l 1.29707319,1.297073 v 0 c 0.021415,0.02046 0.04875,0.03121 0.076012,0.03121 v 7.31e-4 c 0.027262,0 0.055547,-0.01074 0.076012,-0.03216 L 5.1142034,8.2655598 v 0 c 0.021415,-0.020465 0.032159,-0.048728 0.032159,-0.075037 h -7.309e-4 c 0,-0.028263 -0.010744,-0.055547 -0.031209,-0.076012 z M 3.9253225,6.7085143 5.2223958,8.0055853 c 0.05065,0.050672 0.076012,0.1179153 0.076012,0.1851564 v 0 c 0,0.066269 -0.025362,0.1325336 -0.076012,0.1832078 v 0 L 1.741449,11.854896 c -0.05065,0.05065 -0.116941,0.07601 -0.1841821,0.07601 v 0 c -0.066291,0 -0.1325307,-0.02536 -0.18321,-0.07601 v 0 L 0.07503947,10.556851 C 0.02438939,10.507151 -1.1854721e-7,10.43991 -1.1854721e-7,10.373641 v 0 c 0,-0.06629 0.0253615785472,-0.134482 0.0750395885472,-0.184182 v 0 L 3.5569583,6.7085143 v 0 0 c 0.05065,-0.051651 0.116941,-0.076012 0.1832101,-0.076012 0.067241,0 0.1335027,0.02436 0.1851541,0.076012 v 0" />
  </g>
</svg>
