<?xml version="1.0" encoding="UTF-8" standalone="no"?>
<!-- Created with Inkscape (http://www.inkscape.org/) -->

<svg
   width="210mm"
   height="297mm"
   viewBox="0 0 210 297"
   version="1.1"
   id="svg848"
   inkscape:version="1.1.1 (3bf5ae0d25, 2021-09-20)"
   sodipodi:docname="Q_white.svg"
   xmlns:inkscape="http://www.inkscape.org/namespaces/inkscape"
   xmlns:sodipodi="http://sodipodi.sourceforge.net/DTD/sodipodi-0.dtd"
   xmlns="http://www.w3.org/2000/svg"
   xmlns:svg="http://www.w3.org/2000/svg">
  <sodipodi:namedview
     id="namedview850"
     pagecolor="#ffffff"
     bordercolor="#666666"
     borderopacity="1.0"
     inkscape:pageshadow="2"
     inkscape:pageopacity="0.0"
     inkscape:pagecheckerboard="0"
     inkscape:document-units="mm"
     showgrid="false"
     inkscape:zoom="2.9647587"
     inkscape:cx="87.190907"
     inkscape:cy="7.2518549"
     inkscape:window-width="1920"
     inkscape:window-height="1009"
     inkscape:window-x="-8"
     inkscape:window-y="-8"
     inkscape:window-maximized="1"
     inkscape:current-layer="layer2" />
  <defs
     id="defs845" />
  <g
     inkscape:groupmode="layer"
     id="layer2"
     inkscape:label="Layer 2" />
  <g
     inkscape:label="Layer 1"
     inkscape:groupmode="layer"
     id="layer1">
    <path
       style="display:inline;fill:none;stroke:#ffffff;stroke-width:0.396875;stroke-linecap:butt;stroke-linejoin:miter;stroke-miterlimit:4;stroke-dasharray:none;stroke-opacity:1"
       d="m 12.732747,14.691687 c 0,0 2.385979,-1.438122 3.203094,-3.399202 0.481161,-1.154784 0.326848,-1.9610775 0.326848,-1.9610775 0,0 0,-1.895708 -1.666917,-4.379741 C 12.928856,2.4676346 9.7911311,2.6964286 9.7911311,2.6964286 c 0,0 -2.353294,-0.03268 -4.216318,1.8630219 -1.863024,1.895708 -2.091816,3.922155 -2.091816,3.922155 0,0 -0.228793,1.340073 0.09805,2.7781925 0.326846,1.438127 1.503493,2.712828 1.503493,2.712828 0,0 1.163449,1.294924 2.484032,1.666918 2.320608,0.653692 5.1641709,-0.947857 5.1641709,-0.947857"
       id="path499"
       sodipodi:nodetypes="cscscscscsc"
       inkscape:export-filename="C:\Users\rdbog\Documents\Food Optimisation\media\quanteco_logo\Q_notion.png"
       inkscape:export-xdpi="507.99994"
       inkscape:export-ydpi="507.99994" />
    <path
       style="display:inline;fill:#008b46;fill-opacity:1;stroke:#ffffff;stroke-width:0.396875;stroke-linecap:butt;stroke-linejoin:miter;stroke-miterlimit:4;stroke-dasharray:none;stroke-opacity:1"
       d="m 10.476516,14.865333 c 0.172166,1.114615 0.384928,1.590339 1.295902,2.352185 0.822642,0.687975 2.768291,1.038263 4.684605,1.129218 -0.864256,-1.497573 -1.279742,-2.63153 -1.573144,-3.623347 -0.246462,-0.83313 -0.508883,-2.328189 -1.355145,-2.835811 -0.616727,-0.398264 -1.710112,-0.440889 -2.310193,0.221292 -0.488854,0.595526 -0.755721,1.645224 -0.742025,2.756463 z"
       id="path13029"
       sodipodi:nodetypes="cscsccc"
       inkscape:export-filename="C:\Users\rdbog\Documents\Food Optimisation\media\quanteco_logo\Q_notion.png"
       inkscape:export-xdpi="507.99994"
       inkscape:export-ydpi="507.99994" />
    <g
       id="g34047"
       style="display:inline;stroke:#ffffff;stroke-width:1.5;stroke-miterlimit:4;stroke-dasharray:none;stroke-opacity:1"
       transform="matrix(0.26458333,0,0,0.26458333,-14.983819,-28.811557)"
       inkscape:export-filename="C:\Users\rdbog\Documents\Food Optimisation\media\quanteco_logo\Q_notion.png"
       inkscape:export-xdpi="507.99994"
       inkscape:export-ydpi="507.99994">
      <path
         style="fill:none;stroke:#ffffff;stroke-width:1.5;stroke-linecap:butt;stroke-linejoin:miter;stroke-miterlimit:4;stroke-dasharray:none;stroke-opacity:1"
         d="m 97.467115,148.63075 c 0.206687,2.84244 1.841975,5.79492 1.841975,5.79492 v 0 c 0,0 1.02175,10.64678 13.80736,19.60289"
         id="path12127"
         sodipodi:nodetypes="cscc" />
      <path
         style="fill:none;stroke:#ffffff;stroke-width:1.5;stroke-linecap:butt;stroke-linejoin:miter;stroke-miterlimit:4;stroke-dasharray:none;stroke-opacity:1"
         d="m 101.04956,160.65397 c 2.51697,0.26251 3.20398,-0.25826 3.92837,-0.36795"
         id="path12982"
         sodipodi:nodetypes="cc" />
      <path
         style="fill:none;stroke:#ffffff;stroke-width:1.5;stroke-linecap:butt;stroke-linejoin:miter;stroke-miterlimit:4;stroke-dasharray:none;stroke-opacity:1"
         d="m 104.87906,166.46 c 0.83342,-0.18536 1.72433,-0.24254 2.96917,-0.15908"
         id="path13019"
         sodipodi:nodetypes="cc" />
      <path
         style="fill:none;stroke:#ffffff;stroke-width:1.5;stroke-linecap:butt;stroke-linejoin:miter;stroke-miterlimit:4;stroke-dasharray:none;stroke-opacity:1"
         d="m 109.14093,170.96893 c 0.35215,-0.54501 1.16072,-0.54213 1.77934,-0.58523"
         id="path13021"
         sodipodi:nodetypes="cc" />
      <path
         style="fill:none;stroke:#ffffff;stroke-width:1.5;stroke-linecap:butt;stroke-linejoin:miter;stroke-miterlimit:4;stroke-dasharray:none;stroke-opacity:1"
         d="m 101.38927,160.68485 c -0.45359,1.79164 -1.454876,2.812 -1.698571,4.1006"
         id="path13023"
         sodipodi:nodetypes="cc" />
      <path
         style="fill:none;stroke:#ffffff;stroke-width:1.5;stroke-linecap:butt;stroke-linejoin:miter;stroke-miterlimit:4;stroke-dasharray:none;stroke-opacity:1"
         d="m 104.87906,166.46 c -0.97948,0.75167 -1.6726,3.00407 -1.6726,3.00407"
         id="path13025"
         sodipodi:nodetypes="cc" />
      <path
         style="fill:none;stroke:#ffffff;stroke-width:1.5;stroke-linecap:butt;stroke-linejoin:miter;stroke-miterlimit:4;stroke-dasharray:none;stroke-opacity:1"
         d="m 109.14093,170.96893 c -0.73363,0.77266 -0.68592,1.07172 -0.72063,1.9914"
         id="path13027"
         sodipodi:nodetypes="cc" />
    </g>
  </g>
</svg>
