<?xml version="1.0" encoding="UTF-8" standalone="no"?>
<!-- Created with Inkscape (http://www.inkscape.org/) -->

<svg
   width="210mm"
   height="297mm"
   viewBox="0 0 210 297"
   version="1.1"
   id="svg887"
   inkscape:export-filename="C:\Users\rdbog\Documents\Food Optimisation\media\quanteco.png"
   inkscape:export-xdpi="96"
   inkscape:export-ydpi="96"
   inkscape:version="1.1.1 (3bf5ae0d25, 2021-09-20)"
   sodipodi:docname="quanteco.svg"
   xmlns:inkscape="http://www.inkscape.org/namespaces/inkscape"
   xmlns:sodipodi="http://sodipodi.sourceforge.net/DTD/sodipodi-0.dtd"
   xmlns="http://www.w3.org/2000/svg"
   xmlns:svg="http://www.w3.org/2000/svg">
  <sodipodi:namedview
     id="namedview889"
     pagecolor="#ffffff"
     bordercolor="#666666"
     borderopacity="1.0"
     inkscape:pageshadow="2"
     inkscape:pageopacity="0.0"
     inkscape:pagecheckerboard="0"
     inkscape:document-units="mm"
     showgrid="false"
     inkscape:zoom="1.4823793"
     inkscape:cx="190.572"
     inkscape:cy="124.46207"
     inkscape:window-width="1920"
     inkscape:window-height="1017"
     inkscape:window-x="-8"
     inkscape:window-y="-8"
     inkscape:window-maximized="1"
     inkscape:current-layer="layer2" />
  <defs
     id="defs884" />
  <g
     inkscape:groupmode="layer"
     id="layer2"
     inkscape:label="Layer 2">
    <rect
       style="fill:#ffffff;stroke:#ffffff;stroke-width:0.278562;stroke-opacity:0.82730901;fill-opacity:1"
       id="rect1134"
       width="62.634457"
       height="18.548519"
       x="-1.420895"
       y="-1.2424095" />
  </g>
  <g
     inkscape:label="Layer 1"
     inkscape:groupmode="layer"
     id="layer1">
    <path
       style="display:inline;fill:none;stroke:#000000;stroke-width:0.396875;stroke-linecap:butt;stroke-linejoin:miter;stroke-miterlimit:4;stroke-dasharray:none;stroke-opacity:1"
       d="m 9.5262968,12.199179 c 0,0 2.3859782,-1.438122 3.2030932,-3.3992005 0.481161,-1.154785 0.326848,-1.961078 0.326848,-1.961078 0,0 0,-1.895708 -1.666917,-4.379741 C 9.7224058,-0.02487346 6.5846808,0.20392054 6.5846808,0.20392054 c 0,0 -2.353294,-0.03268 -4.216318,1.86302296 -1.86302399,1.895708 -2.09181599,3.922155 -2.09181599,3.922155 0,0 -0.228793,1.340072 0.09805,2.778193 0.326846,1.4381255 1.50349299,2.7128265 1.50349299,2.7128265 0,0 1.163449,1.294924 2.484032,1.666918 2.320608,0.653692 5.164171,-0.947857 5.164171,-0.947857"
       id="path499"
       sodipodi:nodetypes="cscscscscsc" />
    <path
       style="display:inline;fill:none;stroke:#000000;stroke-width:0.396875;stroke-linecap:butt;stroke-linejoin:miter;stroke-miterlimit:4;stroke-dasharray:none;stroke-opacity:1"
       d="m 15.180739,6.8389005 c 0,0 0.261477,-0.70272 0.792602,-0.588325 0.531124,0.114398 0.21245,1.593376 0.21245,1.593376 0,0 -0.277821,1.12762 -0.20428,2.2715835 0.07354,1.14396 0.384045,1.462635 0.384045,1.462635 0,0 0.236964,0.343191 0.890657,0.563811 0.653693,0.22062 1.299212,-0.424899 1.299212,-0.424899 0,0 0.310312,-0.114009 0.816923,-2.3120515"
       id="path2629"
       sodipodi:nodetypes="cscscscc" />
    <path
       style="display:inline;fill:none;stroke:#000000;stroke-width:0.396875;stroke-linecap:butt;stroke-linejoin:miter;stroke-miterlimit:4;stroke-dasharray:none;stroke-opacity:1"
       d="m 19.413398,6.3322865 c -0.163423,3.611652 0.114398,5.5237045 0.114398,5.5237045"
       id="path3109" />
    <path
       style="display:inline;fill:none;stroke:#000000;stroke-width:0.396875;stroke-linecap:butt;stroke-linejoin:miter;stroke-miterlimit:4;stroke-dasharray:none;stroke-opacity:1"
       d="m 22.601571,7.8237455 c 0.208002,-2.195595 1.756476,-2.010704 1.779588,-2.010704 h 0.02312 c 0,0 0.997382,-0.0067 1.215337,0.68017 0.242988,0.765802 0.122328,5.5613465 0.122328,5.5613465"
       id="path4263"
       sodipodi:nodetypes="cscsc" />
    <path
       style="display:inline;fill:none;stroke:#000000;stroke-width:0.396875;stroke-linecap:butt;stroke-linejoin:miter;stroke-miterlimit:4;stroke-dasharray:none;stroke-opacity:1"
       d="m 25.768597,8.8100195 c 0,0 -0.174083,-0.940051 -1.537663,-0.662712 -1.363581,0.277338 -2.010704,2.8080495 -1.571586,3.4782865 1.15197,1.376857 3.133207,-1.345353 3.133207,-1.345353"
       id="path4859"
       sodipodi:nodetypes="cscc" />
    <path
       style="display:inline;fill:none;stroke:#000000;stroke-width:0.396875;stroke-linecap:butt;stroke-linejoin:miter;stroke-miterlimit:4;stroke-dasharray:none;stroke-opacity:1"
       d="m 28.810228,5.5315145 c 0.212453,-1.12762 0.228793,6.1610535 0.228793,6.1610535"
       id="path3155"
       sodipodi:nodetypes="cc" />
    <path
       style="display:inline;fill:none;stroke:#000000;stroke-width:0.396875;stroke-linecap:butt;stroke-linejoin:miter;stroke-miterlimit:4;stroke-dasharray:none;stroke-opacity:1"
       d="m 28.991489,7.5850115 c 0.769816,-1.948021 1.897475,-2.332138 2.640354,-2.259179 0,0 0.357965,-0.02747 0.561009,0.648991 0.701603,2.337486 0.698608,6.0190595 0.716457,6.1361115 v 0"
       id="path3836"
       sodipodi:nodetypes="ccscc" />
    <path
       style="display:inline;fill:none;stroke:#000000;stroke-width:0.396875;stroke-linecap:butt;stroke-linejoin:miter;stroke-miterlimit:4;stroke-dasharray:none;stroke-opacity:1"
       d="m 35.903072,3.2572355 c -0.602541,7.1858455 0.41601,7.8116965 0.41601,7.8116965 0,0 1.787517,1.889538 3.523686,-1.0727035"
       id="path2274"
       sodipodi:nodetypes="ccc" />
    <path
       style="display:inline;fill:none;stroke:#000000;stroke-width:0.396875;stroke-linecap:butt;stroke-linejoin:miter;stroke-miterlimit:4;stroke-dasharray:none;stroke-opacity:1"
       d="m 35.739372,5.9727575 c 1.128829,-0.01154 1.60469,-0.0668 2.663798,-0.196107"
       id="path2883"
       sodipodi:nodetypes="cc" />
    <path
       style="display:inline;fill:none;stroke:#000000;stroke-width:0.396875;stroke-linecap:butt;stroke-linejoin:miter;stroke-miterlimit:4;stroke-dasharray:none;stroke-opacity:1"
       d="m 41.916765,7.6591195 c 1.781313,0.163425 3.87313,-0.947852 3.987525,-1.307383 0,0 0.359531,-0.702721 -1.176644,-0.784432 -1.536179,-0.08171 -2.647455,1.045909 -2.647455,1.045909 0,0 -0.931934,0.911545 -0.833459,2.287923 0.09862,1.3783555 1.699601,2.6311155 2.631112,2.6801395 0.931513,0.04903 2.173527,-0.212449 2.827217,-1.258358"
       id="path4374"
       sodipodi:nodetypes="ccscssc" />
    <path
       style="display:inline;fill:none;stroke:#000000;stroke-width:0.396875;stroke-linecap:butt;stroke-linejoin:miter;stroke-miterlimit:4;stroke-dasharray:none;stroke-opacity:1"
       d="m 51.477021,6.1719705 c -0.81712,-0.351359 -1.60155,0.03268 -1.60155,0.03268 0,0 -1.00055,0.414157 -1.50349,1.879367 -0.36567,1.065308 -0.13429,1.9512675 0.35953,2.4350055 0.29233,0.286359 0.92946,1.16409 2.17353,0.980538 0.53346,-0.07871 1.02137,-0.46582 1.2747,-0.719061 0.13245,-0.13241 0.35136,-0.163425 0.35136,-0.163425"
       id="path6331"
       sodipodi:nodetypes="ccssssc" />
    <path
       style="display:inline;fill:none;stroke:#000000;stroke-width:0.396875;stroke-linecap:butt;stroke-linejoin:miter;stroke-miterlimit:4;stroke-dasharray:none;stroke-opacity:1"
       d="m 56.101901,6.3762495 c 0.88658,0.0666 2.02067,0.538893 2.55757,1.364583 0.60899,0.936567 -0.24514,2.4595195 -0.24514,2.4595195 0,0 -0.48795,1.187995 -1.85485,1.299213 -0.95594,0.07778 -1.65057,-0.637349 -1.65057,-0.637349 0,0 -0.71721,-0.706427 -0.75992,-1.5852065 -0.0445,-0.915977 -0.04,-1.838519 0.28599,-2.279751 0.62289,-0.843124 1.66692,-0.621009 1.66692,-0.621009 z"
       id="path8324"
       sodipodi:nodetypes="cscscssc" />
    <path
       style="display:inline;fill:none;stroke:#000000;stroke-width:0.188165px;stroke-linecap:butt;stroke-linejoin:miter;stroke-opacity:1"
       d="m 28.731477,5.4130895 0.07875,0.118425 0.126294,0.103955"
       id="path2450"
       sodipodi:nodetypes="ccc" />
    <path
       style="display:inline;fill:#008b46;fill-opacity:1;stroke:#000000;stroke-width:0.396875;stroke-linecap:butt;stroke-linejoin:miter;stroke-miterlimit:4;stroke-dasharray:none;stroke-opacity:1"
       d="m 7.2700658,12.372825 c 0.172166,1.114615 0.384928,1.590339 1.295902,2.352185 0.822642,0.687975 2.7682902,1.038263 4.6846042,1.129218 C 12.386316,14.356655 11.97083,13.222698 11.677428,12.230881 11.430966,11.397751 11.168545,9.9026935 10.322283,9.3950715 9.7055568,8.9968075 8.6121718,8.9541825 8.0120908,9.6163635 7.5232368,10.211888 7.2563698,11.261586 7.2700658,12.372825 Z"
       id="path13029"
       sodipodi:nodetypes="cscsccc" />
    <g
       id="g34047"
       style="display:inline;stroke:#000000;stroke-width:1.5;stroke-miterlimit:4;stroke-dasharray:none;stroke-opacity:1"
       transform="matrix(0.26458333,0,0,0.26458333,-18.19027,-31.304065)">
      <path
         style="fill:none;stroke:#000000;stroke-width:1.5;stroke-linecap:butt;stroke-linejoin:miter;stroke-miterlimit:4;stroke-dasharray:none;stroke-opacity:1"
         d="m 97.467115,148.63075 c 0.206687,2.84244 1.841975,5.79492 1.841975,5.79492 v 0 c 0,0 1.02175,10.64678 13.80736,19.60289"
         id="path12127"
         sodipodi:nodetypes="cscc" />
      <path
         style="fill:none;stroke:#000000;stroke-width:1.5;stroke-linecap:butt;stroke-linejoin:miter;stroke-miterlimit:4;stroke-dasharray:none;stroke-opacity:1"
         d="m 101.04956,160.65397 c 2.51697,0.26251 3.20398,-0.25826 3.92837,-0.36795"
         id="path12982"
         sodipodi:nodetypes="cc" />
      <path
         style="fill:none;stroke:#000000;stroke-width:1.5;stroke-linecap:butt;stroke-linejoin:miter;stroke-miterlimit:4;stroke-dasharray:none;stroke-opacity:1"
         d="m 104.87906,166.46 c 0.83342,-0.18536 1.72433,-0.24254 2.96917,-0.15908"
         id="path13019"
         sodipodi:nodetypes="cc" />
      <path
         style="fill:none;stroke:#000000;stroke-width:1.5;stroke-linecap:butt;stroke-linejoin:miter;stroke-miterlimit:4;stroke-dasharray:none;stroke-opacity:1"
         d="m 109.14093,170.96893 c 0.35215,-0.54501 1.16072,-0.54213 1.77934,-0.58523"
         id="path13021"
         sodipodi:nodetypes="cc" />
      <path
         style="fill:none;stroke:#000000;stroke-width:1.5;stroke-linecap:butt;stroke-linejoin:miter;stroke-miterlimit:4;stroke-dasharray:none;stroke-opacity:1"
         d="m 101.38927,160.68485 c -0.45359,1.79164 -1.454876,2.812 -1.698571,4.1006"
         id="path13023"
         sodipodi:nodetypes="cc" />
      <path
         style="fill:none;stroke:#000000;stroke-width:1.5;stroke-linecap:butt;stroke-linejoin:miter;stroke-miterlimit:4;stroke-dasharray:none;stroke-opacity:1"
         d="m 104.87906,166.46 c -0.97948,0.75167 -1.6726,3.00407 -1.6726,3.00407"
         id="path13025"
         sodipodi:nodetypes="cc" />
      <path
         style="fill:none;stroke:#000000;stroke-width:1.5;stroke-linecap:butt;stroke-linejoin:miter;stroke-miterlimit:4;stroke-dasharray:none;stroke-opacity:1"
         d="m 109.14093,170.96893 c -0.73363,0.77266 -0.68592,1.07172 -0.72063,1.9914"
         id="path13027"
         sodipodi:nodetypes="cc" />
    </g>
  </g>
</svg>
